M48
;Layer_Color=9474304
;FILE_FORMAT=4:4
METRIC,LZ
;TYPE=PLATED
T1F00S00C0.3000
T2F00S00C0.9652
%
T01
X00114085Y0005708
X0021Y0005
X0021942Y00065
X0023525Y00109
X0016825Y001595
X0015325Y0020025
X00157Y00223
X0015275Y00233
X0011975Y00222844
X000955Y002675
X0016275Y0029325
X0018925Y00293
X00213Y0026875
X0018775Y0024575
X0019825Y0033875
X001635Y003385
X0016975Y0037425
X001685Y004035
X00158015Y00402933
X002Y00386
X002165Y004285
X00226141Y00480909
X00170732Y0049225
X00134055Y0048897
X0009Y0035825
X000515Y0035
X0006125Y00269
X000665Y0024875
X0007625Y004555
X000705Y0047425
X0006125Y0050125
X000445Y0054675
X00028Y005455
X0007025Y0057375
X000975Y0057425
X00093Y0054175
X001035Y0051275
X0014575Y0054575
X0017025Y0054625
X00164635Y00553284
X001595Y00561
X00151562Y00565478
X001735Y0057475
X0021325Y005665
X0020275Y005995
X00203Y00644
X001955Y00651
X00189624Y00672874
X00172Y006725
X00181Y0068225
X00167Y0072
X0016002Y0064973
X0008825Y0065
X0016725Y0081925
X00167Y00915
X0019675Y009875
X00214Y01
X0020325Y010115
X0018975Y0102425
X0019475Y010495
X001535Y010375
X00148Y009985
X001695Y0108375
X00168Y0118575
X001685Y012825
X00168Y0138725
X001685Y0151975
X0016675Y0162225
X0016825Y017205
X0014925Y0180025
X00194Y0181
X00214Y0182125
X002025Y0183525
X0019225Y0184875
X00189Y01873
X001585Y0186125
X0015225Y01899968
X001675Y019845
X0016775Y02082
X0016925Y021855
X0016775Y02321
X00167Y0242275
X001665Y0251675
X00174Y02622
X001875Y0269375
X0021425Y0270725
X002035Y02721
X001955Y0273375
X001855Y027585
X00143Y0274825
X0015175Y02701
X001515Y028
X001685Y028885
X001695Y029865
X0016925Y03124
X0016825Y0321775
X001685Y0328425
X001405Y0333675
X0019075Y0334525
X0021475Y0335775
X0020525Y0336775
X00195Y0338325
X0015375Y033952
X00168Y03485
X0016325Y03584425
X0016825Y03683
X001885Y037805
T02
X0024425Y0038835
Y0041375
Y0043915
Y0046455
X0006Y0062
X000346
X000946
X0012
X001454
M30
