G04*
G04 #@! TF.GenerationSoftware,Altium Limited,Altium Designer,21.2.0 (30)*
G04*
G04 Layer_Color=128*
%FSLAX44Y44*%
%MOMM*%
G71*
G04*
G04 #@! TF.SameCoordinates,A6DC43CA-0054-425C-8A59-4F5BC2DD46D4*
G04*
G04*
G04 #@! TF.FilePolarity,Positive*
G04*
G01*
G75*
%ADD13C,0.2540*%
%ADD14C,0.1500*%
%ADD72C,0.0508*%
D13*
X-0Y0D02*
Y3900000D01*
X290000D01*
X290000Y0D01*
X-0D02*
X290000D01*
D14*
X145000D02*
Y3899750D01*
D72*
X239424Y464550D02*
X249076D01*
X244250Y459724D02*
Y469376D01*
X239424Y413750D02*
X249076D01*
X244250Y408924D02*
Y418576D01*
X239424Y388350D02*
X249076D01*
X244250Y383524D02*
Y393176D01*
X239424Y439150D02*
X249076D01*
X244250Y434324D02*
Y443976D01*
X29774Y620000D02*
X39426D01*
X34600Y615174D02*
Y624826D01*
X55174Y620000D02*
X64826D01*
X60000Y615174D02*
Y624826D01*
X115174Y620000D02*
X124826D01*
X120000Y615174D02*
Y624826D01*
X89774Y620000D02*
X99426D01*
X94600Y615174D02*
Y624826D01*
X140574Y620000D02*
X150226D01*
X145400Y615174D02*
Y624826D01*
X158520Y649730D02*
X161520D01*
X160020Y648230D02*
Y651230D01*
X198500Y386000D02*
X201500D01*
X200000Y384500D02*
Y387500D01*
X215000Y428500D02*
X218000D01*
X216500Y427000D02*
Y430000D01*
X144250Y545750D02*
X147250D01*
X145750Y544250D02*
Y547250D01*
X169232Y492250D02*
X172232D01*
X170732Y490750D02*
Y493750D01*
X112585Y57080D02*
X115585D01*
X114085Y55580D02*
Y58580D01*
X233750Y109000D02*
X236750D01*
X235250Y107500D02*
Y110500D01*
X224641Y480909D02*
X227641D01*
X226141Y479409D02*
Y482409D01*
X68750Y573750D02*
X71750D01*
X70250Y572250D02*
Y575250D01*
X43000Y546750D02*
X46000D01*
X44500Y545250D02*
Y548250D01*
X162000Y338500D02*
X165000D01*
X163500Y337000D02*
Y340000D01*
X88500Y358250D02*
X91500D01*
X90000Y356750D02*
Y359750D01*
X196750Y338750D02*
X199750D01*
X198250Y337250D02*
Y340250D01*
X86750Y650000D02*
X89750D01*
X88250Y648500D02*
Y651500D01*
X170500Y672500D02*
X173500D01*
X172000Y671000D02*
Y674000D01*
X188124Y672874D02*
X191124D01*
X189624Y671374D02*
Y674374D01*
X194000Y651000D02*
X197000D01*
X195500Y649500D02*
Y652500D01*
X211750Y566500D02*
X214750D01*
X213250Y565000D02*
Y568000D01*
X168250Y374250D02*
X171250D01*
X169750Y372750D02*
Y375750D01*
X161250Y293250D02*
X164250D01*
X162750Y291750D02*
Y294750D01*
X187750Y293000D02*
X190750D01*
X189250Y291500D02*
Y294500D01*
X118250Y222844D02*
X121250D01*
X119750Y221344D02*
Y224344D01*
X155500Y223000D02*
X158500D01*
X157000Y221500D02*
Y224500D01*
X166750Y159500D02*
X169750D01*
X168250Y158000D02*
Y161000D01*
X94000Y267500D02*
X97000D01*
X95500Y266000D02*
Y269000D01*
X211500Y268750D02*
X214500D01*
X213000Y267250D02*
Y270250D01*
X65000Y248750D02*
X68000D01*
X66500Y247250D02*
Y250250D01*
X151750Y200250D02*
X154750D01*
X153250Y198750D02*
Y201750D01*
X151250Y233000D02*
X154250D01*
X152750Y231500D02*
Y234500D01*
X188250Y1024250D02*
X191250D01*
X189750Y1022750D02*
Y1025750D01*
X179500Y682250D02*
X182500D01*
X181000Y680750D02*
Y683750D01*
X187500Y1873000D02*
X190500D01*
X189000Y1871500D02*
Y1874500D01*
X152250Y3395200D02*
X155250D01*
X153750Y3393700D02*
Y3396700D01*
X26500Y545500D02*
X29500D01*
X28000Y544000D02*
Y547000D01*
X168750Y546250D02*
X171750D01*
X170250Y544750D02*
Y547750D01*
X161750Y3584425D02*
X164750D01*
X163250Y3582925D02*
Y3585925D01*
X166500Y3485000D02*
X169500D01*
X168000Y3483500D02*
Y3486500D01*
X187000Y3780500D02*
X190000D01*
X188500Y3779000D02*
Y3782000D01*
X166750Y3683000D02*
X169750D01*
X168250Y3681500D02*
Y3684500D01*
X189250Y3345250D02*
X192250D01*
X190750Y3343750D02*
Y3346750D01*
X203750Y3367750D02*
X206750D01*
X205250Y3366250D02*
Y3369250D01*
X167750Y3124000D02*
X170750D01*
X169250Y3122500D02*
Y3125500D01*
X139000Y3336750D02*
X142000D01*
X140500Y3335250D02*
Y3338250D01*
X166750Y3217750D02*
X169750D01*
X168250Y3216250D02*
Y3219250D01*
X167000Y3284250D02*
X170000D01*
X168500Y3282750D02*
Y3285750D01*
X213250Y3357750D02*
X216250D01*
X214750Y3356250D02*
Y3359250D01*
X150000Y2800000D02*
X153000D01*
X151500Y2798500D02*
Y2801500D01*
X168000Y2986500D02*
X171000D01*
X169500Y2985000D02*
Y2988000D01*
X167000Y2888500D02*
X170000D01*
X168500Y2887000D02*
Y2890000D01*
X194000Y2733750D02*
X197000D01*
X195500Y2732250D02*
Y2735250D01*
X141500Y2748250D02*
X144500D01*
X143000Y2746750D02*
Y2749750D01*
X150250Y2701000D02*
X153250D01*
X151750Y2699500D02*
Y2702500D01*
X166250Y2321000D02*
X169250D01*
X167750Y2319500D02*
Y2322500D01*
X172500Y2622000D02*
X175500D01*
X174000Y2620500D02*
Y2623500D01*
X165000Y2516750D02*
X168000D01*
X166500Y2515250D02*
Y2518250D01*
X165500Y2422750D02*
X168500D01*
X167000Y2421250D02*
Y2424250D01*
X212750Y2707250D02*
X215750D01*
X214250Y2705750D02*
Y2708750D01*
X167000Y1519750D02*
X170000D01*
X168500Y1518250D02*
Y1521250D01*
X150750Y1899968D02*
X153750D01*
X152250Y1898468D02*
Y1901468D01*
X167750Y2185500D02*
X170750D01*
X169250Y2184000D02*
Y2187000D01*
X166250Y2082000D02*
X169250D01*
X167750Y2080500D02*
Y2083500D01*
X166000Y1984500D02*
X169000D01*
X167500Y1983000D02*
Y1986000D01*
X165250Y1622250D02*
X168250D01*
X166750Y1620750D02*
Y1623750D01*
Y1720500D02*
X169750D01*
X168250Y1719000D02*
Y1722000D01*
X147750Y1800250D02*
X150750D01*
X149250Y1798750D02*
Y1801750D01*
X192500Y1810000D02*
X195500D01*
X194000Y1808500D02*
Y1811500D01*
X212500Y1821250D02*
X215500D01*
X214000Y1819750D02*
Y1822750D01*
X146500Y998500D02*
X149500D01*
X148000Y997000D02*
Y1000000D01*
X165500Y720000D02*
X168500D01*
X167000Y718500D02*
Y721500D01*
Y1282500D02*
X170000D01*
X168500Y1281000D02*
Y1284000D01*
X168000Y1083750D02*
X171000D01*
X169500Y1082250D02*
Y1085250D01*
X166500Y1185750D02*
X169500D01*
X168000Y1184250D02*
Y1187250D01*
X166500Y1387250D02*
X169500D01*
X168000Y1385750D02*
Y1388750D01*
X152000Y1037500D02*
X155000D01*
X153500Y1036000D02*
Y1039000D01*
X165750Y819250D02*
X168750D01*
X167250Y817750D02*
Y820750D01*
X165500Y915000D02*
X168500D01*
X167000Y913500D02*
Y916500D01*
X184000Y2758500D02*
X187000D01*
X185500Y2757000D02*
Y2760000D01*
X193500Y3383250D02*
X196500D01*
X195000Y3381750D02*
Y3384750D01*
X186000Y2693750D02*
X189000D01*
X187500Y2692250D02*
Y2695250D01*
X202000Y2721000D02*
X205000D01*
X203500Y2719500D02*
Y2722500D01*
X195250Y987500D02*
X198250D01*
X196750Y986000D02*
Y989000D01*
X201750Y1011500D02*
X204750D01*
X203250Y1010000D02*
Y1013000D01*
X201500Y644000D02*
X204500D01*
X203000Y642500D02*
Y645500D01*
X190750Y1848750D02*
X193750D01*
X192250Y1847250D02*
Y1850250D01*
X201000Y1835250D02*
X204000D01*
X202500Y1833750D02*
Y1836750D01*
X193250Y1049500D02*
X196250D01*
X194750Y1048000D02*
Y1051000D01*
X212500Y1000000D02*
X215500D01*
X214000Y998500D02*
Y1001500D01*
X157000Y1861250D02*
X160000D01*
X158500Y1859750D02*
Y1862750D01*
X150062Y565478D02*
X153062D01*
X151562Y563978D02*
Y566978D01*
X158000Y561000D02*
X161000D01*
X159500Y559500D02*
Y562500D01*
X163135Y553284D02*
X166135D01*
X164635Y551784D02*
Y554784D01*
X132555Y488970D02*
X135555D01*
X134055Y487470D02*
Y490470D01*
X91500Y541750D02*
X94500D01*
X93000Y540250D02*
Y543250D01*
X102000Y512750D02*
X105000D01*
X103500Y511250D02*
Y514250D01*
X201250Y599500D02*
X204250D01*
X202750Y598000D02*
Y601000D01*
X59750Y501250D02*
X62750D01*
X61250Y499750D02*
Y502750D01*
X74750Y455500D02*
X77750D01*
X76250Y454000D02*
Y457000D01*
X167000Y403500D02*
X170000D01*
X168500Y402000D02*
Y405000D01*
X156515Y402933D02*
X159515D01*
X158015Y401433D02*
Y404433D01*
X172000Y574750D02*
X175000D01*
X173500Y573250D02*
Y576250D01*
X96000Y574250D02*
X99000D01*
X97500Y572750D02*
Y575750D01*
X69000Y474250D02*
X72000D01*
X70500Y472750D02*
Y475750D01*
X50000Y350000D02*
X53000D01*
X51500Y348500D02*
Y351500D01*
X217920Y65000D02*
X220920D01*
X219420Y63500D02*
Y66500D01*
X186250Y245750D02*
X189250D01*
X187750Y244250D02*
Y247250D01*
X59750Y269000D02*
X62750D01*
X61250Y267500D02*
Y270500D01*
X208500Y50000D02*
X211500D01*
X210000Y48500D02*
Y51500D01*
M02*
