G04*
G04 #@! TF.GenerationSoftware,Altium Limited,Altium Designer,21.2.0 (30)*
G04*
G04 Layer_Color=32896*
%FSLAX44Y44*%
%MOMM*%
G71*
G04*
G04 #@! TF.SameCoordinates,A6DC43CA-0054-425C-8A59-4F5BC2DD46D4*
G04*
G04*
G04 #@! TF.FilePolarity,Positive*
G04*
G01*
G75*
%ADD12C,0.3000*%
%ADD13C,0.2540*%
%ADD14C,0.1500*%
%ADD71C,0.0254*%
D12*
X72700Y607300D02*
Y632700D01*
X21900D02*
X72700D01*
X21900Y607300D02*
X72700D01*
X21900D02*
Y632700D01*
X81900Y607300D02*
X158100D01*
Y632700D01*
X81900D02*
X158100D01*
X81900Y607300D02*
Y632700D01*
D13*
X121270Y3309040D02*
G03*
X121270Y3309040I-1270J0D01*
G01*
X115390Y2659040D02*
G03*
X115390Y2659040I-1270J0D01*
G01*
X121270Y1774440D02*
G03*
X121270Y1774440I-1270J0D01*
G01*
X116386Y951138D02*
G03*
X116386Y951138I-1270J0D01*
G01*
X28000Y599500D02*
X263000D01*
Y14500D02*
Y599500D01*
X33000Y14500D02*
X263000D01*
X33000D02*
Y549500D01*
X28000Y554500D02*
X33000Y549500D01*
X28000Y554500D02*
Y599500D01*
X73000Y589500D02*
X83000D01*
X78000Y584500D02*
Y594500D01*
X126350Y3414450D02*
X170800D01*
X132700Y3312850D02*
Y3414450D01*
X126350Y3312850D02*
X170800D01*
X120470Y2662850D02*
X164920D01*
X126820D02*
Y2764450D01*
X120470D02*
X164920D01*
X126350Y1879850D02*
X170800D01*
X132700Y1778250D02*
Y1879850D01*
X126350Y1778250D02*
X170800D01*
X121466Y1056548D02*
X165916D01*
X127816Y954948D02*
Y1056548D01*
X121466Y954948D02*
X165916D01*
X-0Y0D02*
Y3900000D01*
X290000D01*
X290000Y0D01*
X-0D02*
X290000D01*
D14*
X185554Y3432207D02*
Y3422210D01*
X180556D01*
X178890Y3423876D01*
Y3430540D01*
X180556Y3432207D01*
X185554D01*
X175557D02*
Y3422210D01*
X170559D01*
X168893Y3423876D01*
Y3430540D01*
X170559Y3432207D01*
X175557D01*
X160562Y3422210D02*
Y3432207D01*
X165560Y3427208D01*
X158896D01*
X185554Y1897793D02*
Y1887796D01*
X180556D01*
X178890Y1889462D01*
Y1896127D01*
X180556Y1897793D01*
X185554D01*
X175557D02*
Y1887796D01*
X170559D01*
X168893Y1889462D01*
Y1896127D01*
X170559Y1897793D01*
X175557D01*
X158896D02*
X165560D01*
Y1892794D01*
X162228Y1894460D01*
X160562D01*
X158896Y1892794D01*
Y1889462D01*
X160562Y1887796D01*
X163894D01*
X165560Y1889462D01*
X179712Y2782221D02*
Y2772224D01*
X174714D01*
X173048Y2773890D01*
Y2780555D01*
X174714Y2782221D01*
X179712D01*
X169715D02*
Y2772224D01*
X164717D01*
X163051Y2773890D01*
Y2780555D01*
X164717Y2782221D01*
X169715D01*
X153054Y2772224D02*
X159719D01*
X153054Y2778889D01*
Y2780555D01*
X154720Y2782221D01*
X158052D01*
X159719Y2780555D01*
X180728Y1074325D02*
Y1064328D01*
X175730D01*
X174063Y1065994D01*
Y1072659D01*
X175730Y1074325D01*
X180728D01*
X170731D02*
Y1064328D01*
X165733D01*
X164067Y1065994D01*
Y1072659D01*
X165733Y1074325D01*
X170731D01*
X160735Y1072659D02*
X159068Y1074325D01*
X155736D01*
X154070Y1072659D01*
Y1070993D01*
X155736Y1069326D01*
X157402D01*
X155736D01*
X154070Y1067660D01*
Y1065994D01*
X155736Y1064328D01*
X159068D01*
X160735Y1065994D01*
X56498Y28082D02*
X58165Y29748D01*
X61497D01*
X63163Y28082D01*
Y21418D01*
X61497Y19752D01*
X58165D01*
X56498Y21418D01*
Y24750D01*
X59831D01*
X53166Y29748D02*
Y19752D01*
X48168D01*
X46502Y21418D01*
Y23084D01*
X48168Y24750D01*
X53166D01*
X48168D01*
X46502Y26416D01*
Y28082D01*
X48168Y29748D01*
X53166D01*
X43169Y19752D02*
X39837D01*
X41503D01*
Y29748D01*
X43169Y28082D01*
X158122Y650653D02*
X151458Y640656D01*
Y650653D02*
X158122Y640656D01*
X148125D02*
X144793D01*
X146459D01*
Y650653D01*
X148125Y648987D01*
X72778Y650653D02*
X66114Y640656D01*
Y650653D02*
X72778Y640656D01*
X56117D02*
X62781D01*
X56117Y647320D01*
Y648987D01*
X57783Y650653D01*
X61115D01*
X62781Y648987D01*
X145000Y0D02*
Y3899750D01*
D71*
X126350Y3312850D02*
X132700D01*
Y3414450D01*
X126350D02*
X170800D01*
X126350Y3312850D02*
X170800D01*
X120470Y2662850D02*
X164920D01*
X120470Y2764450D02*
X164920D01*
X126820Y2662850D02*
Y2764450D01*
X120470Y2662850D02*
X126820D01*
X126350Y1778250D02*
X132700D01*
Y1879850D01*
X126350D02*
X170800D01*
X126350Y1778250D02*
X170800D01*
X121466Y954948D02*
X127816D01*
Y1056548D01*
X121466D02*
X165916D01*
X121466Y954948D02*
X165916D01*
M02*
