G04*
G04 #@! TF.GenerationSoftware,Altium Limited,Altium Designer,21.2.0 (30)*
G04*
G04 Layer_Physical_Order=1*
G04 Layer_Color=255*
%FSLAX44Y44*%
%MOMM*%
G71*
G04*
G04 #@! TF.SameCoordinates,A6DC43CA-0054-425C-8A59-4F5BC2DD46D4*
G04*
G04*
G04 #@! TF.FilePolarity,Positive*
G04*
G01*
G75*
%ADD11C,0.5000*%
%ADD12C,0.3000*%
%ADD13C,0.2540*%
%ADD14C,0.1500*%
%ADD16R,1.0160X1.0160*%
%ADD17R,0.8128X0.8128*%
%ADD18R,0.8128X0.8128*%
%ADD19R,1.0160X1.0160*%
%ADD20R,2.4000X3.4000*%
%ADD21R,1.3000X0.7000*%
%ADD22R,1.3000X1.0000*%
%ADD23R,1.7500X1.5000*%
%ADD24R,1.7780X1.6256*%
%ADD25R,0.6500X1.0500*%
%ADD26R,1.9000X1.1000*%
%ADD27R,1.0000X0.2700*%
%ADD28R,0.2700X1.0000*%
G04:AMPARAMS|DCode=29|XSize=2.5mm|YSize=1mm|CornerRadius=0.25mm|HoleSize=0mm|Usage=FLASHONLY|Rotation=90.000|XOffset=0mm|YOffset=0mm|HoleType=Round|Shape=RoundedRectangle|*
%AMROUNDEDRECTD29*
21,1,2.5000,0.5000,0,0,90.0*
21,1,2.0000,1.0000,0,0,90.0*
1,1,0.5000,0.2500,1.0000*
1,1,0.5000,0.2500,-1.0000*
1,1,0.5000,-0.2500,-1.0000*
1,1,0.5000,-0.2500,1.0000*
%
%ADD29ROUNDEDRECTD29*%
%ADD30R,1.4250X1.6000*%
%ADD31R,1.0000X1.9000*%
%ADD32R,1.8000X1.9000*%
%ADD33R,1.6500X1.3000*%
%ADD34R,0.4000X1.3500*%
%ADD35R,1.0000X1.0000*%
%ADD36R,1.5000X0.8000*%
%ADD37R,2.0000X1.4500*%
%ADD61C,0.2000*%
%ADD62C,1.0000*%
%ADD63R,1.5240X1.5240*%
%ADD64C,1.5240*%
%ADD65R,1.5240X1.5240*%
%ADD66C,0.7000*%
G36*
X266666Y3779329D02*
X265396Y3778839D01*
X200742Y3843492D01*
X199280Y3844615D01*
X197577Y3845320D01*
X195750Y3845560D01*
X178250D01*
Y3854000D01*
X169125D01*
Y3855250D01*
X167875D01*
Y3865250D01*
X160000D01*
Y3862750D01*
X132500D01*
Y3854000D01*
Y3845250D01*
X152462D01*
X152893Y3843980D01*
X152258Y3843492D01*
X151136Y3842030D01*
X150430Y3840327D01*
X150190Y3838500D01*
X150430Y3836673D01*
X151136Y3834970D01*
X152258Y3833508D01*
X153720Y3832386D01*
X155423Y3831680D01*
X157250Y3831440D01*
X192826D01*
X253690Y3770576D01*
Y2028250D01*
X253689Y2028250D01*
Y498597D01*
X253080Y497580D01*
X252419Y497580D01*
X248407D01*
Y502026D01*
X251412D01*
Y514154D01*
X239284D01*
Y502026D01*
X242289D01*
Y497580D01*
X238920D01*
Y483420D01*
X252419D01*
X253080Y483420D01*
X253689Y482402D01*
Y474170D01*
X234630D01*
Y473559D01*
X182850D01*
Y486500D01*
X174420D01*
X174206Y486906D01*
X174030Y487770D01*
X175395Y489134D01*
X176232Y491156D01*
Y493344D01*
X175395Y495365D01*
X173848Y496913D01*
X171826Y497750D01*
X169638D01*
X167617Y496913D01*
X166070Y495365D01*
X165232Y493344D01*
Y491156D01*
X166070Y489134D01*
X166791Y488413D01*
Y486500D01*
X165750D01*
Y479500D01*
X163250D01*
Y486500D01*
X162889D01*
Y534563D01*
X169099Y540774D01*
X169156Y540750D01*
X171344D01*
X173365Y541587D01*
X174913Y543134D01*
X175750Y545156D01*
Y547344D01*
X174913Y549366D01*
X173365Y550913D01*
X171344Y551750D01*
X170429D01*
X170135Y552190D01*
Y554378D01*
X169298Y556399D01*
X167751Y557947D01*
X165729Y558784D01*
X165678D01*
X164973Y559840D01*
X165000Y559906D01*
Y562094D01*
X164163Y564115D01*
X162616Y565663D01*
X160594Y566500D01*
X159288D01*
X158288Y567721D01*
X158315Y567831D01*
X159901D01*
X160360Y567771D01*
X172886D01*
X173500Y567690D01*
X175327Y567930D01*
X177030Y568635D01*
X178493Y569758D01*
X182992Y574258D01*
X184114Y575720D01*
X184820Y577423D01*
X185060Y579250D01*
Y595607D01*
X186234Y596093D01*
X197248Y585078D01*
X198737Y584084D01*
X200492Y583734D01*
X222527D01*
X232920Y573341D01*
Y565670D01*
X247080D01*
Y579830D01*
X239409D01*
X227672Y591567D01*
X226183Y592561D01*
X224428Y592911D01*
X207747D01*
X207316Y594181D01*
X207742Y594507D01*
X218992Y605758D01*
X220114Y607220D01*
X220820Y608923D01*
X221060Y610750D01*
Y1000000D01*
Y1821250D01*
Y2704943D01*
X221570Y2706172D01*
X221810Y2708000D01*
Y3357750D01*
X221570Y3359577D01*
X220865Y3361280D01*
X219742Y3362742D01*
X218280Y3363864D01*
X216577Y3364570D01*
X214750Y3364810D01*
X212923Y3364570D01*
X211220Y3363864D01*
X210012Y3362937D01*
X209172Y3363894D01*
X209913Y3364634D01*
X210750Y3366656D01*
Y3368844D01*
X209913Y3370865D01*
X208365Y3372413D01*
X206344Y3373250D01*
X204156D01*
X202134Y3372413D01*
X201579Y3371857D01*
X200309Y3372383D01*
Y3379647D01*
X200076Y3380818D01*
X199995Y3380938D01*
X200500Y3382156D01*
Y3384344D01*
X199663Y3386365D01*
X198116Y3387913D01*
X196094Y3388750D01*
X193906D01*
X191884Y3387913D01*
X190337Y3386365D01*
X189500Y3384344D01*
Y3382156D01*
X190337Y3380135D01*
X191884Y3378587D01*
X193906Y3377750D01*
X194191D01*
Y3361102D01*
X194191Y3361102D01*
X194191Y3361102D01*
Y3351152D01*
X192921Y3350304D01*
X191844Y3350750D01*
X189656D01*
X187635Y3349913D01*
X186087Y3348365D01*
X185250Y3346344D01*
Y3344156D01*
X185450Y3343673D01*
X183337Y3341560D01*
X182674Y3340568D01*
X182441Y3339397D01*
X182441Y3339397D01*
Y3218873D01*
X181171Y3218347D01*
X156559Y3242959D01*
Y3289516D01*
X157250Y3290500D01*
X157829Y3290500D01*
X164931D01*
Y3288459D01*
X163837Y3287365D01*
X163000Y3285344D01*
Y3283156D01*
X163837Y3281135D01*
X165385Y3279587D01*
X167406Y3278750D01*
X169594D01*
X171616Y3279587D01*
X173163Y3281135D01*
X174000Y3283156D01*
Y3285344D01*
X173163Y3287365D01*
X172069Y3288459D01*
Y3290500D01*
X178750D01*
Y3309500D01*
X157829D01*
X157250Y3309500D01*
X156559Y3310484D01*
Y3389516D01*
X157250Y3390500D01*
X178750D01*
Y3409500D01*
X157250D01*
Y3405768D01*
X150401D01*
X149035Y3405497D01*
X147877Y3404723D01*
X143310Y3400155D01*
X142536Y3398998D01*
X142264Y3397632D01*
Y3344209D01*
X140306Y3342250D01*
X139406D01*
X138330Y3341805D01*
X137060Y3342653D01*
Y3390500D01*
X140750D01*
Y3409500D01*
X137060D01*
Y3490500D01*
X140750D01*
Y3509500D01*
X137060D01*
Y3590500D01*
X140750D01*
Y3609500D01*
X137060D01*
Y3690500D01*
X140750D01*
Y3709500D01*
X137060D01*
Y3790500D01*
X140750D01*
Y3809500D01*
X119250D01*
Y3790500D01*
X122940D01*
Y3709500D01*
X119250D01*
Y3690500D01*
X122940D01*
Y3609500D01*
X119250D01*
Y3590500D01*
X122940D01*
Y3509500D01*
X119250D01*
Y3490500D01*
X122940D01*
Y3409500D01*
X119250D01*
Y3390500D01*
X122940D01*
Y3309500D01*
X119250D01*
Y3290500D01*
X122940D01*
Y3209500D01*
X119250D01*
Y3190500D01*
X122940D01*
Y3109500D01*
X119250D01*
Y3090500D01*
X122940D01*
Y3009500D01*
X119250D01*
Y2990500D01*
X122940D01*
Y2909500D01*
X119250D01*
Y2890500D01*
X122940D01*
Y2809500D01*
X119250D01*
Y2790500D01*
X122940D01*
Y2709500D01*
X119250D01*
Y2690500D01*
X122940D01*
Y2609500D01*
X119250D01*
Y2590500D01*
X122940D01*
Y2509500D01*
X119250D01*
Y2490500D01*
X122940D01*
Y2409500D01*
X119250D01*
Y2390500D01*
X122940D01*
Y2309500D01*
X119250D01*
Y2290500D01*
X122940D01*
Y2209500D01*
X119250D01*
Y2190500D01*
X122940D01*
Y2109500D01*
X119250D01*
Y2090500D01*
X122940D01*
Y2009500D01*
X119250D01*
Y1990500D01*
X122940D01*
Y1909500D01*
X119250D01*
Y1890500D01*
X122940D01*
Y1809500D01*
X119250D01*
Y1790500D01*
X122940D01*
Y1709500D01*
X119250D01*
Y1690500D01*
X122940D01*
Y1609500D01*
X119250D01*
Y1590500D01*
X122940D01*
Y1509500D01*
X119250D01*
Y1490500D01*
X122940D01*
Y1409500D01*
X119250D01*
Y1390500D01*
X122940D01*
Y1309500D01*
X119250D01*
Y1290500D01*
X122940D01*
Y1209500D01*
X119250D01*
Y1190500D01*
X122940D01*
Y1109500D01*
X119250D01*
Y1090500D01*
X122940D01*
Y1009500D01*
X119250D01*
Y990500D01*
X122940D01*
Y909500D01*
X119250D01*
Y890500D01*
X122940D01*
Y809500D01*
X119250D01*
Y790500D01*
X122940D01*
Y709500D01*
X119250D01*
Y690500D01*
X127804D01*
X128757Y689258D01*
X160006Y658009D01*
X159497Y656722D01*
X158193Y656550D01*
X156490Y655844D01*
X155028Y654722D01*
X153905Y653260D01*
X153200Y651557D01*
X152960Y649730D01*
Y627705D01*
X151786Y627218D01*
X151307Y627698D01*
X149113Y628964D01*
X147372Y629431D01*
X141460Y635343D01*
Y638372D01*
X143140D01*
Y658628D01*
X121360D01*
Y638372D01*
X127339D01*
Y632418D01*
X127580Y630591D01*
X128285Y628888D01*
X129407Y627426D01*
X135780Y621053D01*
Y618733D01*
X136436Y616287D01*
X137702Y614093D01*
X139493Y612302D01*
X141687Y611036D01*
X144134Y610380D01*
X144811D01*
X145298Y609207D01*
X137758Y601667D01*
X136636Y600204D01*
X135930Y598502D01*
X135690Y596674D01*
Y588750D01*
X135930Y586923D01*
X136636Y585220D01*
X137758Y583758D01*
X138037Y583543D01*
Y581991D01*
X135420D01*
Y578319D01*
X131814D01*
Y580814D01*
X119686D01*
Y568686D01*
X131814D01*
Y571181D01*
X135420D01*
Y567831D01*
X145441D01*
X146146Y566775D01*
X146062Y566572D01*
Y564638D01*
X143837Y562413D01*
X143174Y561421D01*
X142941Y560250D01*
X142941Y560250D01*
Y551659D01*
X142893Y550519D01*
X142634Y550413D01*
X141087Y548866D01*
X140969Y548580D01*
X127670D01*
Y534420D01*
X131691D01*
Y532470D01*
X123830D01*
Y517470D01*
X138504D01*
X138582Y517392D01*
X143354Y508561D01*
X142704Y507470D01*
X131126D01*
X130830Y507529D01*
X130830Y507529D01*
X123650D01*
X123251Y507796D01*
X122080Y508029D01*
X122080Y508029D01*
X120830D01*
Y512050D01*
X106670D01*
Y497890D01*
X105632Y497330D01*
X98700D01*
Y483170D01*
X112860D01*
Y484261D01*
X113949Y484914D01*
X114776Y484472D01*
X116279Y483239D01*
X117223Y482452D01*
X118121Y481553D01*
X121150Y478524D01*
Y473559D01*
X112860D01*
Y481080D01*
X98700D01*
Y471246D01*
X96350Y468896D01*
X96295Y468897D01*
X95080Y469287D01*
Y481080D01*
X80920D01*
Y478588D01*
X73940D01*
X73615Y478913D01*
X71594Y479750D01*
X69406D01*
X67385Y478913D01*
X67060Y478588D01*
X53637D01*
X50405Y481820D01*
X50891Y482993D01*
X50937D01*
Y488823D01*
X45107D01*
Y488777D01*
X43933Y488291D01*
X41588Y490637D01*
Y504640D01*
X44080D01*
Y506772D01*
X46250D01*
Y503750D01*
X56750D01*
Y511543D01*
X57773Y512227D01*
X64110Y518563D01*
X65250Y517907D01*
Y503750D01*
X75750D01*
Y507261D01*
X81826D01*
Y503750D01*
X95986D01*
Y511421D01*
X102494Y517929D01*
X103489Y519418D01*
X103838Y521174D01*
Y525762D01*
X105497Y527420D01*
X106670Y526934D01*
Y524000D01*
X112500D01*
Y529830D01*
X109566D01*
X109080Y531003D01*
X110634Y532558D01*
X111629Y534046D01*
X111703Y534420D01*
X115720D01*
Y541500D01*
Y548580D01*
X111978D01*
Y551936D01*
X115460Y555418D01*
X116455Y556906D01*
X116804Y558662D01*
Y602384D01*
X116455Y604140D01*
X115460Y605628D01*
X104220Y616869D01*
Y619635D01*
X110852Y626267D01*
X111974Y627729D01*
X112679Y629432D01*
X112920Y631259D01*
Y638372D01*
X117740D01*
Y658628D01*
X95960D01*
Y654588D01*
X91440D01*
X91365Y654663D01*
X89344Y655500D01*
X87156D01*
X85134Y654663D01*
X83587Y653115D01*
X82750Y651094D01*
Y648906D01*
X83587Y646885D01*
X85134Y645337D01*
X87156Y644500D01*
X89344D01*
X91365Y645337D01*
X91440Y645412D01*
X95960D01*
Y638372D01*
X98799D01*
Y634184D01*
X94235Y629620D01*
X84980D01*
Y610380D01*
X97731D01*
X107628Y600484D01*
Y590974D01*
X97588D01*
Y588479D01*
X92830D01*
Y591610D01*
X78670D01*
Y577450D01*
X90647D01*
X91032Y576180D01*
X90496Y575821D01*
X88504Y573830D01*
X78670D01*
Y559670D01*
X92830D01*
Y569346D01*
X93840Y570132D01*
X94384Y569587D01*
X96406Y568750D01*
X97588D01*
Y562371D01*
X97529Y562076D01*
X67423Y531970D01*
X66250Y532456D01*
Y532750D01*
X55750D01*
Y526750D01*
X60544D01*
X61030Y525577D01*
X53772Y518319D01*
X53250D01*
X52905Y518250D01*
X46250D01*
Y515948D01*
X44080D01*
Y518800D01*
X29920D01*
Y504640D01*
X32412D01*
Y488736D01*
X32761Y486980D01*
X33756Y485492D01*
X37655Y481593D01*
Y420507D01*
X38004Y418751D01*
X38999Y417263D01*
X43256Y413006D01*
X44744Y412011D01*
X46500Y411662D01*
X53162D01*
Y406250D01*
X53511Y404494D01*
X54506Y403006D01*
X55994Y402011D01*
X57191Y401773D01*
Y397080D01*
X52890D01*
Y382920D01*
X56911D01*
Y377080D01*
X52890D01*
Y369409D01*
X48256Y364774D01*
X47261Y363286D01*
X46912Y361530D01*
Y353190D01*
X46837Y353116D01*
X46000Y351094D01*
Y348906D01*
X46837Y346884D01*
X48384Y345337D01*
X50406Y344500D01*
X50511D01*
X64002Y331009D01*
Y316412D01*
X62526D01*
Y304284D01*
X74654D01*
Y316412D01*
X73178D01*
Y332910D01*
X72829Y334666D01*
X71834Y336154D01*
X57000Y350989D01*
Y351094D01*
X56163Y353116D01*
X56088Y353190D01*
Y359630D01*
X59379Y362920D01*
X67050D01*
Y377080D01*
X63029D01*
Y382920D01*
X67050D01*
Y397080D01*
X63309D01*
Y401773D01*
X64506Y402011D01*
X65994Y403006D01*
X66703Y404066D01*
X100000D01*
Y403650D01*
X110351D01*
X110837Y402477D01*
X109987Y401627D01*
X109324Y400634D01*
X109091Y399464D01*
X109091Y399464D01*
Y336233D01*
X109091Y336233D01*
X109324Y335062D01*
X109987Y334070D01*
X127941Y316116D01*
Y260017D01*
X126234Y258310D01*
X125250Y259122D01*
Y277500D01*
X101250D01*
Y271187D01*
X100844Y270974D01*
X99980Y270798D01*
X98616Y272163D01*
X96594Y273000D01*
X94406D01*
X92385Y272163D01*
X90837Y270616D01*
X90000Y268594D01*
Y266406D01*
X90023Y266349D01*
X73173Y249499D01*
X71919Y250040D01*
X71163Y251866D01*
X69616Y253413D01*
X67594Y254250D01*
X65406D01*
X63384Y253413D01*
X62927Y252955D01*
X58100D01*
Y254692D01*
X44100D01*
Y240692D01*
Y227692D01*
X58100D01*
Y235634D01*
X66692D01*
X66692Y235634D01*
X67863Y235866D01*
X68855Y236529D01*
X94349Y262024D01*
X94406Y262000D01*
X96594D01*
X98616Y262837D01*
X99980Y264202D01*
X100844Y264026D01*
X101250Y263813D01*
Y259000D01*
X110191D01*
Y139500D01*
X101250D01*
Y121000D01*
X125250D01*
Y127191D01*
X169250D01*
X169250Y127191D01*
X169250Y127191D01*
X184250D01*
Y121000D01*
X208250D01*
Y139500D01*
X184250D01*
Y133309D01*
X171309D01*
Y154814D01*
X171366Y154837D01*
X172913Y156384D01*
X173750Y158406D01*
Y160594D01*
X172913Y162616D01*
X171366Y164163D01*
X169344Y165000D01*
X167156D01*
X165135Y164163D01*
X163587Y162616D01*
X162750Y160594D01*
Y158406D01*
X163587Y156384D01*
X165135Y154837D01*
X165191Y154814D01*
Y133309D01*
X125250D01*
Y139500D01*
X116309D01*
Y216942D01*
X117579Y217790D01*
X118656Y217344D01*
X120844D01*
X122865Y218181D01*
X124413Y219729D01*
X124421Y219749D01*
X125691Y219496D01*
Y189922D01*
X125691Y189922D01*
X125924Y188751D01*
X126587Y187759D01*
X128259Y186087D01*
X128259Y186087D01*
X129251Y185424D01*
X129750Y185325D01*
Y172500D01*
Y161500D01*
X148750D01*
Y175441D01*
X165511D01*
X165511Y175441D01*
X166682Y175674D01*
X167674Y176337D01*
X178663Y187326D01*
X178663Y187326D01*
X179326Y188318D01*
X179559Y189489D01*
Y329429D01*
X186013Y335883D01*
X186676Y336876D01*
X186909Y338046D01*
X186909Y338046D01*
Y344106D01*
X188082Y344592D01*
X192773Y339901D01*
X192750Y339844D01*
Y337656D01*
X193587Y335634D01*
X195135Y334087D01*
X197156Y333250D01*
X199344D01*
X201366Y334087D01*
X202913Y335634D01*
X202936Y335691D01*
X219500D01*
Y331750D01*
X236500D01*
Y344465D01*
X237770Y344991D01*
X241662Y341100D01*
Y267651D01*
X224599Y250588D01*
X190442D01*
X188844Y251250D01*
X186656D01*
X184634Y250413D01*
X183087Y248866D01*
X182250Y246844D01*
Y244656D01*
X183087Y242635D01*
X184634Y241087D01*
X186656Y240250D01*
X188844D01*
X190865Y241087D01*
X191190Y241412D01*
X226500D01*
X228256Y241761D01*
X229744Y242756D01*
X249494Y262506D01*
X250489Y263994D01*
X250838Y265750D01*
Y343000D01*
X250489Y344756D01*
X249494Y346244D01*
X241494Y354244D01*
X240006Y355239D01*
X238250Y355588D01*
X231230D01*
X230814Y356686D01*
X230814Y356858D01*
Y368814D01*
X223733D01*
X218569Y373978D01*
Y375785D01*
X218686Y377006D01*
X219839Y377006D01*
X223500D01*
Y383070D01*
Y389134D01*
X218686Y389134D01*
X218569Y390355D01*
Y392420D01*
X222080D01*
Y406580D01*
X207920D01*
Y392420D01*
X211431D01*
Y372500D01*
X211703Y371134D01*
X212477Y369977D01*
X218686Y363767D01*
Y356858D01*
X218686Y356686D01*
X218270Y355588D01*
X214151D01*
X207240Y362499D01*
Y366846D01*
X208716D01*
Y378974D01*
X207289D01*
Y382758D01*
X206940Y384514D01*
X205945Y386002D01*
X205500Y386447D01*
Y387094D01*
X204663Y389115D01*
X203116Y390663D01*
X201094Y391500D01*
X198906D01*
X196884Y390663D01*
X195337Y389115D01*
X194500Y387094D01*
Y384906D01*
X195337Y382884D01*
X196884Y381337D01*
X198113Y380829D01*
Y378974D01*
X196588D01*
Y366846D01*
X198064D01*
Y360598D01*
X198413Y358842D01*
X199408Y357354D01*
X209006Y347756D01*
X210494Y346761D01*
X212250Y346412D01*
X218504D01*
X219500Y345750D01*
X219500Y345142D01*
Y341809D01*
X202936D01*
X202913Y341866D01*
X201366Y343413D01*
X199344Y344250D01*
X197156D01*
X197099Y344226D01*
X192059Y349267D01*
Y403650D01*
X204000D01*
Y413941D01*
X207920D01*
Y410200D01*
X222080D01*
Y424360D01*
X221798D01*
X221264Y425630D01*
X222000Y427406D01*
Y429594D01*
X221163Y431615D01*
X219615Y433163D01*
X217594Y434000D01*
X215406D01*
X213384Y433163D01*
X211837Y431615D01*
X211000Y429594D01*
Y427406D01*
X211602Y425953D01*
X211441Y425147D01*
X210556Y424360D01*
X207920D01*
Y420059D01*
X204000D01*
Y433650D01*
Y443650D01*
Y453650D01*
Y463322D01*
X218018D01*
X226941Y454399D01*
Y428000D01*
X226941Y428000D01*
X227174Y426829D01*
X227837Y425837D01*
X235624Y418050D01*
X235286Y417463D01*
X234630Y415017D01*
Y412483D01*
X235286Y410037D01*
X236552Y407843D01*
X238343Y406052D01*
X240537Y404786D01*
X242983Y404130D01*
X245516D01*
X247963Y404786D01*
X250157Y406052D01*
X251948Y407843D01*
X252419Y408660D01*
X253689Y408320D01*
Y393780D01*
X252419Y393440D01*
X251948Y394257D01*
X250157Y396048D01*
X247963Y397314D01*
X245516Y397970D01*
X242983D01*
X240537Y397314D01*
X238343Y396048D01*
X236552Y394257D01*
X235286Y392063D01*
X234630Y389617D01*
Y387084D01*
X235286Y384637D01*
X236552Y382443D01*
X238343Y380652D01*
X240537Y379386D01*
X242983Y378730D01*
X245516D01*
X247963Y379386D01*
X250157Y380652D01*
X251948Y382443D01*
X252419Y383260D01*
X253689Y382920D01*
Y137424D01*
X230258Y113993D01*
X229135Y112530D01*
X228430Y110827D01*
X228190Y109000D01*
X228430Y107173D01*
X229135Y105470D01*
X230258Y104008D01*
X231720Y102886D01*
X233423Y102180D01*
X235250Y101940D01*
X237077Y102180D01*
X238780Y102886D01*
X240242Y104008D01*
X265396Y129161D01*
X266666Y128671D01*
Y3334D01*
X23334D01*
Y3896666D01*
X266666Y3896666D01*
Y3779329D01*
D02*
G37*
G36*
X150441Y3341447D02*
Y3241693D01*
X150441Y3241693D01*
X150674Y3240522D01*
X151337Y3239529D01*
X166510Y3224357D01*
X166212Y3222859D01*
X165135Y3222413D01*
X163587Y3220865D01*
X162750Y3218844D01*
Y3216656D01*
X163587Y3214634D01*
X164681Y3213540D01*
Y3209500D01*
X157250D01*
Y3190500D01*
X176691D01*
Y3109500D01*
X172819D01*
Y3119790D01*
X173913Y3120884D01*
X174750Y3122906D01*
Y3125094D01*
X173913Y3127115D01*
X172365Y3128663D01*
X170344Y3129500D01*
X168156D01*
X166134Y3128663D01*
X164587Y3127115D01*
X163750Y3125094D01*
Y3122906D01*
X164587Y3120884D01*
X165681Y3119790D01*
Y3109500D01*
X157250D01*
Y3090500D01*
X176691D01*
Y3009500D01*
X157250D01*
Y2990500D01*
X164062D01*
X164678Y2989230D01*
X164000Y2987594D01*
Y2985406D01*
X164837Y2983384D01*
X166385Y2981837D01*
X168406Y2981000D01*
X170594D01*
X172616Y2981837D01*
X174163Y2983384D01*
X175000Y2985406D01*
Y2987594D01*
X174322Y2989230D01*
X174937Y2990500D01*
X176691D01*
Y2909500D01*
X157250D01*
Y2890500D01*
X162395D01*
X163000Y2889594D01*
Y2887406D01*
X163837Y2885385D01*
X165385Y2883837D01*
X167406Y2883000D01*
X169594D01*
X171616Y2883837D01*
X173163Y2885385D01*
X174000Y2887406D01*
Y2889594D01*
X174605Y2890500D01*
X176691D01*
Y2809500D01*
X157250D01*
Y2803569D01*
X155710D01*
X154615Y2804662D01*
X152594Y2805500D01*
X150406D01*
X148385Y2804662D01*
X146837Y2803116D01*
X146000Y2801094D01*
Y2798906D01*
X146837Y2796884D01*
X148385Y2795337D01*
X150406Y2794500D01*
X152594D01*
X154615Y2795337D01*
X155710Y2796431D01*
X157250D01*
Y2790500D01*
X176691D01*
Y2786267D01*
X144151Y2753727D01*
X144094Y2753750D01*
X141906D01*
X139885Y2752913D01*
X138337Y2751365D01*
X138330Y2751349D01*
X137060Y2751601D01*
Y2790500D01*
X140750D01*
Y2809500D01*
X137060D01*
Y2890500D01*
X140750D01*
Y2909500D01*
X137060D01*
Y2990500D01*
X140750D01*
Y3009500D01*
X137060D01*
Y3090500D01*
X140750D01*
Y3109500D01*
X137060D01*
Y3190500D01*
X140750D01*
Y3209500D01*
X137060D01*
Y3290500D01*
X140750D01*
Y3309500D01*
X137060D01*
Y3330847D01*
X138330Y3331696D01*
X139406Y3331250D01*
X141594D01*
X143616Y3332087D01*
X145163Y3333635D01*
X146000Y3335656D01*
Y3337844D01*
X145998Y3337849D01*
X148356Y3340207D01*
X149130Y3341365D01*
X149171Y3341573D01*
X150441Y3341447D01*
D02*
G37*
G36*
X194191Y3339348D02*
Y2739161D01*
X192384Y2738413D01*
X190837Y2736866D01*
X190000Y2734844D01*
Y2732656D01*
X190837Y2730634D01*
X192384Y2729088D01*
X192441Y2729064D01*
Y2698383D01*
X191171Y2697857D01*
X190616Y2698413D01*
X188594Y2699250D01*
X186406D01*
X184384Y2698413D01*
X182837Y2696866D01*
X182000Y2694844D01*
Y2692656D01*
X182837Y2690634D01*
X184384Y2689088D01*
X186406Y2688250D01*
X187321D01*
X188191Y2687380D01*
Y1878500D01*
X187906D01*
X185884Y1877663D01*
X184829Y1876607D01*
X183559Y1877133D01*
Y2657558D01*
X183326Y2658728D01*
X182663Y2659720D01*
X182663Y2659720D01*
X145309Y2697075D01*
Y2698860D01*
X146579Y2699112D01*
X147087Y2697885D01*
X148635Y2696337D01*
X150656Y2695500D01*
X152844D01*
X154866Y2696337D01*
X155960Y2697431D01*
X157250D01*
Y2690500D01*
X178750D01*
Y2709500D01*
X157250D01*
Y2704568D01*
X155960D01*
X154866Y2705663D01*
X152844Y2706500D01*
X150656D01*
X148635Y2705663D01*
X147087Y2704116D01*
X146579Y2702888D01*
X145309Y2703140D01*
Y2743253D01*
X146116Y2743587D01*
X147663Y2745135D01*
X148500Y2747156D01*
Y2749344D01*
X148476Y2749401D01*
X181171Y2782096D01*
X182441Y2781570D01*
Y2763186D01*
X182384Y2763163D01*
X180837Y2761616D01*
X180000Y2759594D01*
Y2757406D01*
X180837Y2755385D01*
X182384Y2753837D01*
X184406Y2753000D01*
X186594D01*
X188615Y2753837D01*
X190163Y2755385D01*
X191000Y2757406D01*
Y2759594D01*
X190163Y2761616D01*
X188615Y2763163D01*
X188559Y2763186D01*
Y3338130D01*
X190179Y3339750D01*
X191844D01*
X192921Y3340196D01*
X194191Y3339348D01*
D02*
G37*
G36*
X202191Y3362596D02*
Y2735034D01*
X201000Y2734844D01*
X200263Y2736623D01*
X200309Y2736853D01*
X200309Y2736853D01*
Y3361102D01*
X200309Y3361102D01*
Y3362425D01*
X201579Y3363056D01*
X202191Y3362596D01*
D02*
G37*
G36*
X177441Y2656291D02*
Y2627903D01*
X176171Y2627054D01*
X175094Y2627500D01*
X172906D01*
X170884Y2626663D01*
X169337Y2625115D01*
X168500Y2623094D01*
Y2621547D01*
X165477Y2618523D01*
X164703Y2617366D01*
X164431Y2616000D01*
Y2609500D01*
X157250D01*
Y2590500D01*
X177441D01*
Y2509500D01*
X171569D01*
Y2514168D01*
X171509Y2514469D01*
X172000Y2515656D01*
Y2517844D01*
X171163Y2519866D01*
X169615Y2521413D01*
X167594Y2522250D01*
X165406D01*
X163384Y2521413D01*
X161837Y2519866D01*
X161000Y2517844D01*
Y2515656D01*
X161837Y2513634D01*
X163384Y2512087D01*
X164431Y2511654D01*
Y2509500D01*
X157250D01*
Y2490500D01*
X177441D01*
Y2409500D01*
X170569D01*
Y2418540D01*
X171663Y2419635D01*
X172500Y2421656D01*
Y2423844D01*
X171663Y2425865D01*
X170116Y2427413D01*
X168094Y2428250D01*
X165906D01*
X163885Y2427413D01*
X162337Y2425865D01*
X161500Y2423844D01*
Y2421656D01*
X162337Y2419635D01*
X163431Y2418540D01*
Y2409500D01*
X157250D01*
Y2390500D01*
X177441D01*
Y2309500D01*
X171319D01*
Y2316790D01*
X172413Y2317885D01*
X173250Y2319906D01*
Y2322094D01*
X172413Y2324115D01*
X170865Y2325663D01*
X168844Y2326500D01*
X166656D01*
X164634Y2325663D01*
X163087Y2324115D01*
X162250Y2322094D01*
Y2319906D01*
X163087Y2317885D01*
X164181Y2316790D01*
Y2309500D01*
X157250D01*
Y2290500D01*
X177441D01*
Y2209500D01*
X157250D01*
Y2190500D01*
X164676D01*
X165202Y2189230D01*
X164587Y2188616D01*
X163750Y2186594D01*
Y2184406D01*
X164587Y2182384D01*
X166134Y2180837D01*
X168156Y2180000D01*
X170344D01*
X172365Y2180837D01*
X173913Y2182384D01*
X174750Y2184406D01*
Y2186594D01*
X173913Y2188616D01*
X173298Y2189230D01*
X173824Y2190500D01*
X177441D01*
Y2109500D01*
X157250D01*
Y2090500D01*
X164181D01*
Y2086210D01*
X163087Y2085116D01*
X162250Y2083094D01*
Y2080906D01*
X163087Y2078884D01*
X164634Y2077337D01*
X166656Y2076500D01*
X168844D01*
X170865Y2077337D01*
X172413Y2078884D01*
X173250Y2080906D01*
Y2083094D01*
X172413Y2085116D01*
X171319Y2086210D01*
Y2090500D01*
X177441D01*
Y2009500D01*
X157250D01*
Y1990500D01*
X163931D01*
Y1988710D01*
X162837Y1987616D01*
X162000Y1985594D01*
Y1983406D01*
X162837Y1981384D01*
X164384Y1979837D01*
X166406Y1979000D01*
X168594D01*
X170616Y1979837D01*
X172163Y1981384D01*
X173000Y1983406D01*
Y1985594D01*
X172163Y1987616D01*
X171069Y1988710D01*
Y1990500D01*
X177441D01*
Y1909500D01*
X157250D01*
Y1904542D01*
X155980Y1904016D01*
X155365Y1904631D01*
X153344Y1905468D01*
X151156D01*
X149135Y1904631D01*
X147587Y1903084D01*
X146750Y1901062D01*
Y1898874D01*
X147587Y1896853D01*
X149135Y1895305D01*
X151156Y1894468D01*
X153344D01*
X155365Y1895305D01*
X155980Y1895920D01*
X157250Y1895394D01*
Y1890500D01*
X177441D01*
Y1864309D01*
X163186D01*
X163163Y1864366D01*
X161616Y1865913D01*
X159594Y1866750D01*
X157406D01*
X155385Y1865913D01*
X153837Y1864366D01*
X153000Y1862344D01*
Y1860156D01*
X153837Y1858134D01*
X155385Y1856587D01*
X157406Y1855750D01*
X159594D01*
X161616Y1856587D01*
X163163Y1858134D01*
X163186Y1858191D01*
X177441D01*
Y1809500D01*
X157250D01*
Y1803819D01*
X153460D01*
X152366Y1804913D01*
X150344Y1805750D01*
X148156D01*
X146135Y1804913D01*
X144587Y1803365D01*
X143750Y1801344D01*
Y1799156D01*
X144587Y1797135D01*
X146135Y1795587D01*
X148156Y1794750D01*
X150344D01*
X152366Y1795587D01*
X153460Y1796681D01*
X157250D01*
Y1790500D01*
X177441D01*
Y1709500D01*
X171819D01*
Y1716290D01*
X172913Y1717384D01*
X173750Y1719406D01*
Y1721594D01*
X172913Y1723616D01*
X171366Y1725163D01*
X169344Y1726000D01*
X167156D01*
X165135Y1725163D01*
X163587Y1723616D01*
X162750Y1721594D01*
Y1719406D01*
X163587Y1717384D01*
X164681Y1716290D01*
Y1709500D01*
X157250D01*
Y1690500D01*
X177441D01*
Y1609500D01*
X170319D01*
Y1618040D01*
X171413Y1619135D01*
X172250Y1621156D01*
Y1623344D01*
X171413Y1625365D01*
X169865Y1626913D01*
X167844Y1627750D01*
X165656D01*
X163634Y1626913D01*
X162087Y1625365D01*
X161250Y1623344D01*
Y1621156D01*
X162087Y1619135D01*
X163181Y1618040D01*
Y1609500D01*
X157250D01*
Y1590500D01*
X177441D01*
Y1509500D01*
X172069D01*
Y1515540D01*
X173163Y1516635D01*
X174000Y1518656D01*
Y1520844D01*
X173163Y1522865D01*
X171616Y1524413D01*
X169594Y1525250D01*
X167406D01*
X165385Y1524413D01*
X163837Y1522865D01*
X163000Y1520844D01*
Y1518656D01*
X163837Y1516635D01*
X164931Y1515540D01*
Y1509500D01*
X157250D01*
Y1490500D01*
X177441D01*
Y1409500D01*
X157250D01*
Y1390500D01*
X162018D01*
X162867Y1389230D01*
X162500Y1388344D01*
Y1386156D01*
X163337Y1384135D01*
X164884Y1382587D01*
X166906Y1381750D01*
X169094D01*
X171115Y1382587D01*
X172663Y1384135D01*
X173500Y1386156D01*
Y1388344D01*
X173133Y1389230D01*
X173982Y1390500D01*
X177441D01*
Y1309500D01*
X157250D01*
Y1290500D01*
X165441D01*
Y1287186D01*
X165385Y1287163D01*
X163837Y1285616D01*
X163000Y1283594D01*
Y1281406D01*
X163837Y1279385D01*
X165385Y1277837D01*
X167406Y1277000D01*
X169594D01*
X171616Y1277837D01*
X173163Y1279385D01*
X174000Y1281406D01*
Y1283594D01*
X173163Y1285616D01*
X171616Y1287163D01*
X171559Y1287186D01*
Y1290500D01*
X177441D01*
Y1209500D01*
X157250D01*
Y1190500D01*
X163176D01*
X163702Y1189230D01*
X163337Y1188866D01*
X162500Y1186844D01*
Y1184656D01*
X163337Y1182635D01*
X164884Y1181087D01*
X166906Y1180250D01*
X169094D01*
X171115Y1181087D01*
X172663Y1182635D01*
X173500Y1184656D01*
Y1186844D01*
X172663Y1188866D01*
X172298Y1189230D01*
X172824Y1190500D01*
X177441D01*
Y1109500D01*
X157250D01*
Y1090500D01*
X166441D01*
Y1088436D01*
X166385Y1088413D01*
X164837Y1086865D01*
X164000Y1084844D01*
Y1082656D01*
X164837Y1080635D01*
X166385Y1079087D01*
X168406Y1078250D01*
X170594D01*
X172616Y1079087D01*
X174163Y1080635D01*
X175000Y1082656D01*
Y1084844D01*
X174163Y1086865D01*
X172616Y1088413D01*
X172559Y1088436D01*
Y1090500D01*
X177441D01*
Y1040815D01*
X157963D01*
X156615Y1042163D01*
X154594Y1043000D01*
X152406D01*
X150385Y1042163D01*
X148837Y1040615D01*
X148000Y1038594D01*
Y1036406D01*
X148837Y1034385D01*
X150385Y1032837D01*
X152406Y1032000D01*
X154594D01*
X156615Y1032837D01*
X158163Y1034385D01*
X158292Y1034697D01*
X178941D01*
Y1010691D01*
X178750Y1009500D01*
X177671Y1009500D01*
X157250D01*
Y1001559D01*
X152686D01*
X152663Y1001616D01*
X151116Y1003163D01*
X149094Y1004000D01*
X146906D01*
X144885Y1003163D01*
X143337Y1001616D01*
X142500Y999594D01*
Y997406D01*
X143337Y995385D01*
X144885Y993837D01*
X146906Y993000D01*
X149094D01*
X151116Y993837D01*
X152663Y995385D01*
X152686Y995441D01*
X157250D01*
Y990500D01*
X177671D01*
X178750Y990500D01*
X178941Y989309D01*
Y910691D01*
X178750Y909500D01*
X177671Y909500D01*
X171074D01*
X170548Y910770D01*
X171663Y911885D01*
X172500Y913906D01*
Y916094D01*
X171663Y918115D01*
X170116Y919663D01*
X168094Y920500D01*
X165906D01*
X163885Y919663D01*
X162337Y918115D01*
X161500Y916094D01*
Y913906D01*
X162337Y911885D01*
X163452Y910770D01*
X162926Y909500D01*
X157250D01*
Y890500D01*
X177671D01*
X178750Y890500D01*
X178941Y889309D01*
Y810691D01*
X178750Y809500D01*
X177671Y809500D01*
X170309D01*
Y814564D01*
X170366Y814587D01*
X171913Y816134D01*
X172750Y818156D01*
Y820344D01*
X171913Y822365D01*
X170366Y823913D01*
X168344Y824750D01*
X166156D01*
X164135Y823913D01*
X162587Y822365D01*
X161750Y820344D01*
Y818156D01*
X162587Y816134D01*
X164135Y814587D01*
X164191Y814564D01*
Y809500D01*
X157250D01*
Y790500D01*
X177671D01*
X178750Y790500D01*
X178941Y789309D01*
Y710691D01*
X178750Y709500D01*
X177671Y709500D01*
X170059D01*
Y715314D01*
X170116Y715337D01*
X171663Y716885D01*
X172500Y718906D01*
Y721094D01*
X171663Y723115D01*
X170116Y724663D01*
X168094Y725500D01*
X165906D01*
X163885Y724663D01*
X162337Y723115D01*
X161500Y721094D01*
Y718906D01*
X162337Y716885D01*
X163885Y715337D01*
X163941Y715314D01*
Y709500D01*
X157250D01*
Y690500D01*
X177671D01*
X178750Y690500D01*
X178941Y689309D01*
Y687350D01*
X177885Y686913D01*
X176337Y685366D01*
X175500Y683344D01*
Y681156D01*
X176337Y679135D01*
X177885Y677587D01*
X179906Y676750D01*
X182094D01*
X184116Y677587D01*
X184784Y678256D01*
X186115Y677791D01*
X186182Y677210D01*
X184962Y675990D01*
X184124Y673968D01*
Y671780D01*
X184962Y669759D01*
X186509Y668212D01*
X188530Y667374D01*
X190718D01*
X192421Y668080D01*
X193691Y667504D01*
Y657371D01*
X193319Y657172D01*
X191917Y657862D01*
X191739Y658756D01*
X190744Y660244D01*
X177500Y673489D01*
Y673594D01*
X176663Y675615D01*
X175116Y677163D01*
X173094Y678000D01*
X170906D01*
X168885Y677163D01*
X167337Y675615D01*
X166500Y673594D01*
Y673144D01*
X165327Y672658D01*
X140810Y697175D01*
Y697500D01*
X140750Y697959D01*
Y709500D01*
X137060D01*
Y790500D01*
X140750D01*
Y809500D01*
X137060D01*
Y890500D01*
X140750D01*
Y909500D01*
X137060D01*
Y990500D01*
X140750D01*
Y1009500D01*
X137060D01*
Y1090500D01*
X140750D01*
Y1109500D01*
X137060D01*
Y1190500D01*
X140750D01*
Y1209500D01*
X137060D01*
Y1290500D01*
X140750D01*
Y1309500D01*
X137060D01*
Y1390500D01*
X140750D01*
Y1409500D01*
X137060D01*
Y1490500D01*
X140750D01*
Y1509500D01*
X137060D01*
Y1590500D01*
X140750D01*
Y1609500D01*
X137060D01*
Y1690500D01*
X140750D01*
Y1709500D01*
X137060D01*
Y1790500D01*
X140750D01*
Y1809500D01*
X137060D01*
Y1890500D01*
X140750D01*
Y1909500D01*
X137060D01*
Y1990500D01*
X140750D01*
Y2009500D01*
X137060D01*
Y2090500D01*
X140750D01*
Y2109500D01*
X137060D01*
Y2190500D01*
X140750D01*
Y2209500D01*
X137060D01*
Y2290500D01*
X140750D01*
Y2309500D01*
X137060D01*
Y2390500D01*
X140750D01*
Y2409500D01*
X137060D01*
Y2490500D01*
X140750D01*
Y2509500D01*
X137060D01*
Y2590500D01*
X140750D01*
Y2609500D01*
X137060D01*
Y2690500D01*
X140750D01*
Y2691323D01*
X141923Y2691808D01*
X177441Y2656291D01*
D02*
G37*
G36*
X200441Y2715846D02*
Y1840350D01*
X199384Y1839913D01*
X197837Y1838365D01*
X197000Y1836344D01*
Y1834156D01*
X197837Y1832135D01*
X199384Y1830587D01*
X200191Y1830253D01*
Y1812744D01*
X198921Y1812491D01*
X198663Y1813116D01*
X197115Y1814663D01*
X195094Y1815500D01*
X192906D01*
X191829Y1815054D01*
X190559Y1815902D01*
Y1842155D01*
X191156Y1843250D01*
X193344D01*
X195366Y1844087D01*
X196913Y1845634D01*
X197750Y1847656D01*
Y1849844D01*
X197603Y1850199D01*
X197663Y1850259D01*
X197663Y1850259D01*
X198326Y1851251D01*
X198559Y1852422D01*
Y2715674D01*
X199829Y2716306D01*
X200441Y2715846D01*
D02*
G37*
G36*
X200191Y1807256D02*
Y1053633D01*
X198921Y1053107D01*
X197866Y1054163D01*
X197434Y1054342D01*
Y1805656D01*
X198663Y1806884D01*
X198921Y1807509D01*
X200191Y1807256D01*
D02*
G37*
G36*
Y1045367D02*
Y1016186D01*
X200135Y1016163D01*
X198587Y1014615D01*
X197750Y1012594D01*
Y1010406D01*
X198587Y1008384D01*
X200135Y1006837D01*
X200191Y1006814D01*
Y993402D01*
X198921Y992554D01*
X197844Y993000D01*
X195656D01*
X194016Y992321D01*
X192746Y992933D01*
Y1019538D01*
X192866Y1019587D01*
X194413Y1021134D01*
X195250Y1023156D01*
Y1025344D01*
X194413Y1027365D01*
X192866Y1028913D01*
X190844Y1029750D01*
X190559D01*
Y1044254D01*
X191829Y1044757D01*
X193656Y1044000D01*
X195844D01*
X197866Y1044837D01*
X198921Y1045893D01*
X200191Y1045367D01*
D02*
G37*
G36*
X186628Y1018643D02*
Y687346D01*
X185358Y686694D01*
X185059Y686909D01*
Y1018164D01*
X186329Y1018843D01*
X186628Y1018643D01*
D02*
G37*
G36*
X194406Y645500D02*
X196327D01*
X196716Y645365D01*
X197500Y644501D01*
Y642906D01*
X198337Y640884D01*
X199884Y639337D01*
X201906Y638500D01*
X204094D01*
X205670Y639153D01*
X206940Y638502D01*
Y613675D01*
X197757Y604492D01*
X196635Y603030D01*
X195930Y601327D01*
X195890Y601024D01*
X194688Y600616D01*
X192088Y603215D01*
Y645086D01*
X193358Y645934D01*
X194406Y645500D01*
D02*
G37*
G36*
X170940Y647076D02*
Y582174D01*
X170656Y581891D01*
X167360D01*
Y581991D01*
X153200D01*
Y571341D01*
X152656Y570978D01*
X150468D01*
X149580Y571572D01*
Y581991D01*
X147213D01*
Y583351D01*
X147743Y583758D01*
X148864Y585220D01*
X149570Y586923D01*
X149810Y588750D01*
Y593750D01*
X165012Y608952D01*
X166134Y610414D01*
X166840Y612117D01*
X167080Y613944D01*
Y649139D01*
X168350Y649665D01*
X170940Y647076D01*
D02*
G37*
G36*
X103587Y556244D02*
X103151Y555592D01*
X102802Y553836D01*
Y537703D01*
X97256Y532157D01*
X95986Y532683D01*
Y535690D01*
X90156D01*
Y528610D01*
Y521530D01*
X91459D01*
X91945Y520357D01*
X89498Y517910D01*
X81826D01*
Y514399D01*
X75750D01*
Y518250D01*
X65593D01*
X64937Y519390D01*
X80556Y535010D01*
X81826Y534484D01*
Y529860D01*
X87656D01*
Y535690D01*
X83033D01*
X82507Y536960D01*
X102600Y557054D01*
X103587Y556244D01*
D02*
G37*
G36*
X234630Y454930D02*
X253689D01*
Y444580D01*
X252419Y444240D01*
X251948Y445057D01*
X251936Y445069D01*
X246018Y439150D01*
X251936Y433232D01*
X251948Y433243D01*
X252419Y434060D01*
X253689Y433720D01*
Y419180D01*
X252419Y418840D01*
X251948Y419657D01*
X250157Y421448D01*
X247963Y422714D01*
X245516Y423370D01*
X242983D01*
X240537Y422714D01*
X239950Y422376D01*
X233059Y429267D01*
Y455666D01*
X233059Y455666D01*
X232826Y456837D01*
X232163Y457829D01*
X223724Y466268D01*
X224210Y467441D01*
X234630D01*
Y454930D01*
D02*
G37*
G36*
X48492Y470756D02*
X49980Y469761D01*
X51736Y469412D01*
X53767D01*
X54270Y468142D01*
X53511Y467006D01*
X53162Y465250D01*
Y456500D01*
X60250D01*
X67338D01*
Y465250D01*
X66989Y467006D01*
X66299Y468038D01*
X66777Y469187D01*
X67907Y469371D01*
X69406Y468750D01*
X71594D01*
X73192Y469412D01*
X80920D01*
Y466920D01*
X94205D01*
X95128Y466771D01*
X95441Y465800D01*
Y458750D01*
X95441Y458750D01*
X95674Y457579D01*
X96337Y456587D01*
X98087Y454837D01*
X98087Y454837D01*
X99080Y454174D01*
X100000Y453991D01*
Y448650D01*
Y438650D01*
Y428650D01*
Y423250D01*
X107000D01*
X114000D01*
Y423650D01*
Y433650D01*
Y443650D01*
Y453650D01*
Y463322D01*
X190000D01*
Y458650D01*
Y448650D01*
Y440059D01*
X149686D01*
X149686Y440059D01*
X148516Y439826D01*
X147523Y439163D01*
X147523Y439163D01*
X115173Y406813D01*
X114000Y407299D01*
Y413650D01*
Y420750D01*
X107000D01*
X100000D01*
Y418650D01*
Y410184D01*
X67338D01*
Y426250D01*
X66989Y428006D01*
X65994Y429494D01*
X64506Y430489D01*
X62750Y430838D01*
X57750D01*
X55994Y430489D01*
X54506Y429494D01*
X53511Y428006D01*
X53162Y426250D01*
Y420838D01*
X48401D01*
X46831Y422407D01*
Y470757D01*
X48005Y471243D01*
X48492Y470756D01*
D02*
G37*
G36*
X184142Y422768D02*
X181687Y420313D01*
X181024Y419320D01*
X180791Y418150D01*
X180791Y418150D01*
Y396500D01*
X170093D01*
X169414Y397770D01*
X169568Y398000D01*
X169594D01*
X171616Y398837D01*
X173163Y400384D01*
X174000Y402406D01*
Y404594D01*
X173163Y406615D01*
X171616Y408163D01*
X169594Y409000D01*
X167406D01*
X165385Y408163D01*
X163837Y406615D01*
X163775Y406466D01*
X162360Y406367D01*
X161131Y407596D01*
X159109Y408433D01*
X156921D01*
X154900Y407596D01*
X153353Y406049D01*
X152515Y404027D01*
Y401839D01*
X153353Y399818D01*
X154900Y398271D01*
X156108Y397770D01*
X155856Y396500D01*
X126485D01*
X125999Y397673D01*
X152267Y423941D01*
X183656D01*
X184142Y422768D01*
D02*
G37*
G36*
X180791Y339313D02*
X174337Y332859D01*
X173674Y331867D01*
X173441Y330696D01*
X173441Y330696D01*
Y297736D01*
X172268Y297250D01*
X123209Y346309D01*
Y382500D01*
X166566D01*
Y378844D01*
X165087Y377365D01*
X164250Y375344D01*
Y373156D01*
X165087Y371134D01*
X166635Y369587D01*
X168656Y368750D01*
X170844D01*
X172866Y369587D01*
X174413Y371134D01*
X175250Y373156D01*
Y375344D01*
X174413Y377365D01*
X172866Y378913D01*
X172684Y378988D01*
Y382500D01*
X180791D01*
Y339313D01*
D02*
G37*
G36*
X125940Y258016D02*
X122587Y254663D01*
X121924Y253671D01*
X121691Y252500D01*
X121691Y252500D01*
Y229718D01*
X120317Y228344D01*
X118656D01*
X117579Y227898D01*
X116309Y228746D01*
Y259000D01*
X125128D01*
X125940Y258016D01*
D02*
G37*
G36*
X158847Y302020D02*
X158321Y300750D01*
X152250D01*
Y295000D01*
X159500D01*
Y299571D01*
X160770Y300097D01*
X169191Y291675D01*
Y217767D01*
X165983Y214559D01*
X148750D01*
Y219941D01*
X152314D01*
X152337Y219884D01*
X153884Y218337D01*
X155906Y217500D01*
X158094D01*
X160116Y218337D01*
X161663Y219884D01*
X162500Y221906D01*
Y224094D01*
X161663Y226115D01*
X160116Y227663D01*
X158094Y228500D01*
X157688D01*
X157201Y229673D01*
X157413Y229884D01*
X158250Y231906D01*
Y234094D01*
X157413Y236115D01*
X155865Y237663D01*
X153844Y238500D01*
X151656D01*
X150020Y237822D01*
X148990Y238321D01*
X148750Y238566D01*
Y250500D01*
X135492D01*
X135006Y251673D01*
X137163Y253830D01*
X137163Y253830D01*
X137826Y254822D01*
X138059Y255993D01*
X138059Y255993D01*
Y319039D01*
X138059Y319039D01*
X137826Y320210D01*
X137163Y321202D01*
X137163Y321202D01*
X119540Y338825D01*
X119623Y339447D01*
X120965Y339902D01*
X158847Y302020D01*
D02*
G37*
G36*
X173441Y211706D02*
Y190756D01*
X164244Y181559D01*
X148750D01*
Y195312D01*
X149923Y195799D01*
X150134Y195587D01*
X152156Y194750D01*
X154344D01*
X156365Y195587D01*
X157913Y197134D01*
X158750Y199156D01*
Y201344D01*
X157913Y203365D01*
X156365Y204913D01*
X154344Y205750D01*
X152156D01*
X150134Y204913D01*
X149923Y204701D01*
X148750Y205187D01*
Y208441D01*
X167250D01*
X167250Y208441D01*
X168421Y208674D01*
X169413Y209337D01*
X172268Y212192D01*
X173441Y211706D01*
D02*
G37*
G36*
X286666Y3334D02*
X273334D01*
Y3896666D01*
X286666D01*
Y3334D01*
D02*
G37*
G36*
X16666D02*
X3334D01*
Y3896666D01*
X16666D01*
Y3334D01*
D02*
G37*
%LPC*%
G36*
X179250Y3889250D02*
Y3882000D01*
X188250D01*
Y3889250D01*
X179250D01*
D02*
G37*
G36*
X135750Y3892250D02*
X130000D01*
Y3882000D01*
X135750D01*
Y3892250D01*
D02*
G37*
G36*
X109250Y3889250D02*
X100250D01*
Y3882000D01*
X109250D01*
Y3889250D01*
D02*
G37*
G36*
X154500Y3892250D02*
X144750D01*
Y3882000D01*
X154500D01*
Y3892250D01*
D02*
G37*
G36*
X188250Y3879500D02*
X179250D01*
Y3872250D01*
X188250D01*
Y3879500D01*
D02*
G37*
G36*
X109250D02*
X100250D01*
Y3872250D01*
X109250D01*
Y3879500D01*
D02*
G37*
G36*
X166750Y3892250D02*
X157000D01*
Y3880750D01*
Y3869250D01*
X166750D01*
Y3871598D01*
X167750Y3872250D01*
X168020Y3872250D01*
X176750D01*
Y3880750D01*
Y3889250D01*
X168020D01*
X167750Y3889250D01*
X166750Y3889902D01*
Y3892250D01*
D02*
G37*
G36*
X154500Y3879500D02*
X144750D01*
Y3869250D01*
X154500D01*
Y3879500D01*
D02*
G37*
G36*
X135750D02*
X130000D01*
Y3869250D01*
X135750D01*
Y3879500D01*
D02*
G37*
G36*
X127500Y3892250D02*
X121750D01*
Y3889902D01*
X120750Y3889250D01*
X120480Y3889250D01*
X111750D01*
Y3880750D01*
Y3872250D01*
X120480D01*
X120750Y3872250D01*
X121750Y3871598D01*
Y3869250D01*
X127500D01*
Y3880750D01*
X128750D01*
D01*
X127500D01*
Y3892250D01*
D02*
G37*
G36*
X178250Y3865250D02*
X170375D01*
Y3856500D01*
X178250D01*
Y3865250D01*
D02*
G37*
G36*
X118125D02*
X110250D01*
Y3856500D01*
X118125D01*
Y3865250D01*
D02*
G37*
G36*
Y3854000D02*
X110250D01*
Y3845250D01*
X118125D01*
Y3854000D01*
D02*
G37*
G36*
X128500Y3865250D02*
X120625D01*
Y3855250D01*
Y3845250D01*
X127250D01*
Y3845250D01*
X130000D01*
Y3854000D01*
Y3862750D01*
X128500D01*
Y3865250D01*
D02*
G37*
G36*
X178750Y3809500D02*
X157250D01*
Y3790500D01*
X178750D01*
Y3795103D01*
X180020Y3795629D01*
X184931Y3790718D01*
Y3784709D01*
X183837Y3783615D01*
X183000Y3781594D01*
Y3779406D01*
X183837Y3777385D01*
X185385Y3775837D01*
X187406Y3775000D01*
X189594D01*
X191616Y3775837D01*
X193163Y3777385D01*
X194000Y3779406D01*
Y3781594D01*
X193163Y3783615D01*
X192069Y3784709D01*
Y3792196D01*
X191797Y3793561D01*
X191023Y3794719D01*
X183219Y3802523D01*
X182062Y3803297D01*
X180696Y3803569D01*
X178750D01*
Y3809500D01*
D02*
G37*
G36*
Y3709500D02*
X157250D01*
Y3690500D01*
X164431D01*
Y3686960D01*
X163587Y3686115D01*
X162750Y3684094D01*
Y3681906D01*
X163587Y3679885D01*
X165135Y3678337D01*
X167156Y3677500D01*
X169344D01*
X171366Y3678337D01*
X172913Y3679885D01*
X173750Y3681906D01*
Y3684094D01*
X172913Y3686115D01*
X171569Y3687460D01*
Y3690500D01*
X178750D01*
Y3709500D01*
D02*
G37*
G36*
Y3609500D02*
X157250D01*
Y3590500D01*
X160225D01*
X160478Y3589230D01*
X160135Y3589088D01*
X158587Y3587541D01*
X157750Y3585519D01*
Y3583331D01*
X158587Y3581310D01*
X160135Y3579763D01*
X162156Y3578925D01*
X164344D01*
X166366Y3579763D01*
X167913Y3581310D01*
X168750Y3583331D01*
Y3583484D01*
X170773Y3585507D01*
X171547Y3586665D01*
X171819Y3588030D01*
Y3590500D01*
X178750D01*
Y3609500D01*
D02*
G37*
G36*
Y3509500D02*
X157250D01*
Y3490500D01*
X164431D01*
Y3489210D01*
X163337Y3488116D01*
X162500Y3486094D01*
Y3483906D01*
X163337Y3481884D01*
X164884Y3480337D01*
X166906Y3479500D01*
X169094D01*
X171115Y3480337D01*
X172663Y3481884D01*
X173500Y3483906D01*
Y3486094D01*
X172663Y3488116D01*
X171569Y3489210D01*
Y3490500D01*
X178750D01*
Y3509500D01*
D02*
G37*
G36*
X121266Y629620D02*
X118734D01*
X116287Y628964D01*
X114093Y627698D01*
X112302Y625907D01*
X111036Y623713D01*
X110380Y621267D01*
Y618733D01*
X111036Y616287D01*
X112302Y614093D01*
X114093Y612302D01*
X116287Y611036D01*
X118734Y610380D01*
X121266D01*
X123713Y611036D01*
X125907Y612302D01*
X127698Y614093D01*
X128964Y616287D01*
X129620Y618733D01*
Y621267D01*
X128964Y623713D01*
X127698Y625907D01*
X125907Y627698D01*
X123713Y628964D01*
X121266Y629620D01*
D02*
G37*
G36*
X69620D02*
X50380D01*
Y610380D01*
X69620D01*
Y629620D01*
D02*
G37*
G36*
X35866D02*
X33333D01*
X30887Y628964D01*
X28693Y627698D01*
X26902Y625907D01*
X25636Y623713D01*
X24980Y621267D01*
Y618733D01*
X25636Y616287D01*
X26902Y614093D01*
X28693Y612302D01*
X30887Y611036D01*
X33333Y610380D01*
X35866D01*
X38313Y611036D01*
X40507Y612302D01*
X42298Y614093D01*
X43564Y616287D01*
X44220Y618733D01*
Y621267D01*
X43564Y623713D01*
X42298Y625907D01*
X40507Y627698D01*
X38313Y628964D01*
X35866Y629620D01*
D02*
G37*
G36*
X214344Y572000D02*
X212156D01*
X210135Y571163D01*
X208587Y569616D01*
X207750Y567594D01*
Y565406D01*
X208587Y563385D01*
X210135Y561837D01*
X212156Y561000D01*
X212704D01*
X215670Y558034D01*
Y548200D01*
X229830D01*
Y551911D01*
X232920D01*
Y547890D01*
X247080D01*
Y562050D01*
X232920D01*
Y558029D01*
X229830D01*
Y562360D01*
X219996D01*
X218223Y564133D01*
X218750Y565406D01*
Y567594D01*
X217913Y569616D01*
X216366Y571163D01*
X214344Y572000D01*
D02*
G37*
G36*
X124050Y548580D02*
X118220D01*
Y542750D01*
X124050D01*
Y548580D01*
D02*
G37*
G36*
X66250Y541250D02*
X62250D01*
Y535250D01*
X66250D01*
Y541250D01*
D02*
G37*
G36*
X59750D02*
X55750D01*
Y535250D01*
X59750D01*
Y541250D01*
D02*
G37*
G36*
X124050Y540250D02*
X118220D01*
Y534420D01*
X124050D01*
Y540250D01*
D02*
G37*
G36*
X44080Y536580D02*
X38250D01*
Y530750D01*
X44080D01*
Y536580D01*
D02*
G37*
G36*
X35750D02*
X29920D01*
Y530750D01*
X35750D01*
Y536580D01*
D02*
G37*
G36*
X251412Y534474D02*
X246598D01*
Y529660D01*
X251412D01*
Y534474D01*
D02*
G37*
G36*
X244098D02*
X239284D01*
Y529660D01*
X244098D01*
Y534474D01*
D02*
G37*
G36*
X120830Y529830D02*
X115000D01*
Y524000D01*
X120830D01*
Y529830D01*
D02*
G37*
G36*
X44080Y528250D02*
X38250D01*
Y522420D01*
X44080D01*
Y528250D01*
D02*
G37*
G36*
X35750D02*
X29920D01*
Y522420D01*
X35750D01*
Y528250D01*
D02*
G37*
G36*
X251412Y527160D02*
X246598D01*
Y522346D01*
X251412D01*
Y527160D01*
D02*
G37*
G36*
X244098D02*
X239284D01*
Y522346D01*
X244098D01*
Y527160D01*
D02*
G37*
G36*
X120830Y521500D02*
X115000D01*
Y515670D01*
X120830D01*
Y521500D01*
D02*
G37*
G36*
X112500D02*
X106670D01*
Y515670D01*
X112500D01*
Y521500D01*
D02*
G37*
G36*
X229830Y544580D02*
X215670D01*
Y530420D01*
X219691D01*
Y524314D01*
X217186D01*
Y512186D01*
X229314D01*
Y524314D01*
X225809D01*
Y530420D01*
X229830D01*
Y544580D01*
D02*
G37*
G36*
X95080Y497330D02*
X80920D01*
Y493309D01*
X77047D01*
Y497153D01*
X62887D01*
Y482993D01*
X77047D01*
Y487191D01*
X80920D01*
Y483170D01*
X95080D01*
Y497330D01*
D02*
G37*
G36*
X59267Y497153D02*
X53437D01*
Y491323D01*
X59267D01*
Y497153D01*
D02*
G37*
G36*
X50937D02*
X45107D01*
Y491323D01*
X50937D01*
Y497153D01*
D02*
G37*
G36*
X59267Y488823D02*
X53437D01*
Y482993D01*
X59267D01*
Y488823D01*
D02*
G37*
G36*
X235300Y497580D02*
X221140D01*
Y483420D01*
X221140D01*
X221194Y483339D01*
X220641Y482003D01*
Y479815D01*
X221479Y477793D01*
X223026Y476246D01*
X225047Y475409D01*
X227235D01*
X229257Y476246D01*
X230804Y477793D01*
X231641Y479815D01*
Y482003D01*
X231492Y482364D01*
X232197Y483420D01*
X235300D01*
Y497580D01*
D02*
G37*
G36*
X84830Y397080D02*
X79000D01*
Y391250D01*
X84830D01*
Y397080D01*
D02*
G37*
G36*
X76500D02*
X70670D01*
Y391250D01*
X76500D01*
Y397080D01*
D02*
G37*
G36*
X226000Y389134D02*
Y384320D01*
X230814D01*
Y389134D01*
X226000D01*
D02*
G37*
G36*
X84830Y388750D02*
X79000D01*
Y382920D01*
X84830D01*
Y388750D01*
D02*
G37*
G36*
X76500D02*
X70670D01*
Y382920D01*
X76500D01*
Y388750D01*
D02*
G37*
G36*
X230814Y381820D02*
X226000D01*
Y377006D01*
X230814D01*
Y381820D01*
D02*
G37*
G36*
X84830Y377080D02*
X79000D01*
Y371250D01*
X84830D01*
Y377080D01*
D02*
G37*
G36*
X76500D02*
X70670D01*
Y371250D01*
X76500D01*
Y377080D01*
D02*
G37*
G36*
X84830Y368750D02*
X79000D01*
Y362920D01*
X84830D01*
Y368750D01*
D02*
G37*
G36*
X76500D02*
X70670D01*
Y362920D01*
X76500D01*
Y368750D01*
D02*
G37*
G36*
X91094Y363750D02*
X88906D01*
X86884Y362913D01*
X85337Y361366D01*
X84500Y359344D01*
Y357156D01*
X85337Y355135D01*
X85941Y354531D01*
Y351830D01*
X81920D01*
Y337670D01*
X96080D01*
Y351830D01*
X92059D01*
Y353150D01*
X93116Y353587D01*
X94663Y355135D01*
X95500Y357156D01*
Y359344D01*
X94663Y361366D01*
X93116Y362913D01*
X91094Y363750D01*
D02*
G37*
G36*
X96080Y334050D02*
X81920D01*
Y319890D01*
X85341D01*
Y316412D01*
X82846D01*
Y304284D01*
X94974D01*
Y316412D01*
X92479D01*
Y319890D01*
X96080D01*
Y334050D01*
D02*
G37*
G36*
X236500Y300750D02*
X229250D01*
Y295000D01*
X236500D01*
Y300750D01*
D02*
G37*
G36*
X226750D02*
X219500D01*
Y295000D01*
X226750D01*
Y300750D01*
D02*
G37*
G36*
X236500Y292500D02*
X229250D01*
Y286750D01*
X236500D01*
Y292500D01*
D02*
G37*
G36*
X226750D02*
X219500D01*
Y286750D01*
X226750D01*
Y292500D01*
D02*
G37*
G36*
X84814Y294314D02*
X72686D01*
Y292838D01*
X58000D01*
X56244Y292489D01*
X54756Y291494D01*
X52011Y288750D01*
X44500D01*
Y274750D01*
Y261750D01*
X58500D01*
Y263043D01*
X59556Y263748D01*
X60156Y263500D01*
X62344D01*
X64366Y264337D01*
X65913Y265884D01*
X66750Y267906D01*
Y270094D01*
X65913Y272115D01*
X64366Y273663D01*
X62344Y274500D01*
X60156D01*
X59565Y274255D01*
X58500Y275189D01*
Y282261D01*
X59900Y283662D01*
X72686D01*
Y282186D01*
X84814D01*
Y294314D01*
D02*
G37*
G36*
X208250Y277500D02*
X184250D01*
Y259000D01*
X208250D01*
Y263926D01*
X209520Y264452D01*
X209884Y264087D01*
X211906Y263250D01*
X214094D01*
X216115Y264087D01*
X217663Y265634D01*
X218500Y267656D01*
Y269844D01*
X217663Y271866D01*
X216115Y273413D01*
X214094Y274250D01*
X211906D01*
X209884Y273413D01*
X209520Y273048D01*
X208250Y273574D01*
Y277500D01*
D02*
G37*
G36*
X162500Y108900D02*
X155250D01*
Y104650D01*
X162500D01*
Y108900D01*
D02*
G37*
G36*
X152750D02*
X145500D01*
Y104650D01*
X152750D01*
Y108900D01*
D02*
G37*
G36*
X217500D02*
X200500D01*
Y97900D01*
X217500D01*
Y108900D01*
D02*
G37*
G36*
X162500Y102150D02*
X155250D01*
Y97900D01*
X162500D01*
Y102150D01*
D02*
G37*
G36*
X152750D02*
X145500D01*
Y97900D01*
X152750D01*
Y102150D01*
D02*
G37*
G36*
X125080Y110080D02*
X110920D01*
Y95920D01*
X125080D01*
Y99431D01*
X129022D01*
X135200Y93253D01*
X134714Y92080D01*
X134250D01*
Y86250D01*
X140080D01*
Y86797D01*
X141350Y87476D01*
X141384Y87453D01*
X142750Y87181D01*
X145500D01*
Y85200D01*
X162500D01*
Y96200D01*
X145500D01*
Y94319D01*
X144228D01*
X133023Y105523D01*
X131866Y106297D01*
X130500Y106569D01*
X125080D01*
Y110080D01*
D02*
G37*
G36*
X116750Y92300D02*
X110920D01*
Y86470D01*
X116750D01*
Y92300D01*
D02*
G37*
G36*
X237080Y85080D02*
X222920D01*
Y81569D01*
X217500D01*
Y83500D01*
X200500D01*
Y72500D01*
X217500D01*
Y74431D01*
X222920D01*
Y70920D01*
X237080D01*
Y85080D01*
D02*
G37*
G36*
X162500Y83500D02*
X155250D01*
Y79250D01*
X162500D01*
Y83500D01*
D02*
G37*
G36*
X152750D02*
X145500D01*
Y79250D01*
X152750D01*
Y83500D01*
D02*
G37*
G36*
X140080Y83750D02*
X134250D01*
Y77920D01*
X140080D01*
Y83750D01*
D02*
G37*
G36*
X125080Y92300D02*
X124741Y92300D01*
X119250D01*
Y85220D01*
X118000D01*
Y83970D01*
X110920D01*
X110920Y78140D01*
X109675Y78080D01*
X109420D01*
Y63920D01*
X123580D01*
Y64431D01*
X125920D01*
Y60140D01*
X140080D01*
Y61731D01*
X145500D01*
Y59800D01*
X162500D01*
Y70800D01*
X145500D01*
Y68869D01*
X140080D01*
Y74300D01*
X125920D01*
Y71569D01*
X123580D01*
X123580Y78038D01*
X124832Y78123D01*
X125920Y77920D01*
X126259Y77920D01*
X131750D01*
Y85000D01*
Y92080D01*
X126259D01*
X125080Y92300D01*
D02*
G37*
G36*
X162500Y76750D02*
X155250D01*
Y72500D01*
X162500D01*
Y76750D01*
D02*
G37*
G36*
X152750D02*
X145500D01*
Y72500D01*
X152750D01*
Y76750D01*
D02*
G37*
G36*
X217500Y96200D02*
X200500D01*
Y85200D01*
X217500D01*
Y87131D01*
X242975D01*
X243752Y86174D01*
X243284Y85080D01*
X241325D01*
Y70920D01*
X255485D01*
Y85080D01*
X251973D01*
Y86845D01*
X251702Y88211D01*
X250928Y89368D01*
X247073Y93223D01*
X245916Y93997D01*
X244550Y94269D01*
X217500D01*
Y96200D01*
D02*
G37*
G36*
X195497Y103350D02*
X167497D01*
Y65350D01*
X195497D01*
Y103350D01*
D02*
G37*
G36*
X105800Y78080D02*
X91640D01*
Y63920D01*
X94132D01*
Y61530D01*
X94481Y59774D01*
X95476Y58286D01*
X99926Y53836D01*
X101414Y52841D01*
X103170Y52492D01*
X110895D01*
X110969Y52417D01*
X112991Y51580D01*
X115179D01*
X117200Y52417D01*
X118748Y53965D01*
X119585Y55986D01*
Y58174D01*
X118748Y60196D01*
X117200Y61743D01*
X115179Y62580D01*
X112991D01*
X110969Y61743D01*
X110895Y61668D01*
X105070D01*
X104089Y62650D01*
X104615Y63920D01*
X105800D01*
Y78080D01*
D02*
G37*
G36*
X217500Y70800D02*
Y70800D01*
X200500D01*
Y64847D01*
X190477Y54823D01*
X189703Y53666D01*
X189431Y52300D01*
Y45080D01*
X185920D01*
Y30920D01*
X200080D01*
Y45080D01*
X196569D01*
Y50822D01*
X205547Y59800D01*
X217500D01*
Y59800D01*
X217539Y59826D01*
X218326Y59500D01*
X220514D01*
X221650Y59971D01*
X222920Y59122D01*
Y53140D01*
X226431D01*
Y46080D01*
X222900D01*
Y31920D01*
X237060D01*
Y46080D01*
X233569D01*
Y53140D01*
X237080D01*
Y67300D01*
X224420D01*
X224083Y68116D01*
X222535Y69663D01*
X220514Y70500D01*
X218326D01*
X218093Y70404D01*
X217500Y70800D01*
D02*
G37*
G36*
X255485Y67300D02*
X241325D01*
Y53140D01*
X244836D01*
Y29633D01*
X240008Y24804D01*
X237013D01*
Y28316D01*
X222853D01*
Y14156D01*
X237013D01*
Y17667D01*
X241486D01*
X242852Y17939D01*
X244009Y18713D01*
X250928Y25631D01*
X251702Y26789D01*
X251973Y28155D01*
Y53140D01*
X255485D01*
Y67300D01*
D02*
G37*
G36*
X200080Y27300D02*
X194250D01*
Y21470D01*
X200080D01*
Y27300D01*
D02*
G37*
G36*
X191750D02*
X185920D01*
Y21470D01*
X191750D01*
Y27300D01*
D02*
G37*
G36*
X211094Y55500D02*
X208906D01*
X206884Y54663D01*
X205337Y53116D01*
X204500Y51094D01*
Y48906D01*
X205145Y47350D01*
X205120Y46080D01*
X205120Y46080D01*
X205120Y46080D01*
Y31920D01*
X208631D01*
Y28316D01*
X205073D01*
Y14156D01*
X219233D01*
Y28316D01*
X215769D01*
Y31920D01*
X219280D01*
Y46080D01*
X215518D01*
X214855Y47350D01*
X215500Y48906D01*
Y51094D01*
X214663Y53116D01*
X213116Y54663D01*
X211094Y55500D01*
D02*
G37*
G36*
X200080Y18970D02*
X194250D01*
Y13140D01*
X200080D01*
Y18970D01*
D02*
G37*
G36*
X191750D02*
X185920D01*
Y13140D01*
X191750D01*
Y18970D01*
D02*
G37*
G36*
X87656Y527360D02*
X81826D01*
Y521530D01*
X87656D01*
Y527360D01*
D02*
G37*
G36*
X245516Y448770D02*
X242983D01*
X240537Y448114D01*
X238343Y446848D01*
X238332Y446836D01*
X244250Y440918D01*
X250168Y446836D01*
X250157Y446848D01*
X247963Y448114D01*
X245516Y448770D01*
D02*
G37*
G36*
X236564Y445069D02*
X236552Y445057D01*
X235286Y442863D01*
X234630Y440416D01*
Y437883D01*
X235286Y435437D01*
X236552Y433243D01*
X236564Y433232D01*
X242482Y439150D01*
X236564Y445069D01*
D02*
G37*
G36*
X244250Y437382D02*
X238332Y431464D01*
X238343Y431452D01*
X240537Y430186D01*
X242983Y429530D01*
X245516D01*
X247963Y430186D01*
X250157Y431452D01*
X250168Y431464D01*
X244250Y437382D01*
D02*
G37*
G36*
X67338Y454000D02*
X61500D01*
Y440662D01*
X62750D01*
X64506Y441011D01*
X65994Y442006D01*
X66989Y443494D01*
X67338Y445250D01*
Y454000D01*
D02*
G37*
G36*
X59000D02*
X53162D01*
Y445250D01*
X53511Y443494D01*
X54506Y442006D01*
X55994Y441011D01*
X57750Y440662D01*
X59000D01*
Y454000D01*
D02*
G37*
G36*
X159500Y345750D02*
X142500D01*
Y331750D01*
X159500D01*
Y333063D01*
X160770Y333678D01*
X162406Y333000D01*
X164594D01*
X166616Y333837D01*
X168163Y335384D01*
X169000Y337406D01*
Y339594D01*
X168163Y341615D01*
X166616Y343163D01*
X164594Y344000D01*
X162406D01*
X160770Y343322D01*
X159500Y343937D01*
Y345750D01*
D02*
G37*
G36*
X149750Y300750D02*
X142500D01*
Y295000D01*
X149750D01*
Y300750D01*
D02*
G37*
G36*
X159500Y292500D02*
X152250D01*
Y286750D01*
X159500D01*
Y292500D01*
D02*
G37*
G36*
X149750D02*
X142500D01*
Y286750D01*
X149750D01*
Y292500D01*
D02*
G37*
%LPD*%
D11*
X172000Y672500D02*
X172000D01*
X187500Y601315D02*
Y657000D01*
X172000Y672500D02*
X187500Y657000D01*
X202652Y360598D02*
Y374425D01*
X200000Y385459D02*
Y386000D01*
Y385459D02*
X202701Y382758D01*
X202652Y374425D02*
X202701Y374474D01*
Y382758D01*
X103170Y57080D02*
X114085D01*
X238250Y351000D02*
X246250Y343000D01*
Y265750D02*
Y343000D01*
X212250Y351000D02*
X238250D01*
X155750Y3882750D02*
X179500D01*
X128750D02*
X179500D01*
X128750D02*
X155750D01*
X112000D02*
X128750D01*
X112000D02*
X155750D01*
X103369Y650000D02*
X105859Y647509D01*
X88250Y650000D02*
X103369D01*
X200492Y588322D02*
X224428D01*
X187500Y601315D02*
X200492Y588322D01*
X224428D02*
X240000Y572750D01*
X88910Y310348D02*
X88955Y310393D01*
X58000Y288250D02*
X78750D01*
X51500Y281750D02*
X58000Y288250D01*
X51500Y350000D02*
X68590Y332910D01*
Y310348D02*
Y332910D01*
X66117Y248367D02*
X66500Y248750D01*
X51775Y248367D02*
X66117D01*
X51100Y247692D02*
X51775Y248367D01*
X188000Y246000D02*
X226500D01*
X187750Y245750D02*
X188000Y246000D01*
X226500D02*
X246250Y265750D01*
X202652Y360598D02*
X212250Y351000D01*
X98720Y61530D02*
Y71000D01*
Y61530D02*
X103170Y57080D01*
X99250Y521174D02*
Y527662D01*
X107390Y535802D01*
X88906Y510830D02*
X99250Y521174D01*
X107390Y553836D02*
X112216Y558662D01*
Y602384D01*
X94600Y620000D02*
X112216Y602384D01*
X107390Y535802D02*
Y553836D01*
X142500Y574911D02*
X142625Y575036D01*
X142339Y574750D02*
X142500Y574911D01*
X142625Y575036D02*
Y588625D01*
X142750Y588750D01*
X51736Y474000D02*
X88000D01*
X51140Y511360D02*
X51500Y511000D01*
X37360Y511360D02*
X51140D01*
X37000Y511720D02*
X37360Y511360D01*
X51500Y350000D02*
Y361530D01*
X59970Y370000D01*
X42243Y483493D02*
X51736Y474000D01*
X37000Y488736D02*
X42243Y483493D01*
X46500Y416250D02*
X60250D01*
X42243Y420507D02*
X46500Y416250D01*
X42243Y420507D02*
Y483493D01*
X36750Y509250D02*
X36890D01*
X37000Y509140D01*
Y488736D02*
Y509140D01*
X191390Y18610D02*
X193000Y20220D01*
X110390Y3881140D02*
X112000Y3882750D01*
X179500D01*
X118110Y85110D02*
X132890D01*
X118000Y85220D02*
X118110Y85110D01*
D12*
X70500Y511000D02*
G03*
X70910Y510830I410J410D01*
G01*
X55250Y514750D02*
X101088Y560588D01*
X53250Y514750D02*
X55250D01*
X101088Y562026D02*
X103652Y564590D01*
X101088Y560588D02*
Y562026D01*
X157250Y3838500D02*
Y3854000D01*
X88910Y326880D02*
X89000Y326970D01*
X88910Y310348D02*
Y326880D01*
X188500Y3780500D02*
Y3792196D01*
X180696Y3800000D02*
X188500Y3792196D01*
X168000Y3800000D02*
X180696D01*
X163250Y3584425D02*
X164015Y3585191D01*
X165410D02*
X168250Y3588030D01*
X164015Y3585191D02*
X165410D01*
X168250Y3588030D02*
Y3599750D01*
X168000Y3485000D02*
Y3500000D01*
Y3683250D02*
Y3700000D01*
Y3600000D02*
X168250Y3599750D01*
X168000Y3683250D02*
X168250Y3683000D01*
X169250Y3101250D02*
Y3124000D01*
X168000Y3100000D02*
X169250Y3101250D01*
X140500Y3336750D02*
Y3337397D01*
X145833Y3342731D01*
Y3397632D02*
X150401Y3402200D01*
X165800D02*
X168000Y3400000D01*
X150401Y3402200D02*
X165800D01*
X145833Y3342731D02*
Y3397632D01*
X168250Y3200250D02*
Y3217750D01*
X168000Y3200000D02*
X168250Y3200250D01*
X168000Y3300000D02*
X168500Y3299500D01*
Y3284250D02*
Y3299500D01*
X151500Y2800000D02*
X168000D01*
X169500Y2986500D02*
Y2998500D01*
X168000Y3000000D02*
X169500Y2998500D01*
X168000Y2900000D02*
X168500Y2899500D01*
Y2888500D02*
Y2899500D01*
X167000Y2701000D02*
X168000Y2700000D01*
X151750Y2701000D02*
X167000D01*
X167750Y2300250D02*
Y2321000D01*
Y2300250D02*
X168000Y2300000D01*
Y2616000D02*
X174000Y2622000D01*
X168000Y2600000D02*
Y2616000D01*
X166500Y2515668D02*
X168000Y2514168D01*
Y2500000D02*
Y2514168D01*
X166500Y2515668D02*
Y2516750D01*
X167000Y2401000D02*
X168000Y2400000D01*
X167000Y2401000D02*
Y2422750D01*
X168500Y1500500D02*
Y1519750D01*
X168000Y1500000D02*
X168500Y1500500D01*
X152250Y1899968D02*
X152282Y1900000D01*
X168000D01*
X169250Y2185500D02*
Y2198750D01*
X168000Y2200000D02*
X169250Y2198750D01*
X167750Y2082000D02*
Y2099750D01*
X168000Y2100000D01*
X167500Y1984500D02*
Y1999500D01*
X168000Y2000000D01*
X166750Y1601250D02*
X168000Y1600000D01*
X166750Y1601250D02*
Y1622250D01*
X168000Y1700000D02*
X168250Y1700250D01*
Y1720500D01*
X149250Y1800250D02*
X167750D01*
X168000Y1800000D01*
X51500Y511000D02*
Y513000D01*
X53250Y514750D01*
X70910Y510830D02*
X88906D01*
X209000Y65300D02*
X209150Y65150D01*
X219270D01*
X219420Y65000D01*
X125750Y574750D02*
X142339D01*
X87630Y584910D02*
X103652D01*
X85750Y583030D02*
X87630Y584910D01*
X215000Y372500D02*
Y399500D01*
Y372500D02*
X224750Y362750D01*
X134920Y65300D02*
X154000D01*
X133000Y67220D02*
X134920Y65300D01*
X132220Y68000D02*
X133000Y67220D01*
X116000Y68000D02*
X132220D01*
X142750Y90750D02*
X153950D01*
X154000Y90700D01*
X130500Y103000D02*
X142750Y90750D01*
X118000Y103000D02*
X130500D01*
X244550Y90700D02*
X248405Y86845D01*
Y78000D02*
Y86845D01*
X209000Y90700D02*
X244550D01*
X209000Y78000D02*
X230000D01*
X229933Y21236D02*
X241486D01*
X248405Y28155D01*
Y60220D01*
X229980Y39000D02*
X230000Y39020D01*
Y60220D01*
X210000Y41200D02*
Y50000D01*
Y41200D02*
X212200Y39000D01*
X212153Y21236D02*
X212200Y21283D01*
Y39000D01*
X193000Y52300D02*
X206000Y65300D01*
X209000D01*
X193000Y38000D02*
Y52300D01*
D13*
X-0Y0D02*
Y3900000D01*
X290000D01*
X290000Y0D01*
X-0D02*
X290000D01*
D14*
X145000D02*
Y3899750D01*
D16*
X89000Y326970D02*
D03*
Y344750D02*
D03*
X240000Y554970D02*
D03*
Y572750D02*
D03*
X222750Y537500D02*
D03*
Y555280D02*
D03*
X85750Y584530D02*
D03*
Y566750D02*
D03*
X113750Y504970D02*
D03*
Y522750D02*
D03*
X88906Y528610D02*
D03*
Y510830D02*
D03*
X37000Y529500D02*
D03*
Y511720D02*
D03*
X118000Y103000D02*
D03*
Y85220D02*
D03*
X133000Y85000D02*
D03*
Y67220D02*
D03*
X248405Y78000D02*
D03*
Y60220D02*
D03*
X230000Y78000D02*
D03*
Y60220D02*
D03*
X193000Y20220D02*
D03*
Y38000D02*
D03*
X215000Y399500D02*
D03*
Y417280D02*
D03*
D17*
X88910Y310348D02*
D03*
X68590D02*
D03*
X78750Y288250D02*
D03*
D18*
X223250Y518250D02*
D03*
X245348Y528410D02*
D03*
Y508090D02*
D03*
X103652Y584910D02*
D03*
Y564590D02*
D03*
X125750Y574750D02*
D03*
X224750Y362750D02*
D03*
Y383070D02*
D03*
X202652Y372910D02*
D03*
D19*
X228220Y490500D02*
D03*
X246000D02*
D03*
X160280Y574911D02*
D03*
X142500D02*
D03*
X134750Y541500D02*
D03*
X116970D02*
D03*
X69967Y490073D02*
D03*
X52187D02*
D03*
X105780Y474000D02*
D03*
X88000D02*
D03*
Y490250D02*
D03*
X105780D02*
D03*
X59970Y390000D02*
D03*
X77750D02*
D03*
Y370000D02*
D03*
X59970D02*
D03*
X98720Y71000D02*
D03*
X116500D02*
D03*
X212200Y39000D02*
D03*
X229980D02*
D03*
X212153Y21236D02*
D03*
X229933D02*
D03*
D20*
X181497Y84350D02*
D03*
D21*
X209000Y90700D02*
D03*
Y103400D02*
D03*
Y78000D02*
D03*
Y65300D02*
D03*
X154000Y90700D02*
D03*
Y103400D02*
D03*
Y78000D02*
D03*
Y65300D02*
D03*
D22*
X228000Y338750D02*
D03*
Y293750D02*
D03*
X151000Y338750D02*
D03*
Y293750D02*
D03*
D23*
X130000Y700000D02*
D03*
X168000D02*
D03*
X130000Y3800000D02*
D03*
X168000D02*
D03*
X130000Y3700000D02*
D03*
X168000D02*
D03*
X130000Y3600000D02*
D03*
X168000D02*
D03*
X130000Y3500000D02*
D03*
X168000D02*
D03*
X130000Y3400000D02*
D03*
X168000D02*
D03*
X130000Y3300000D02*
D03*
X168000D02*
D03*
X130000Y3200000D02*
D03*
X168000D02*
D03*
X130000Y3100000D02*
D03*
X168000D02*
D03*
X130000Y3000000D02*
D03*
X168000D02*
D03*
X130000Y2900000D02*
D03*
X168000D02*
D03*
X130000Y2800000D02*
D03*
X168000D02*
D03*
X130000Y2700000D02*
D03*
X168000D02*
D03*
X130000Y2600000D02*
D03*
X168000D02*
D03*
X130000Y2500000D02*
D03*
X168000D02*
D03*
X130000Y2400000D02*
D03*
X168000D02*
D03*
X130000Y2300000D02*
D03*
X168000D02*
D03*
X130000Y2200000D02*
D03*
X168000D02*
D03*
X130000Y2100000D02*
D03*
X168000D02*
D03*
X130000Y2000000D02*
D03*
X168000D02*
D03*
X130000Y1900000D02*
D03*
X168000D02*
D03*
X130000Y1800000D02*
D03*
X168000D02*
D03*
X130000Y1700000D02*
D03*
X168000D02*
D03*
X130000Y1600000D02*
D03*
X168000D02*
D03*
X130000Y1500000D02*
D03*
X168000D02*
D03*
X130000Y1400000D02*
D03*
X168000D02*
D03*
X130000Y1300000D02*
D03*
X168000D02*
D03*
Y800000D02*
D03*
X130000D02*
D03*
X168000Y900000D02*
D03*
X130000D02*
D03*
X168000Y1000000D02*
D03*
X130000D02*
D03*
X168000Y1100000D02*
D03*
X130000D02*
D03*
X168000Y1200000D02*
D03*
X130000D02*
D03*
D24*
X132250Y648500D02*
D03*
X106850D02*
D03*
D25*
X51500Y511000D02*
D03*
X70500D02*
D03*
X61000Y534000D02*
D03*
D26*
X135330Y499970D02*
D03*
Y524970D02*
D03*
D27*
X107000Y462000D02*
D03*
Y457000D02*
D03*
Y452000D02*
D03*
Y447000D02*
D03*
Y442000D02*
D03*
Y437000D02*
D03*
Y432000D02*
D03*
Y427000D02*
D03*
Y422000D02*
D03*
X197000D02*
D03*
Y427000D02*
D03*
Y432000D02*
D03*
Y437000D02*
D03*
Y442000D02*
D03*
Y447000D02*
D03*
Y452000D02*
D03*
Y457000D02*
D03*
Y462000D02*
D03*
X107000Y407000D02*
D03*
X197000D02*
D03*
X107000Y417000D02*
D03*
Y412000D02*
D03*
X197000D02*
D03*
Y417000D02*
D03*
D28*
X139500Y479500D02*
D03*
X134500D02*
D03*
X129500D02*
D03*
X124500D02*
D03*
X179500D02*
D03*
X174500D02*
D03*
X169500D02*
D03*
X164500D02*
D03*
X159500D02*
D03*
X154500D02*
D03*
X149500D02*
D03*
X124500Y389500D02*
D03*
X129500D02*
D03*
X134500D02*
D03*
X139500D02*
D03*
X154500D02*
D03*
X159500D02*
D03*
X164500D02*
D03*
X179500D02*
D03*
X169500D02*
D03*
X174500D02*
D03*
X149500D02*
D03*
X144500Y479500D02*
D03*
Y389500D02*
D03*
D29*
X60250Y416250D02*
D03*
Y455250D02*
D03*
D30*
X169125Y3855250D02*
D03*
X119375D02*
D03*
D31*
X128750Y3880750D02*
D03*
D32*
X155750D02*
D03*
D33*
X178000D02*
D03*
X110500D02*
D03*
D34*
X150750Y3854000D02*
D03*
X137750D02*
D03*
X157250D02*
D03*
X131250D02*
D03*
X144250D02*
D03*
D35*
X51500Y281750D02*
D03*
Y268750D02*
D03*
X51100Y234692D02*
D03*
Y247692D02*
D03*
D36*
X139250Y167500D02*
D03*
Y178500D02*
D03*
Y189500D02*
D03*
Y200500D02*
D03*
Y211500D02*
D03*
Y222500D02*
D03*
Y233500D02*
D03*
Y244500D02*
D03*
D37*
X113250Y268250D02*
D03*
Y130250D02*
D03*
X196250Y268250D02*
D03*
Y130250D02*
D03*
D61*
X144614Y484822D02*
G03*
X144500Y484158I1887J-664D01*
G01*
X147742Y493750D02*
G03*
X147743Y493752I-2912J720D01*
G01*
X147660Y493474D02*
G03*
X147742Y493750I-2830J996D01*
G01*
X119386Y484614D02*
G03*
X105780Y490250I-13606J-13606D01*
G01*
D02*
G03*
X106280Y489750I500J0D01*
G01*
X70393Y490250D02*
G03*
X69967Y490073I0J-603D01*
G01*
X139850Y485573D02*
X140555Y486278D01*
X139500Y479500D02*
X139850Y479850D01*
Y485573D01*
X140555Y486278D02*
Y495470D01*
X110844Y462350D02*
Y464748D01*
X112477Y466381D01*
X107000Y462000D02*
X107350Y462350D01*
X112477Y466381D02*
X219285D01*
X107350Y462350D02*
X110844D01*
X219285Y466381D02*
X230000Y455666D01*
Y428000D02*
Y455666D01*
Y428000D02*
X244250Y413750D01*
X196457Y651957D02*
Y654378D01*
X196750Y654672D01*
X195500Y651000D02*
X196457Y651957D01*
X196750Y654672D02*
Y987500D01*
X189000Y348000D02*
Y409593D01*
Y348000D02*
X198250Y338750D01*
X214500Y425147D02*
X216500Y427147D01*
Y428500D01*
X214500Y417220D02*
Y425147D01*
Y417220D02*
X214720Y417000D01*
X197000D02*
X214720D01*
X155830Y537487D02*
X156836Y546684D01*
X151830Y539144D02*
X152250Y543066D01*
X151830Y492449D02*
Y539144D01*
X151742Y491899D02*
X151805Y492293D01*
X151830Y492449D01*
X154850Y479850D02*
Y485271D01*
X159830Y483500D02*
Y535830D01*
X154850Y485271D02*
X155830Y490792D01*
X159500Y479500D02*
X159830Y483500D01*
X152250Y543066D02*
Y547755D01*
X155830Y490792D02*
Y537487D01*
X159830Y535830D02*
X170250Y546250D01*
X156836Y546684D02*
X163436Y553284D01*
X135330Y524970D02*
X141047Y519253D01*
X149850Y485928D02*
X151742Y491899D01*
X144614Y484822D02*
X147660Y493474D01*
X149850Y479850D02*
Y485928D01*
X141060Y519239D02*
X147830Y506713D01*
X147743Y493752D02*
X147830Y494106D01*
X141047Y519253D02*
X141060Y519239D01*
X147830Y494106D02*
Y506713D01*
X146000Y551593D02*
Y560250D01*
X153064Y556229D02*
X153407Y556572D01*
X154236Y557400D01*
X152250Y547755D02*
X153064Y556229D01*
X145750Y545750D02*
X146000Y551593D01*
X154236Y557400D02*
X154547D01*
X158147Y561000D02*
X159500D01*
X154547Y557400D02*
X158147Y561000D01*
X169850Y491368D02*
X170732Y492250D01*
X169850Y479850D02*
Y491368D01*
X226141Y488421D02*
X228220Y490500D01*
X226141Y480909D02*
Y488421D01*
X244900Y470500D02*
X250000Y465400D01*
X109280Y470500D02*
X244900D01*
X105780Y474000D02*
X109280Y470500D01*
X90000Y356897D02*
Y358250D01*
X151250Y338500D02*
X163500D01*
X189624Y672874D02*
X189687Y672937D01*
Y1022834D02*
X189750Y1022897D01*
X189687Y672937D02*
Y1022834D01*
X213250Y566500D02*
X214207Y565543D01*
Y563823D02*
X222750Y555280D01*
X214207Y563823D02*
Y565543D01*
X169625Y374375D02*
Y389375D01*
X169500Y389500D02*
X169625Y389375D01*
Y374375D02*
X169750Y374250D01*
X222750Y555280D02*
X223060Y554970D01*
X240000D01*
X222750Y518750D02*
X223250Y518250D01*
X222750Y518750D02*
Y537500D01*
X245348Y491152D02*
X246000Y490500D01*
X245348Y491152D02*
Y508090D01*
X89000Y344750D02*
Y355897D01*
X90000Y356897D01*
X151000Y293750D02*
X151500Y293250D01*
X162750D01*
X120150Y345042D02*
X172250Y292942D01*
Y216500D02*
Y292942D01*
X120150Y345042D02*
Y396150D01*
X167250Y211500D02*
X172250Y216500D01*
X139250Y211500D02*
X167250D01*
X189250Y293000D02*
X227250D01*
X228000Y293750D01*
X151000Y338750D02*
X151250Y338500D01*
X198250Y338750D02*
X228000D01*
X191057Y411650D02*
X196650D01*
X189000Y409593D02*
X191057Y411650D01*
X196650D02*
X197000Y412000D01*
X128750Y189922D02*
Y249743D01*
Y189922D02*
X130422Y188250D01*
X138000D01*
X139250Y189500D01*
X136250Y192500D02*
X139250Y189500D01*
Y178500D02*
X165511D01*
X176500Y189489D01*
Y330696D01*
X124750Y228451D02*
Y252500D01*
X131000Y258750D02*
Y317383D01*
X124750Y252500D02*
X131000Y258750D01*
X128750Y249743D02*
X135000Y255993D01*
X116150Y337890D02*
X135000Y319039D01*
Y255993D02*
Y319039D01*
X112150Y336233D02*
X131000Y317383D01*
X119750Y223451D02*
X124750Y228451D01*
X113250Y130250D02*
X168250D01*
X113250Y267500D02*
Y268250D01*
X119750Y222844D02*
Y223451D01*
X113250Y130250D02*
Y267500D01*
X168250Y130250D02*
X169250D01*
X196250D01*
X139750Y223000D02*
X157000D01*
X139250Y222500D02*
X139750Y223000D01*
X168250Y131250D02*
X169250Y130250D01*
X168250Y131250D02*
Y159500D01*
X66692Y238692D02*
X95500Y267500D01*
X55100Y238692D02*
X66692D01*
X51100Y234692D02*
X55100Y238692D01*
X95500Y267500D02*
X112500D01*
X113250Y268250D01*
X196250D02*
X196750Y268750D01*
X213000D01*
X139250Y200500D02*
X139500Y200250D01*
X153250D01*
X139750Y233000D02*
X152750D01*
X139250Y233500D02*
X139750Y233000D01*
X116150Y337890D02*
Y397807D01*
X120150Y396150D02*
X151000Y427000D01*
X176500Y330696D02*
X183850Y338046D01*
X181250Y1037756D02*
X182000Y1037006D01*
X180500Y1038506D02*
X181250Y1037756D01*
X153756D02*
X181250D01*
X153500Y1037500D02*
X153756Y1037756D01*
X180500Y1861500D02*
Y2657558D01*
Y1038506D02*
Y1861500D01*
X180250Y1861250D02*
X180500Y1861500D01*
X158500Y1861250D02*
X180250D01*
X189750Y1024250D02*
Y1025603D01*
X187500Y1027853D02*
X189750Y1025603D01*
X187500Y1027853D02*
Y1844000D01*
X182000Y685922D02*
Y1037006D01*
X181000Y682250D02*
X181957Y683207D01*
Y685878D02*
X182000Y685922D01*
X181957Y683207D02*
Y685878D01*
X192250Y1848750D02*
Y1849172D01*
X195500Y1852422D01*
Y2735103D01*
X189000Y1873000D02*
Y1874353D01*
X190957Y1876310D02*
Y1876378D01*
X189000Y1874353D02*
X190957Y1876310D01*
Y1876378D02*
X191250Y1876672D01*
X202500Y1835250D02*
X203457Y1836207D01*
Y1838878D02*
X203500Y1838922D01*
Y2722353D01*
X203457Y1836207D02*
Y1838878D01*
X203500Y2722353D02*
X205250Y2724103D01*
Y3367750D01*
X153500Y3394950D02*
X153750Y3395200D01*
X153500Y3241693D02*
Y3394950D01*
X151228Y565478D02*
X151562D01*
X146000Y560250D02*
X151228Y565478D01*
X163436Y553284D02*
X164635D01*
X134750Y525550D02*
X135330Y524970D01*
X134750Y525550D02*
Y541500D01*
X195000Y3381897D02*
Y3383250D01*
Y3381897D02*
X197250Y3379647D01*
Y3361102D02*
X197250Y3361102D01*
X197250Y3361102D02*
Y3379647D01*
X197250Y2736853D02*
Y3361102D01*
X190750Y3344647D02*
Y3345250D01*
X185500Y3339397D02*
X190750Y3344647D01*
X195500Y2735103D02*
X197250Y2736853D01*
X185500Y2758500D02*
Y3339397D01*
X142250Y2747500D02*
X179750Y2785000D01*
X153500Y3241693D02*
X179750Y3215443D01*
Y2785000D02*
Y3215443D01*
X142250Y2695807D02*
Y2747500D01*
Y2695807D02*
X180500Y2657558D01*
X194375Y1049875D02*
Y1809625D01*
X194000Y1810000D02*
X194375Y1809625D01*
X166500Y998500D02*
X168000Y1000000D01*
X148000Y998500D02*
X166500D01*
X167000Y701000D02*
Y720000D01*
X168500Y1282500D02*
Y1299500D01*
X169500Y1083750D02*
Y1098500D01*
X168000Y1185750D02*
Y1200000D01*
Y1387250D02*
Y1400000D01*
Y1100000D02*
X169500Y1098500D01*
X168000Y1300000D02*
X168500Y1299500D01*
X167000Y701000D02*
X168000Y700000D01*
X167250Y800750D02*
Y819250D01*
Y800750D02*
X168000Y800000D01*
X167000Y901000D02*
X168000Y900000D01*
X167000Y901000D02*
Y915000D01*
X191250Y1876672D02*
Y2688647D01*
X187500Y2692397D02*
X191250Y2688647D01*
X187500Y2692397D02*
Y2693750D01*
X187500Y1844000D02*
X192250Y1848750D01*
X203250Y644250D02*
Y1011500D01*
X203000Y644000D02*
X203250Y644250D01*
Y1011500D02*
Y1834500D01*
X202500Y1835250D02*
X203250Y1834500D01*
X194375Y1049875D02*
X194750Y1049500D01*
X103750Y512750D02*
X113750Y522750D01*
X103500Y512750D02*
X103750D01*
X113750Y522750D02*
X116970Y525970D01*
Y541500D01*
X122580Y504470D02*
X130830D01*
X135330Y499970D01*
X122080Y504970D02*
X122580Y504470D01*
X113750Y504970D02*
X122080D01*
X169500Y479500D02*
X169850Y479850D01*
X154500Y479500D02*
X154850Y479850D01*
X149500Y479500D02*
X149850Y479850D01*
X134055Y488970D02*
X134277Y488747D01*
Y479723D02*
Y488747D01*
Y479723D02*
X134500Y479500D01*
X135330Y499970D02*
X136055D01*
X140555Y495470D01*
X144500Y479500D02*
Y484158D01*
X119386Y484614D02*
X124500Y479500D01*
X124150Y483367D02*
X124500Y479500D01*
X60250Y455250D02*
X76000D01*
X76250Y455500D01*
X164500Y398308D02*
X168500Y402308D01*
Y403500D01*
X159500Y389500D02*
Y400095D01*
X164500Y389500D02*
Y398308D01*
X85750Y566750D02*
X92658Y573658D01*
X96908D01*
X97500Y574250D01*
X187700Y422000D02*
X197000D01*
X183850Y418150D02*
X187700Y422000D01*
X149686Y437000D02*
X197000D01*
X112150Y336233D02*
Y399464D01*
X149686Y437000D01*
X151000Y427000D02*
X197000D01*
X150343Y432000D02*
X197000D01*
X116150Y397807D02*
X150343Y432000D01*
X183850Y338046D02*
Y418150D01*
X36750Y509250D02*
Y511470D01*
X37000Y511720D01*
X98500Y458750D02*
Y466720D01*
Y458750D02*
X100250Y457000D01*
X98500Y466720D02*
X105780Y474000D01*
X100250Y457000D02*
X107000D01*
X70393Y490250D02*
X88000D01*
X107000Y412000D02*
Y417000D01*
Y407000D02*
Y412000D01*
X60250Y391970D02*
Y409250D01*
X62375Y407125D02*
X106875D01*
X107000Y407000D01*
X60250Y409250D02*
X62375Y407125D01*
X77750Y370000D02*
Y390000D01*
X60250Y391970D02*
X62220Y390000D01*
X59970Y370000D02*
Y390000D01*
X51500Y268750D02*
X60500D01*
X51100Y234692D02*
X51792Y234000D01*
X133000Y85000D02*
X133750Y84250D01*
X132890Y85110D02*
X133000Y85000D01*
X146500Y78000D02*
X154000D01*
X133750Y84250D02*
X140250D01*
X146500Y78000D01*
X119000Y3855375D02*
X120875Y3857250D01*
D62*
X157250Y3838500D02*
X195750D01*
X260750Y2028250D02*
Y3773500D01*
X195750Y3838500D02*
X260750Y3773500D01*
X260750Y134500D02*
Y2028250D01*
X260750Y2028250D01*
X133750Y694250D02*
Y697500D01*
Y694250D02*
X178000Y650000D01*
Y579250D02*
Y650000D01*
X131250Y700000D02*
X133750Y697500D01*
X130000Y700000D02*
X131250D01*
X160020Y613944D02*
Y649730D01*
X235250Y109000D02*
X260750Y134500D01*
X173500Y574750D02*
X178000Y579250D01*
X132250Y648500D02*
X134400Y646350D01*
Y632418D02*
X145400Y621418D01*
X134400Y632418D02*
Y646350D01*
X105859Y631259D02*
Y647509D01*
X94600Y620000D02*
X105859Y631259D01*
X214000Y1821250D02*
Y2707250D01*
X214750Y2708000D01*
Y3357750D01*
X130000Y1800000D02*
Y1900000D01*
Y1700000D02*
Y1800000D01*
X214000Y1000000D02*
Y1821250D01*
Y610750D02*
Y1000000D01*
X202750Y599500D02*
X214000Y610750D01*
X142750Y596674D02*
X160020Y613944D01*
X145400Y620000D02*
Y621418D01*
X142750Y588750D02*
Y596674D01*
X130000Y900000D02*
Y1000000D01*
Y800000D02*
Y900000D01*
Y700000D02*
Y800000D01*
Y1000000D02*
Y1100000D01*
X160360Y574831D02*
X173419D01*
X160280Y574911D02*
X160360Y574831D01*
X173419D02*
X173500Y574750D01*
X130000Y3700000D02*
Y3800000D01*
Y3600000D02*
Y3700000D01*
Y3500000D02*
Y3600000D01*
Y3400000D02*
Y3500000D01*
Y3300000D02*
Y3400000D01*
Y3200000D02*
Y3300000D01*
Y3100000D02*
Y3200000D01*
Y3000000D02*
Y3100000D01*
Y2900000D02*
Y3000000D01*
Y2800000D02*
Y2900000D01*
Y2700000D02*
Y2800000D01*
Y2600000D02*
Y2700000D01*
Y2500000D02*
Y2600000D01*
Y2400000D02*
Y2500000D01*
Y2300000D02*
Y2400000D01*
Y2200000D02*
Y2300000D01*
Y2100000D02*
Y2200000D01*
Y2000000D02*
Y2100000D01*
Y1900000D02*
Y2000000D01*
Y1600000D02*
Y1700000D01*
Y1500000D02*
Y1600000D01*
Y1400000D02*
Y1500000D01*
Y1300000D02*
Y1400000D01*
Y1200000D02*
Y1300000D01*
Y1100000D02*
Y1200000D01*
D63*
X244250Y464550D02*
D03*
D64*
Y413750D02*
D03*
Y388350D02*
D03*
Y439150D02*
D03*
X34600Y620000D02*
D03*
X120000D02*
D03*
X145400D02*
D03*
D65*
X60000D02*
D03*
X94600D02*
D03*
D66*
X160020Y649730D02*
D03*
X200000Y386000D02*
D03*
X216500Y428500D02*
D03*
X145750Y545750D02*
D03*
X170732Y492250D02*
D03*
X114085Y57080D02*
D03*
X235250Y109000D02*
D03*
X226141Y480909D02*
D03*
X70250Y573750D02*
D03*
X44500Y546750D02*
D03*
X163500Y338500D02*
D03*
X90000Y358250D02*
D03*
X198250Y338750D02*
D03*
X88250Y650000D02*
D03*
X172000Y672500D02*
D03*
X189624Y672874D02*
D03*
X195500Y651000D02*
D03*
X213250Y566500D02*
D03*
X169750Y374250D02*
D03*
X162750Y293250D02*
D03*
X189250Y293000D02*
D03*
X119750Y222844D02*
D03*
X157000Y223000D02*
D03*
X168250Y159500D02*
D03*
X95500Y267500D02*
D03*
X213000Y268750D02*
D03*
X66500Y248750D02*
D03*
X153250Y200250D02*
D03*
X152750Y233000D02*
D03*
X189750Y1024250D02*
D03*
X181000Y682250D02*
D03*
X189000Y1873000D02*
D03*
X153750Y3395200D02*
D03*
X28000Y545500D02*
D03*
X170250Y546250D02*
D03*
X163250Y3584425D02*
D03*
X168000Y3485000D02*
D03*
X188500Y3780500D02*
D03*
X168250Y3683000D02*
D03*
X190750Y3345250D02*
D03*
X205250Y3367750D02*
D03*
X169250Y3124000D02*
D03*
X140500Y3336750D02*
D03*
X168250Y3217750D02*
D03*
X168500Y3284250D02*
D03*
X214750Y3357750D02*
D03*
X151500Y2800000D02*
D03*
X169500Y2986500D02*
D03*
X168500Y2888500D02*
D03*
X195500Y2733750D02*
D03*
X143000Y2748250D02*
D03*
X151750Y2701000D02*
D03*
X167750Y2321000D02*
D03*
X174000Y2622000D02*
D03*
X166500Y2516750D02*
D03*
X167000Y2422750D02*
D03*
X214250Y2707250D02*
D03*
X168500Y1519750D02*
D03*
X152250Y1899968D02*
D03*
X169250Y2185500D02*
D03*
X167750Y2082000D02*
D03*
X167500Y1984500D02*
D03*
X166750Y1622250D02*
D03*
X168250Y1720500D02*
D03*
X149250Y1800250D02*
D03*
X194000Y1810000D02*
D03*
X214000Y1821250D02*
D03*
X148000Y998500D02*
D03*
X167000Y720000D02*
D03*
X168500Y1282500D02*
D03*
X169500Y1083750D02*
D03*
X168000Y1185750D02*
D03*
Y1387250D02*
D03*
X153500Y1037500D02*
D03*
X167250Y819250D02*
D03*
X167000Y915000D02*
D03*
X185500Y2758500D02*
D03*
X195000Y3383250D02*
D03*
X187500Y2693750D02*
D03*
X203500Y2721000D02*
D03*
X196750Y987500D02*
D03*
X203250Y1011500D02*
D03*
X203000Y644000D02*
D03*
X192250Y1848750D02*
D03*
X202500Y1835250D02*
D03*
X194750Y1049500D02*
D03*
X214000Y1000000D02*
D03*
X158500Y1861250D02*
D03*
X151562Y565478D02*
D03*
X159500Y561000D02*
D03*
X164635Y553284D02*
D03*
X134055Y488970D02*
D03*
X93000Y541750D02*
D03*
X103500Y512750D02*
D03*
X202750Y599500D02*
D03*
X61250Y501250D02*
D03*
X76250Y455500D02*
D03*
X168500Y403500D02*
D03*
X158015Y402933D02*
D03*
X173500Y574750D02*
D03*
X97500Y574250D02*
D03*
X70500Y474250D02*
D03*
X51500Y350000D02*
D03*
X219420Y65000D02*
D03*
X187750Y245750D02*
D03*
X61250Y269000D02*
D03*
X210000Y50000D02*
D03*
M02*
