G04*
G04 #@! TF.GenerationSoftware,Altium Limited,Altium Designer,21.2.0 (30)*
G04*
G04 Layer_Physical_Order=2*
G04 Layer_Color=16711680*
%FSLAX44Y44*%
%MOMM*%
G71*
G04*
G04 #@! TF.SameCoordinates,A6DC43CA-0054-425C-8A59-4F5BC2DD46D4*
G04*
G04*
G04 #@! TF.FilePolarity,Positive*
G04*
G01*
G75*
%ADD11C,0.5000*%
%ADD12C,0.3000*%
%ADD13C,0.2540*%
%ADD14C,0.1500*%
%ADD61C,0.2000*%
%ADD62C,1.0000*%
%ADD63R,1.5240X1.5240*%
%ADD64C,1.5240*%
%ADD65R,1.5240X1.5240*%
%ADD66C,0.7000*%
%ADD67R,3.0000X1.6000*%
%ADD68R,2.0320X0.6604*%
G36*
X286666Y3334D02*
X273334D01*
Y3896666D01*
X286666D01*
Y3334D01*
D02*
G37*
G36*
X266666D02*
X23334D01*
Y3896666D01*
X266666Y3896666D01*
Y3334D01*
D02*
G37*
G36*
X16666D02*
X3334D01*
Y3896666D01*
X16666D01*
Y3334D01*
D02*
G37*
%LPC*%
G36*
X189594Y3786000D02*
X187406D01*
X185385Y3785163D01*
X183837Y3783615D01*
X183000Y3781594D01*
Y3779406D01*
X183837Y3777385D01*
X184931Y3776290D01*
Y3726728D01*
X158727Y3700523D01*
X157953Y3699366D01*
X157681Y3698000D01*
Y3636063D01*
X157953Y3634697D01*
X158727Y3633540D01*
X166681Y3625585D01*
Y3590332D01*
X165411Y3589483D01*
X164344Y3589925D01*
X162156D01*
X160135Y3589088D01*
X158587Y3587541D01*
X157750Y3585519D01*
Y3583331D01*
X158587Y3581310D01*
X159681Y3580216D01*
Y3503728D01*
X83727Y3427773D01*
X82953Y3426616D01*
X82681Y3425250D01*
Y3359000D01*
X82953Y3357634D01*
X83727Y3356477D01*
X98127Y3342077D01*
X99284Y3341303D01*
X100650Y3341031D01*
X107840D01*
Y3339298D01*
X132160D01*
Y3349902D01*
X107840D01*
Y3348169D01*
X102128D01*
X89819Y3360478D01*
Y3364853D01*
X91089Y3365365D01*
X101677Y3354777D01*
X102834Y3354003D01*
X104200Y3353731D01*
X107840D01*
Y3351998D01*
X132160D01*
Y3362602D01*
X107840D01*
Y3360869D01*
X105678D01*
X96819Y3369728D01*
Y3385596D01*
X98089Y3386122D01*
X102817Y3381394D01*
X103974Y3380620D01*
X105340Y3380349D01*
X107840D01*
Y3377398D01*
X132160D01*
Y3388002D01*
X107840D01*
Y3388002D01*
X106570Y3387734D01*
X103319Y3390985D01*
Y3393839D01*
X103632Y3394114D01*
X104589Y3394469D01*
X105432Y3393905D01*
X106798Y3393633D01*
X107840D01*
Y3390098D01*
X132160D01*
Y3400702D01*
X118543D01*
X118198Y3400771D01*
X109569D01*
Y3402798D01*
X132160D01*
Y3404531D01*
X134397D01*
X143181Y3395747D01*
Y3392300D01*
X143181Y3392300D01*
Y3373500D01*
X143453Y3372134D01*
X144227Y3370977D01*
X160427Y3354777D01*
X161584Y3354003D01*
X162950Y3353731D01*
X163720D01*
Y3351998D01*
X188040D01*
Y3352937D01*
X211998D01*
X213656Y3352250D01*
X215844D01*
X217866Y3353087D01*
X219413Y3354634D01*
X220250Y3356656D01*
Y3358844D01*
X219413Y3360865D01*
X217866Y3362413D01*
X215844Y3363250D01*
X213656D01*
X211635Y3362413D01*
X211335Y3362113D01*
X209080D01*
X208661Y3363383D01*
X209913Y3364634D01*
X210750Y3366656D01*
Y3368844D01*
X209913Y3370865D01*
X208365Y3372413D01*
X206344Y3373250D01*
X204156D01*
X202134Y3372413D01*
X200587Y3370865D01*
X200564Y3370809D01*
X188040D01*
Y3375302D01*
X163720D01*
Y3364698D01*
X178096D01*
X178130Y3364691D01*
X178130Y3364691D01*
X200564D01*
X200587Y3364634D01*
X201839Y3363383D01*
X201420Y3362113D01*
X188040D01*
Y3362602D01*
X163720D01*
Y3362602D01*
X162995Y3362302D01*
X150319Y3374978D01*
Y3389293D01*
X151589Y3390142D01*
X152656Y3389700D01*
X154844D01*
X156866Y3390537D01*
X158413Y3392084D01*
X158436Y3392141D01*
X163720D01*
Y3390098D01*
X188040D01*
Y3400702D01*
X163720D01*
Y3398258D01*
X158436D01*
X158413Y3398315D01*
X156866Y3399862D01*
X154844Y3400700D01*
X152656D01*
X150634Y3399862D01*
X150537Y3399764D01*
X148999Y3400023D01*
X138398Y3410623D01*
X137241Y3411397D01*
X135875Y3411669D01*
X132160D01*
Y3413402D01*
X113008D01*
X112521Y3414575D01*
X177773Y3479827D01*
X178547Y3480985D01*
X178819Y3482350D01*
Y3629134D01*
X178547Y3630500D01*
X177773Y3631657D01*
X171819Y3637612D01*
Y3678790D01*
X172913Y3679885D01*
X173750Y3681906D01*
Y3684094D01*
X172913Y3686115D01*
X171366Y3687663D01*
X169344Y3688500D01*
X167156D01*
X166089Y3688058D01*
X164819Y3688906D01*
Y3696522D01*
X191023Y3722727D01*
X191797Y3723884D01*
X192069Y3725250D01*
Y3776290D01*
X193163Y3777385D01*
X194000Y3779406D01*
Y3781594D01*
X193163Y3783615D01*
X191616Y3785163D01*
X189594Y3786000D01*
D02*
G37*
G36*
X188040Y3413402D02*
X163720D01*
Y3402798D01*
X188040D01*
Y3413402D01*
D02*
G37*
G36*
X196094Y3388750D02*
X193906D01*
X191884Y3387913D01*
X190337Y3386365D01*
X190314Y3386309D01*
X188040D01*
Y3388002D01*
X163720D01*
Y3377398D01*
X188040D01*
Y3380191D01*
X190314D01*
X190337Y3380135D01*
X191884Y3378587D01*
X193906Y3377750D01*
X196094D01*
X198116Y3378587D01*
X199663Y3380135D01*
X200500Y3382156D01*
Y3384344D01*
X199663Y3386365D01*
X198116Y3387913D01*
X196094Y3388750D01*
D02*
G37*
G36*
X191844Y3350750D02*
X189656D01*
X187635Y3349913D01*
X187624Y3349902D01*
X163720D01*
Y3339298D01*
X188040D01*
Y3339298D01*
X189076Y3339990D01*
X189656Y3339750D01*
X191844D01*
X193866Y3340587D01*
X195413Y3342134D01*
X196250Y3344156D01*
Y3346344D01*
X195413Y3348365D01*
X193866Y3349913D01*
X191844Y3350750D01*
D02*
G37*
G36*
X141594Y3342250D02*
X139406D01*
X137385Y3341413D01*
X135837Y3339865D01*
X135000Y3337844D01*
Y3337287D01*
X133430Y3335717D01*
X132160Y3336068D01*
Y3337202D01*
X107840D01*
Y3326598D01*
X132160D01*
Y3328331D01*
X134660D01*
X136026Y3328603D01*
X137183Y3329377D01*
X139159Y3331352D01*
X139406Y3331250D01*
X141594D01*
X143616Y3332087D01*
X145163Y3333635D01*
X146000Y3335656D01*
Y3337844D01*
X145163Y3339865D01*
X143616Y3341413D01*
X141594Y3342250D01*
D02*
G37*
G36*
X132160Y3375302D02*
X107840D01*
Y3364698D01*
X132160D01*
Y3366431D01*
X134022D01*
X150181Y3350272D01*
Y3299000D01*
X150453Y3297634D01*
X151227Y3296477D01*
X163000Y3284703D01*
Y3283156D01*
X163837Y3281135D01*
X165385Y3279587D01*
X167406Y3278750D01*
X169594D01*
X171616Y3279587D01*
X173163Y3281135D01*
X173411Y3281735D01*
X174681Y3281483D01*
Y3219914D01*
X173411Y3219661D01*
X172913Y3220865D01*
X171366Y3222413D01*
X169344Y3223250D01*
X167797D01*
X123569Y3267478D01*
Y3313898D01*
X132160D01*
Y3324502D01*
X107840D01*
Y3313898D01*
X116431D01*
Y3266000D01*
X116703Y3264634D01*
X117477Y3263477D01*
X162750Y3218203D01*
Y3216656D01*
X163587Y3214634D01*
X165135Y3213087D01*
X167156Y3212250D01*
X169344D01*
X171366Y3213087D01*
X172913Y3214634D01*
X173411Y3215839D01*
X174681Y3215586D01*
Y3134478D01*
X169703Y3129500D01*
X168156D01*
X166134Y3128663D01*
X164587Y3127115D01*
X163750Y3125094D01*
Y3122906D01*
X164587Y3120884D01*
X166134Y3119337D01*
X168156Y3118500D01*
X170344D01*
X172365Y3119337D01*
X173913Y3120884D01*
X174750Y3122906D01*
Y3124453D01*
X180773Y3130477D01*
X181547Y3131635D01*
X181819Y3133000D01*
Y3285000D01*
X181547Y3286366D01*
X180773Y3287523D01*
X162319Y3305978D01*
Y3328331D01*
X163720D01*
Y3326598D01*
X188040D01*
Y3337202D01*
X163720D01*
Y3335469D01*
X160507D01*
X159142Y3335197D01*
X158589Y3334827D01*
X157319Y3335506D01*
Y3351750D01*
X157047Y3353116D01*
X156273Y3354273D01*
X138023Y3372523D01*
X136866Y3373297D01*
X135500Y3373569D01*
X132160D01*
Y3375302D01*
D02*
G37*
G36*
X227550Y3326260D02*
X219000D01*
X217173Y3326020D01*
X215470Y3325315D01*
X214007Y3324193D01*
X213697Y3323788D01*
X188040D01*
Y3324502D01*
X163720D01*
Y3313898D01*
X188040D01*
Y3314612D01*
X213697D01*
X214007Y3314207D01*
X215470Y3313086D01*
X217173Y3312380D01*
X219000Y3312140D01*
X224625D01*
X224940Y3311826D01*
Y2673338D01*
X182160D01*
Y2674502D01*
X162450D01*
X161964Y2675675D01*
X162887Y2676598D01*
X182160D01*
Y2687202D01*
X157840D01*
Y2681645D01*
X153817Y2677621D01*
X153043Y2676464D01*
X152771Y2675098D01*
Y2669116D01*
X151501Y2668831D01*
X150913Y2669711D01*
X126280Y2694345D01*
Y2699902D01*
X101960D01*
Y2689298D01*
X121233D01*
X122156Y2688375D01*
X121670Y2687202D01*
X101960D01*
Y2676598D01*
X121233D01*
X122156Y2675675D01*
X121670Y2674502D01*
X101960D01*
Y2663898D01*
X119211D01*
Y2466970D01*
X119483Y2465604D01*
X120257Y2464447D01*
X161500Y2423203D01*
Y2421656D01*
X162337Y2419635D01*
X163885Y2418087D01*
X165906Y2417250D01*
X168094D01*
X170116Y2418087D01*
X171663Y2419635D01*
X172500Y2421656D01*
Y2423844D01*
X171663Y2425865D01*
X170116Y2427413D01*
X168094Y2428250D01*
X166547D01*
X126349Y2468448D01*
Y2667398D01*
X126280Y2667743D01*
Y2669892D01*
X127453Y2670378D01*
X162931Y2634900D01*
Y2520960D01*
X161837Y2519866D01*
X161000Y2517844D01*
Y2515656D01*
X161837Y2513634D01*
X163384Y2512087D01*
X165406Y2511250D01*
X167594D01*
X169615Y2512087D01*
X171163Y2513634D01*
X172000Y2515656D01*
Y2517844D01*
X171163Y2519866D01*
X170069Y2520960D01*
Y2616494D01*
X171339Y2617149D01*
X172906Y2616500D01*
X175094D01*
X177115Y2617337D01*
X177258Y2617480D01*
X178431Y2616994D01*
Y2336728D01*
X168203Y2326500D01*
X166656D01*
X164634Y2325663D01*
X163087Y2324115D01*
X162250Y2322094D01*
Y2319906D01*
X163087Y2317885D01*
X164634Y2316337D01*
X166656Y2315500D01*
X168844D01*
X170865Y2316337D01*
X172413Y2317885D01*
X173250Y2319906D01*
Y2321453D01*
X184523Y2332727D01*
X185297Y2333884D01*
X185569Y2335250D01*
Y2639000D01*
X185297Y2640366D01*
X184523Y2641523D01*
X163322Y2662725D01*
X163808Y2663898D01*
X182160D01*
Y2664162D01*
X225190D01*
Y1789188D01*
X188040D01*
Y1789902D01*
X168330D01*
X167844Y1791075D01*
X168767Y1791998D01*
X188040D01*
Y1802602D01*
X163720D01*
Y1797045D01*
X159697Y1793021D01*
X158923Y1791864D01*
X158651Y1790498D01*
Y1772213D01*
X157478Y1771727D01*
X132160Y1797045D01*
Y1802602D01*
X107840D01*
Y1791998D01*
X127113D01*
X128036Y1791075D01*
X127550Y1789902D01*
X107840D01*
Y1779298D01*
X125091D01*
Y1660340D01*
X125363Y1658974D01*
X126137Y1657817D01*
X161250Y1622703D01*
Y1621156D01*
X162087Y1619135D01*
X163634Y1617587D01*
X165656Y1616750D01*
X167844D01*
X169865Y1617587D01*
X171413Y1619135D01*
X172250Y1621156D01*
Y1623344D01*
X171413Y1625365D01*
X169865Y1626913D01*
X167844Y1627750D01*
X166297D01*
X132229Y1661818D01*
Y1782798D01*
X132160Y1783143D01*
Y1785292D01*
X133333Y1785778D01*
X164681Y1754430D01*
Y1724710D01*
X163587Y1723616D01*
X162750Y1721594D01*
Y1719406D01*
X163587Y1717384D01*
X165135Y1715837D01*
X167156Y1715000D01*
X169344D01*
X171366Y1715837D01*
X172913Y1717384D01*
X173750Y1719406D01*
Y1721594D01*
X172913Y1723616D01*
X171819Y1724710D01*
Y1752704D01*
X172992Y1753190D01*
X184681Y1741501D01*
Y1540978D01*
X168953Y1525250D01*
X167406D01*
X165385Y1524413D01*
X163837Y1522865D01*
X163000Y1520844D01*
Y1518656D01*
X163837Y1516635D01*
X165385Y1515087D01*
X167406Y1514250D01*
X169594D01*
X171616Y1515087D01*
X173163Y1516635D01*
X174000Y1518656D01*
Y1520203D01*
X190773Y1536977D01*
X191547Y1538134D01*
X191819Y1539500D01*
Y1742979D01*
X191547Y1744345D01*
X190773Y1745502D01*
X165789Y1770487D01*
Y1779298D01*
X188040D01*
Y1780012D01*
X225190D01*
Y964867D01*
X183156D01*
Y966600D01*
X158836D01*
Y955996D01*
X183156D01*
Y957729D01*
X225190D01*
Y760424D01*
X155028Y690262D01*
X153905Y688800D01*
X153200Y687097D01*
X152960Y685270D01*
Y649730D01*
X153200Y647903D01*
X153905Y646200D01*
X154092Y645957D01*
X153530Y644818D01*
X136970D01*
X128544Y653244D01*
X127055Y654239D01*
X125300Y654588D01*
X91440D01*
X91365Y654663D01*
X89344Y655500D01*
X87156D01*
X85134Y654663D01*
X83587Y653115D01*
X82750Y651094D01*
Y648906D01*
X83587Y646885D01*
X85134Y645337D01*
X87156Y644500D01*
X89344D01*
X91365Y645337D01*
X91440Y645412D01*
X123399D01*
X128299Y640511D01*
X127813Y639338D01*
X75250D01*
X73494Y638989D01*
X72006Y637994D01*
X63631Y629620D01*
X50380D01*
Y610588D01*
X47329D01*
X45943Y611974D01*
X45138Y613180D01*
X43003Y615315D01*
X43564Y616287D01*
X44220Y618733D01*
Y621267D01*
X43564Y623713D01*
X42298Y625907D01*
X40507Y627698D01*
X38313Y628964D01*
X35866Y629620D01*
X33333D01*
X30887Y628964D01*
X28693Y627698D01*
X26902Y625907D01*
X25636Y623713D01*
X24980Y621267D01*
Y618733D01*
X25636Y616287D01*
X26902Y614093D01*
X28693Y612302D01*
X30887Y611036D01*
X33333Y610380D01*
X34960D01*
X37843Y607497D01*
X38649Y606291D01*
X42185Y602756D01*
X43673Y601761D01*
X45429Y601412D01*
X80600D01*
X82356Y601761D01*
X83844Y602756D01*
X91469Y610380D01*
X104220D01*
Y629620D01*
X105266Y630162D01*
X115444D01*
X115550Y629995D01*
X115136Y628300D01*
X114093Y627698D01*
X112302Y625907D01*
X111036Y623713D01*
X110380Y621267D01*
Y618733D01*
X111036Y616287D01*
X111937Y614726D01*
Y607422D01*
X101075Y596560D01*
X65000D01*
Y599500D01*
X31000D01*
Y579500D01*
X65000D01*
Y582440D01*
X77356D01*
Y570442D01*
X66173Y559259D01*
X65000Y559745D01*
Y562750D01*
X49250D01*
Y554000D01*
X59255D01*
X59741Y552827D01*
X28008Y521093D01*
X26885Y519631D01*
X26180Y517928D01*
X25940Y516101D01*
Y146750D01*
X26180Y144923D01*
X26885Y143220D01*
X28008Y141758D01*
X105677Y64088D01*
X107140Y62966D01*
X107927Y62640D01*
X108341Y61093D01*
X107971Y60610D01*
X107265Y58907D01*
X107025Y57080D01*
X107265Y55253D01*
X107971Y53550D01*
X109093Y52088D01*
X116173Y45008D01*
X117635Y43885D01*
X119338Y43180D01*
X121165Y42940D01*
X222584D01*
X224411Y43180D01*
X226114Y43885D01*
X227576Y45008D01*
X240072Y57504D01*
X241194Y58966D01*
X241900Y60669D01*
X242140Y62497D01*
Y107709D01*
X242310Y109000D01*
X242070Y110827D01*
X241364Y112530D01*
X240242Y113993D01*
X238780Y115114D01*
X237077Y115820D01*
X235250Y116060D01*
X233423Y115820D01*
X231720Y115114D01*
X230258Y113993D01*
X230088Y113822D01*
X228965Y112360D01*
X228260Y110657D01*
X228020Y108830D01*
Y66376D01*
X227618Y66091D01*
X226259Y66685D01*
X226240Y66827D01*
X225534Y68530D01*
X224412Y69992D01*
X220332Y74072D01*
X218870Y75195D01*
X217167Y75900D01*
X215340Y76140D01*
X113595D01*
X40060Y149675D01*
Y513176D01*
X89409Y562525D01*
X90531Y563987D01*
X91236Y565690D01*
X91477Y567517D01*
Y571100D01*
X92747Y571352D01*
X92837Y571134D01*
X94384Y569587D01*
X96406Y568750D01*
X98594D01*
X100616Y569587D01*
X102163Y571134D01*
X102186Y571191D01*
X125425D01*
X144193Y552423D01*
X143889Y550932D01*
X142634Y550413D01*
X141087Y548866D01*
X140250Y546844D01*
Y544656D01*
X141087Y542635D01*
X142634Y541087D01*
X142941Y540960D01*
Y502182D01*
X135205Y494446D01*
X135149Y494470D01*
X132961D01*
X130939Y493633D01*
X129392Y492085D01*
X128555Y490064D01*
Y487876D01*
X129392Y485854D01*
X130939Y484307D01*
X132961Y483470D01*
X135149D01*
X137170Y484307D01*
X138717Y485854D01*
X139555Y487876D01*
Y490064D01*
X139531Y490121D01*
X148163Y498752D01*
X148826Y499745D01*
X149059Y500915D01*
Y541281D01*
X150413Y542635D01*
X150932Y543888D01*
X152423Y544193D01*
X174174Y522443D01*
Y498152D01*
X172903Y497304D01*
X171826Y497750D01*
X169638D01*
X167617Y496913D01*
X166070Y495365D01*
X165232Y493344D01*
Y493239D01*
X150832Y478838D01*
X73690D01*
X73615Y478913D01*
X71594Y479750D01*
X69406D01*
X67385Y478913D01*
X65837Y477365D01*
X65000Y475344D01*
Y473156D01*
X65837Y471134D01*
X67385Y469587D01*
X69406Y468750D01*
X71594D01*
X73615Y469587D01*
X73690Y469662D01*
X152732D01*
X154488Y470011D01*
X155976Y471006D01*
X171721Y486750D01*
X171826D01*
X172903Y487196D01*
X174174Y486348D01*
Y424999D01*
X157658Y408483D01*
X157624Y408433D01*
X156921D01*
X154900Y407596D01*
X153353Y406049D01*
X152515Y404027D01*
Y401839D01*
X152539Y401782D01*
X112065Y361309D01*
X94686D01*
X94663Y361366D01*
X93116Y362913D01*
X91094Y363750D01*
X88906D01*
X86884Y362913D01*
X85337Y361366D01*
X84500Y359344D01*
Y357156D01*
X85038Y355858D01*
X84224Y354588D01*
X54690D01*
X54616Y354663D01*
X52594Y355500D01*
X50406D01*
X48384Y354663D01*
X46837Y353116D01*
X46000Y351094D01*
Y348906D01*
X46837Y346884D01*
X48384Y345337D01*
X50406Y344500D01*
X52594D01*
X54616Y345337D01*
X54690Y345412D01*
X196642D01*
X196895Y344142D01*
X195135Y343413D01*
X193587Y341866D01*
X193512Y341684D01*
X168094D01*
X166616Y343163D01*
X164594Y344000D01*
X162406D01*
X160385Y343163D01*
X158837Y341615D01*
X158000Y339594D01*
Y337406D01*
X158837Y335384D01*
X160385Y333837D01*
X162406Y333000D01*
X164594D01*
X166616Y333837D01*
X168163Y335384D01*
X168238Y335566D01*
X193656D01*
X195135Y334087D01*
X197156Y333250D01*
X199344D01*
X201366Y334087D01*
X202913Y335634D01*
X203750Y337656D01*
Y339844D01*
X202913Y341866D01*
X201366Y343413D01*
X199605Y344142D01*
X199858Y345412D01*
X207285D01*
X209041Y345761D01*
X210530Y346756D01*
X242605Y378831D01*
X242983Y378730D01*
X245516D01*
X247963Y379386D01*
X250157Y380652D01*
X251948Y382443D01*
X253214Y384637D01*
X253870Y387084D01*
Y389617D01*
X253214Y392063D01*
X251948Y394257D01*
X250157Y396048D01*
X247963Y397314D01*
X245516Y397970D01*
X242983D01*
X240537Y397314D01*
X238343Y396048D01*
X236552Y394257D01*
X235286Y392063D01*
X234630Y389617D01*
Y387084D01*
X235286Y384637D01*
X235340Y384543D01*
X205385Y354588D01*
X115538D01*
X115152Y355858D01*
X115495Y356087D01*
X156865Y397457D01*
X156921Y397433D01*
X159109D01*
X161131Y398271D01*
X161898Y399037D01*
X163165Y398954D01*
X163507Y398508D01*
X164970Y397385D01*
X166673Y396680D01*
X168500Y396440D01*
X170327Y396680D01*
X172030Y397385D01*
X173492Y398508D01*
X190225Y415240D01*
X191347Y416702D01*
X191670Y417482D01*
X192940Y417229D01*
Y386000D01*
X193180Y384173D01*
X193885Y382470D01*
X195007Y381008D01*
X196470Y379885D01*
X198173Y379180D01*
X200000Y378940D01*
X201827Y379180D01*
X202757Y379565D01*
X203477Y378489D01*
X202297Y377309D01*
X174436D01*
X174413Y377365D01*
X172866Y378913D01*
X170844Y379750D01*
X168656D01*
X166635Y378913D01*
X165087Y377365D01*
X164250Y375344D01*
Y373156D01*
X165087Y371134D01*
X166635Y369587D01*
X168656Y368750D01*
X170844D01*
X172866Y369587D01*
X174413Y371134D01*
X174436Y371191D01*
X203564D01*
X203564Y371191D01*
X204734Y371424D01*
X205727Y372087D01*
X210163Y376523D01*
X210163Y376523D01*
X210826Y377516D01*
X211059Y378686D01*
Y424367D01*
X212329Y424893D01*
X213384Y423837D01*
X215406Y423000D01*
X217594D01*
X219615Y423837D01*
X221163Y425384D01*
X222000Y427406D01*
Y429594D01*
X221977Y429651D01*
X228304Y435978D01*
X228304Y435978D01*
X228967Y436971D01*
X229200Y438141D01*
Y476223D01*
X229257Y476246D01*
X230804Y477793D01*
X231641Y479815D01*
Y482003D01*
X230804Y484024D01*
X229257Y485572D01*
X227235Y486409D01*
X225047D01*
X223026Y485572D01*
X221479Y484024D01*
X220641Y482003D01*
Y479815D01*
X221479Y477793D01*
X223026Y476246D01*
X223082Y476223D01*
Y439408D01*
X217651Y433977D01*
X217594Y434000D01*
X215406D01*
X213384Y433163D01*
X212329Y432107D01*
X211059Y432633D01*
Y559983D01*
X212099Y561023D01*
X212156Y561000D01*
X214344D01*
X216366Y561837D01*
X217913Y563385D01*
X218750Y565406D01*
Y567594D01*
X217913Y569616D01*
X216366Y571163D01*
X214344Y572000D01*
X212156D01*
X210135Y571163D01*
X208587Y569616D01*
X208330Y568995D01*
X207060Y569248D01*
Y593825D01*
X207742Y594507D01*
X208864Y595970D01*
X209570Y597673D01*
X209810Y599500D01*
X209570Y601327D01*
X208864Y603030D01*
X207742Y604492D01*
X206280Y605615D01*
X204577Y606320D01*
X202750Y606560D01*
X200923Y606320D01*
X199220Y605615D01*
X197757Y604492D01*
X195007Y601742D01*
X193885Y600280D01*
X193180Y598577D01*
X192940Y596750D01*
Y566021D01*
X191670Y565769D01*
X191347Y566548D01*
X190225Y568010D01*
X178493Y579743D01*
X177030Y580864D01*
X175327Y581570D01*
X173500Y581810D01*
X171673Y581570D01*
X169970Y580864D01*
X169698Y580656D01*
X168559Y581217D01*
Y604983D01*
X202076Y638500D01*
X204094D01*
X206115Y639337D01*
X207663Y640884D01*
X208500Y642906D01*
Y645094D01*
X207663Y647115D01*
X206115Y648663D01*
X204094Y649500D01*
X202173D01*
X201784Y649635D01*
X201000Y650499D01*
Y652094D01*
X200163Y654116D01*
X198615Y655663D01*
X196594Y656500D01*
X194406D01*
X192384Y655663D01*
X191579Y654857D01*
X190309Y655383D01*
Y664107D01*
X190831Y664629D01*
X191494Y665621D01*
X191726Y666792D01*
X191726Y666792D01*
Y667792D01*
X192740Y668212D01*
X194287Y669759D01*
X195124Y671780D01*
Y673968D01*
X194287Y675990D01*
X192740Y677537D01*
X190718Y678374D01*
X188530D01*
X186509Y677537D01*
X184962Y675990D01*
X184329Y674462D01*
X183059Y674714D01*
Y677150D01*
X184116Y677587D01*
X185663Y679135D01*
X186500Y681156D01*
Y683344D01*
X185663Y685366D01*
X184116Y686913D01*
X182094Y687750D01*
X179906D01*
X177885Y686913D01*
X176337Y685366D01*
X175500Y683344D01*
Y681156D01*
X176337Y679135D01*
X176941Y678531D01*
Y677133D01*
X175671Y676607D01*
X175116Y677163D01*
X173094Y678000D01*
X170906D01*
X168885Y677163D01*
X168350Y676628D01*
X167080Y677155D01*
Y682346D01*
X237243Y752508D01*
X238365Y753970D01*
X239070Y755673D01*
X239310Y757500D01*
Y961500D01*
Y1781250D01*
Y2668500D01*
X239070Y2670327D01*
X239060Y2670350D01*
Y3314750D01*
X238820Y3316577D01*
X238114Y3318280D01*
X236992Y3319742D01*
X232542Y3324193D01*
X231080Y3325315D01*
X229377Y3326020D01*
X227550Y3326260D01*
D02*
G37*
G36*
X170594Y2992000D02*
X168406D01*
X166385Y2991163D01*
X164837Y2989615D01*
X164000Y2987594D01*
Y2985406D01*
X164837Y2983384D01*
X166385Y2981837D01*
X168406Y2981000D01*
X169953D01*
X171931Y2979022D01*
Y2894406D01*
X170661Y2893558D01*
X169594Y2894000D01*
X167406D01*
X165385Y2893163D01*
X163837Y2891616D01*
X163000Y2889594D01*
Y2887406D01*
X163837Y2885385D01*
X164931Y2884290D01*
Y2808578D01*
X158103Y2801750D01*
X156605Y2802048D01*
X156163Y2803116D01*
X154615Y2804662D01*
X152594Y2805500D01*
X150406D01*
X148385Y2804662D01*
X147290Y2803569D01*
X113108D01*
X111742Y2803297D01*
X110585Y2802523D01*
X82727Y2774666D01*
X81953Y2773508D01*
X81681Y2772142D01*
Y2734210D01*
X81953Y2732844D01*
X82727Y2731687D01*
X96937Y2717477D01*
X98094Y2716703D01*
X99460Y2716431D01*
X101960D01*
Y2714698D01*
X126280D01*
Y2725302D01*
X101960D01*
Y2724168D01*
X100690Y2723817D01*
X88819Y2735688D01*
Y2739812D01*
X89992Y2740298D01*
X93019Y2737271D01*
X94177Y2736497D01*
X95542Y2736226D01*
X98690D01*
X101960Y2732955D01*
Y2727398D01*
X126280D01*
Y2738002D01*
X107007D01*
X106084Y2738925D01*
X106570Y2740098D01*
X126280D01*
Y2746092D01*
X127453Y2746578D01*
X138491Y2735540D01*
Y2728382D01*
X138763Y2727016D01*
X139537Y2725858D01*
X157840Y2707555D01*
Y2703988D01*
X156570Y2703736D01*
X156413Y2704116D01*
X154866Y2705663D01*
X152844Y2706500D01*
X151297D01*
X147973Y2709823D01*
X146816Y2710597D01*
X145450Y2710869D01*
X126280D01*
Y2712602D01*
X101960D01*
Y2701998D01*
X126280D01*
Y2703731D01*
X143972D01*
X146250Y2701453D01*
Y2699906D01*
X147087Y2697885D01*
X148635Y2696337D01*
X150656Y2695500D01*
X152844D01*
X154866Y2696337D01*
X156413Y2697885D01*
X156570Y2698264D01*
X157840Y2698012D01*
Y2689298D01*
X182160D01*
Y2689516D01*
X183430Y2690042D01*
X184384Y2689088D01*
X186406Y2688250D01*
X188594D01*
X190616Y2689088D01*
X192163Y2690634D01*
X193000Y2692656D01*
Y2694844D01*
X192163Y2696866D01*
X190616Y2698413D01*
X188594Y2699250D01*
X186406D01*
X184384Y2698413D01*
X183430Y2697458D01*
X182160Y2697984D01*
Y2699902D01*
X158518D01*
X157839Y2699904D01*
X157250Y2700928D01*
Y2700972D01*
X157840Y2701998D01*
X158520Y2701998D01*
X182160D01*
Y2702687D01*
X211035D01*
X211134Y2702587D01*
X213156Y2701750D01*
X215344D01*
X217365Y2702587D01*
X218913Y2704135D01*
X219750Y2706156D01*
Y2708344D01*
X218913Y2710366D01*
X217365Y2711913D01*
X215344Y2712750D01*
X213156D01*
X211134Y2711913D01*
X211085Y2711863D01*
X182160D01*
Y2712602D01*
X162887D01*
X161964Y2713525D01*
X162450Y2714698D01*
X182160D01*
Y2717941D01*
X198814D01*
X198837Y2717885D01*
X200385Y2716337D01*
X202406Y2715500D01*
X204594D01*
X206616Y2716337D01*
X208163Y2717885D01*
X209000Y2719906D01*
Y2722094D01*
X208163Y2724116D01*
X206616Y2725663D01*
X204594Y2726500D01*
X202406D01*
X200385Y2725663D01*
X198837Y2724116D01*
X198814Y2724059D01*
X182160D01*
Y2725302D01*
X157840D01*
Y2719308D01*
X156667Y2718822D01*
X145629Y2729860D01*
Y2737018D01*
X145357Y2738383D01*
X144583Y2739541D01*
X142645Y2741480D01*
X143171Y2742750D01*
X144094D01*
X145107Y2743170D01*
X145190Y2743087D01*
X145190Y2743087D01*
X146182Y2742424D01*
X147353Y2742191D01*
X147353Y2742191D01*
X157840D01*
Y2740098D01*
X182160D01*
Y2750702D01*
X157840D01*
Y2748309D01*
X148620D01*
X148500Y2748429D01*
Y2749344D01*
X147663Y2751365D01*
X146116Y2752913D01*
X144094Y2753750D01*
X141906D01*
X139885Y2752913D01*
X138337Y2751365D01*
X137500Y2749344D01*
Y2748421D01*
X136230Y2747895D01*
X126280Y2757845D01*
Y2763402D01*
X101960D01*
Y2752798D01*
X121233D01*
X122156Y2751875D01*
X121670Y2750702D01*
X101960D01*
Y2749302D01*
X100690Y2749107D01*
X98819Y2750978D01*
Y2766522D01*
X114228Y2781931D01*
X157250D01*
X158616Y2782203D01*
X159773Y2782977D01*
X178023Y2801227D01*
X178797Y2802384D01*
X179069Y2803750D01*
Y2980500D01*
X178797Y2981866D01*
X178023Y2983023D01*
X175000Y2986047D01*
Y2987594D01*
X174163Y2989615D01*
X172616Y2991163D01*
X170594Y2992000D01*
D02*
G37*
G36*
X186594Y2764000D02*
X184406D01*
X183361Y2763567D01*
X182160Y2763402D01*
X182160Y2763402D01*
X182160Y2763402D01*
X157840D01*
Y2752798D01*
X182160D01*
Y2752798D01*
X183430Y2753404D01*
X184406Y2753000D01*
X186594D01*
X188615Y2753837D01*
X190163Y2755385D01*
X191000Y2757406D01*
Y2759594D01*
X190163Y2761616D01*
X188615Y2763163D01*
X186594Y2764000D01*
D02*
G37*
G36*
X196594Y2739250D02*
X194406D01*
X192384Y2738413D01*
X190837Y2736866D01*
X190814Y2736809D01*
X182160D01*
Y2738002D01*
X157840D01*
Y2727398D01*
X182160D01*
Y2730691D01*
X190814D01*
X190837Y2730634D01*
X192384Y2729088D01*
X194406Y2728250D01*
X196594D01*
X198615Y2729088D01*
X200163Y2730634D01*
X201000Y2732656D01*
Y2734844D01*
X200163Y2736866D01*
X198615Y2738413D01*
X196594Y2739250D01*
D02*
G37*
G36*
X170344Y2191000D02*
X168156D01*
X166134Y2190163D01*
X164587Y2188616D01*
X163750Y2186594D01*
Y2184406D01*
X164587Y2182384D01*
X166134Y2180837D01*
X168156Y2180000D01*
X169703D01*
X186181Y2163522D01*
Y1997483D01*
X185008Y1996997D01*
X171319Y2010687D01*
Y2077790D01*
X172413Y2078884D01*
X173250Y2080906D01*
Y2083094D01*
X172413Y2085116D01*
X170865Y2086663D01*
X168844Y2087500D01*
X166656D01*
X164634Y2086663D01*
X163087Y2085116D01*
X162250Y2083094D01*
Y2080906D01*
X163087Y2078884D01*
X164181Y2077790D01*
Y2009209D01*
X164453Y2007843D01*
X165227Y2006685D01*
X181181Y1990731D01*
Y1977525D01*
X180008Y1977039D01*
X173000Y1984047D01*
Y1985594D01*
X172163Y1987616D01*
X170616Y1989163D01*
X168594Y1990000D01*
X166406D01*
X164384Y1989163D01*
X162837Y1987616D01*
X162000Y1985594D01*
Y1983406D01*
X162837Y1981384D01*
X164384Y1979837D01*
X166406Y1979000D01*
X167953D01*
X176181Y1970772D01*
Y1919047D01*
X158853Y1901718D01*
X157355Y1902016D01*
X156913Y1903084D01*
X155365Y1904631D01*
X153344Y1905468D01*
X151156D01*
X149135Y1904631D01*
X148040Y1903537D01*
X106843D01*
X105478Y1903265D01*
X104320Y1902491D01*
X88727Y1886898D01*
X87953Y1885741D01*
X87682Y1884375D01*
Y1844500D01*
X87953Y1843134D01*
X88727Y1841977D01*
X107840Y1822863D01*
Y1817398D01*
X132160D01*
Y1828002D01*
X118543D01*
X118198Y1828071D01*
X112726D01*
X111872Y1828925D01*
X112358Y1830098D01*
X132160D01*
Y1840702D01*
X108781D01*
X107999Y1841651D01*
X108474Y1842798D01*
X108866Y1842798D01*
X132160D01*
Y1853402D01*
X107840D01*
Y1853360D01*
X106570Y1852834D01*
X104819Y1854586D01*
Y1858996D01*
X106089Y1859675D01*
X106642Y1859305D01*
X107840Y1859067D01*
Y1855498D01*
X132160D01*
Y1861492D01*
X133333Y1861978D01*
X144371Y1850940D01*
Y1838560D01*
X144643Y1837194D01*
X145417Y1836037D01*
X160454Y1820999D01*
X161612Y1820226D01*
X162977Y1819954D01*
X163720D01*
Y1817398D01*
X188040D01*
Y1818112D01*
X209360D01*
X210884Y1816587D01*
X212906Y1815750D01*
X215094D01*
X217115Y1816587D01*
X218663Y1818134D01*
X219500Y1820156D01*
Y1822344D01*
X218663Y1824366D01*
X217115Y1825913D01*
X215094Y1826750D01*
X214047D01*
X213765Y1826939D01*
X212009Y1827288D01*
X188040D01*
Y1828002D01*
X163720D01*
X163720Y1828002D01*
Y1828002D01*
X162800Y1828746D01*
X151509Y1840038D01*
Y1852418D01*
X151237Y1853784D01*
X150463Y1854941D01*
X132160Y1873245D01*
Y1878802D01*
X133182Y1879400D01*
X161468D01*
X162589Y1879622D01*
X163226Y1879257D01*
X163629Y1878833D01*
X163720Y1877852D01*
X163720Y1877573D01*
Y1868198D01*
X186221D01*
X187906Y1867500D01*
X190094D01*
X192115Y1868337D01*
X193663Y1869884D01*
X194500Y1871906D01*
Y1874094D01*
X193663Y1876116D01*
X192115Y1877663D01*
X190094Y1878500D01*
X188040D01*
Y1878802D01*
X164963D01*
X164951Y1878802D01*
X164951Y1878802D01*
X164827Y1878802D01*
X163738Y1880038D01*
X163771Y1880297D01*
X163992Y1880445D01*
X192273Y1908727D01*
X193047Y1909884D01*
X193319Y1911250D01*
Y2165000D01*
X193047Y2166366D01*
X192273Y2167523D01*
X174750Y2185047D01*
Y2186594D01*
X173913Y2188616D01*
X172365Y2190163D01*
X170344Y2191000D01*
D02*
G37*
G36*
X159594Y1866750D02*
X157406D01*
X155385Y1865913D01*
X153837Y1864366D01*
X153000Y1862344D01*
Y1860156D01*
X153837Y1858134D01*
X155385Y1856587D01*
X157406Y1855750D01*
X159594D01*
X161616Y1856587D01*
X162450Y1857422D01*
X163720Y1856896D01*
Y1855498D01*
X188040D01*
Y1866102D01*
X163720D01*
Y1865604D01*
X162450Y1865078D01*
X161616Y1865913D01*
X159594Y1866750D01*
D02*
G37*
G36*
X193344Y1854250D02*
X191156D01*
X189280Y1853473D01*
X188040Y1853402D01*
X188040Y1853402D01*
X188040Y1853402D01*
X163720D01*
Y1842798D01*
X188040D01*
Y1843522D01*
X189310Y1844015D01*
X191156Y1843250D01*
X193344D01*
X195366Y1844087D01*
X196913Y1845634D01*
X197750Y1847656D01*
Y1849844D01*
X196913Y1851866D01*
X195366Y1853413D01*
X193344Y1854250D01*
D02*
G37*
G36*
X203594Y1840750D02*
X201406D01*
X199384Y1839913D01*
X197837Y1838365D01*
X197814Y1838309D01*
X188040D01*
Y1840702D01*
X163720D01*
Y1830098D01*
X188040D01*
Y1832191D01*
X197814D01*
X197837Y1832135D01*
X199384Y1830587D01*
X201406Y1829750D01*
X203594D01*
X205616Y1830587D01*
X207163Y1832135D01*
X208000Y1834156D01*
Y1836344D01*
X207163Y1838365D01*
X205616Y1839913D01*
X203594Y1840750D01*
D02*
G37*
G36*
X195094Y1815500D02*
X192906D01*
X190884Y1814663D01*
X189337Y1813116D01*
X189314Y1813059D01*
X188040D01*
Y1815302D01*
X163720D01*
Y1804698D01*
X188040D01*
Y1806941D01*
X189314D01*
X189337Y1806884D01*
X190884Y1805337D01*
X192906Y1804500D01*
X195094D01*
X197115Y1805337D01*
X198663Y1806884D01*
X199500Y1808906D01*
Y1811094D01*
X198663Y1813116D01*
X197115Y1814663D01*
X195094Y1815500D01*
D02*
G37*
G36*
X132160Y1815302D02*
X107840D01*
Y1804698D01*
X132160D01*
Y1806431D01*
X138022D01*
X143750Y1800703D01*
Y1799156D01*
X144587Y1797135D01*
X146135Y1795587D01*
X148156Y1794750D01*
X150344D01*
X152366Y1795587D01*
X153913Y1797135D01*
X154750Y1799156D01*
Y1801344D01*
X153913Y1803365D01*
X152366Y1804913D01*
X150344Y1805750D01*
X148797D01*
X142023Y1812523D01*
X140866Y1813297D01*
X139500Y1813569D01*
X132160D01*
Y1815302D01*
D02*
G37*
G36*
X169094Y1392750D02*
X166906D01*
X164884Y1391913D01*
X163337Y1390365D01*
X162500Y1388344D01*
Y1386156D01*
X163337Y1384135D01*
X164884Y1382587D01*
X164941Y1382564D01*
Y1292193D01*
X164941Y1292192D01*
X165174Y1291022D01*
X165837Y1290029D01*
X166760Y1289107D01*
X166462Y1287609D01*
X165385Y1287163D01*
X163837Y1285616D01*
X163000Y1283594D01*
Y1281406D01*
X163837Y1279385D01*
X165385Y1277837D01*
X165441Y1277814D01*
Y1197250D01*
X165441Y1197250D01*
X165674Y1196079D01*
X166337Y1195087D01*
X168904Y1192520D01*
X168378Y1191250D01*
X166906D01*
X164884Y1190413D01*
X163337Y1188866D01*
X162500Y1186844D01*
Y1184656D01*
X163337Y1182635D01*
X164884Y1181087D01*
X166906Y1180250D01*
X169094D01*
X169151Y1180274D01*
X176691Y1172733D01*
Y1086085D01*
X175945Y1085480D01*
X174590Y1085834D01*
X174163Y1086865D01*
X172616Y1088413D01*
X170594Y1089250D01*
X168406D01*
X166385Y1088413D01*
X164837Y1086865D01*
X164000Y1084844D01*
Y1082656D01*
X164023Y1082599D01*
X153251Y1071827D01*
X99011D01*
X99011Y1071827D01*
X97840Y1071594D01*
X96848Y1070931D01*
X96848Y1070931D01*
X85837Y1059920D01*
X85174Y1058928D01*
X84941Y1057757D01*
X84941Y1057757D01*
Y1015500D01*
X84941Y1015500D01*
X85174Y1014329D01*
X85837Y1013337D01*
X100964Y998210D01*
X101957Y997547D01*
X102956Y997348D01*
Y994096D01*
X127276D01*
Y1004700D01*
X103126D01*
X99495Y1008331D01*
X100121Y1009501D01*
X100422Y1009441D01*
X102956D01*
Y1006796D01*
X127276D01*
Y1017400D01*
X102956D01*
Y1015566D01*
X101686Y1015562D01*
X95059Y1022189D01*
Y1026881D01*
X96232Y1027367D01*
X100964Y1022635D01*
X101957Y1021972D01*
X102956Y1021773D01*
Y1019496D01*
X127276D01*
Y1030100D01*
X102956D01*
X102956Y1030100D01*
Y1030100D01*
X101797Y1030454D01*
X99490Y1032761D01*
X99588Y1033691D01*
X100779Y1034517D01*
X101172Y1034439D01*
X101172Y1034439D01*
X102956D01*
Y1032196D01*
X127276D01*
Y1042800D01*
X103059D01*
Y1044896D01*
X127276D01*
Y1046629D01*
X131824D01*
X139487Y1038966D01*
Y1015433D01*
X139759Y1014068D01*
X140532Y1012910D01*
X148172Y1005270D01*
X147646Y1004000D01*
X146906D01*
X144885Y1003163D01*
X143337Y1001616D01*
X142500Y999594D01*
Y997406D01*
X143265Y995558D01*
X137464Y989757D01*
X127276D01*
Y992000D01*
X102956D01*
Y981396D01*
X127276D01*
Y983639D01*
X138731D01*
X138731Y983639D01*
X139902Y983872D01*
X140894Y984535D01*
X149206Y992847D01*
X149206Y992847D01*
X149390Y993123D01*
X151116Y993837D01*
X152663Y995385D01*
X153500Y997406D01*
Y998146D01*
X154770Y998672D01*
X155607Y997835D01*
X156765Y997062D01*
X158130Y996790D01*
X158836D01*
Y994096D01*
X183156D01*
Y996130D01*
X210091D01*
X210884Y995337D01*
X212906Y994500D01*
X215094D01*
X217115Y995337D01*
X218663Y996885D01*
X219500Y998906D01*
Y1001094D01*
X218663Y1003115D01*
X217115Y1004663D01*
X215094Y1005500D01*
X212906D01*
X210884Y1004663D01*
X209489Y1003268D01*
X183156D01*
Y1004700D01*
X158836D01*
X146624Y1016911D01*
Y1040444D01*
X146353Y1041810D01*
X145579Y1042968D01*
X136376Y1052171D01*
X136902Y1053441D01*
X158836D01*
Y1044896D01*
X183156D01*
Y1046441D01*
X190064D01*
X190087Y1046385D01*
X191635Y1044837D01*
X193656Y1044000D01*
X195844D01*
X197866Y1044837D01*
X199413Y1046385D01*
X200250Y1048406D01*
Y1050594D01*
X199413Y1052616D01*
X197866Y1054163D01*
X195844Y1055000D01*
X193656D01*
X191635Y1054163D01*
X190087Y1052616D01*
X190064Y1052559D01*
X183156D01*
Y1055500D01*
X172485D01*
X171999Y1056673D01*
X192663Y1077337D01*
X193326Y1078329D01*
X193559Y1079500D01*
X193559Y1079500D01*
Y1269692D01*
X193559Y1269692D01*
X193326Y1270863D01*
X192663Y1271855D01*
X192663Y1271855D01*
X171059Y1293459D01*
Y1382564D01*
X171115Y1382587D01*
X172663Y1384135D01*
X173500Y1386156D01*
Y1388344D01*
X172663Y1390365D01*
X171115Y1391913D01*
X169094Y1392750D01*
D02*
G37*
G36*
X154594Y1043000D02*
X152406D01*
X150385Y1042163D01*
X148837Y1040615D01*
X148000Y1038594D01*
Y1036406D01*
X148837Y1034385D01*
X150385Y1032837D01*
X152406Y1032000D01*
X154594D01*
X156615Y1032837D01*
X157566Y1033788D01*
X158836Y1033261D01*
Y1032196D01*
X183156D01*
Y1042800D01*
X158836D01*
Y1041739D01*
X157566Y1041212D01*
X156615Y1042163D01*
X154594Y1043000D01*
D02*
G37*
G36*
X183156Y1030100D02*
X158836D01*
Y1019496D01*
X183156D01*
Y1021191D01*
X185064D01*
X185087Y1021134D01*
X186635Y1019587D01*
X188656Y1018750D01*
X190844D01*
X192866Y1019587D01*
X194413Y1021134D01*
X195250Y1023156D01*
Y1025344D01*
X194413Y1027365D01*
X192866Y1028913D01*
X190844Y1029750D01*
X188656D01*
X186635Y1028913D01*
X185087Y1027365D01*
X185064Y1027309D01*
X183156D01*
Y1030100D01*
D02*
G37*
G36*
Y1017400D02*
X158836D01*
Y1006796D01*
X183156D01*
Y1008441D01*
X198564D01*
X198587Y1008384D01*
X200135Y1006837D01*
X202156Y1006000D01*
X204344D01*
X206366Y1006837D01*
X207913Y1008384D01*
X208750Y1010406D01*
Y1012594D01*
X207913Y1014615D01*
X206366Y1016163D01*
X204344Y1017000D01*
X202156D01*
X200135Y1016163D01*
X198587Y1014615D01*
X198564Y1014559D01*
X183156D01*
Y1017400D01*
D02*
G37*
G36*
X197844Y993000D02*
X195656D01*
X193634Y992163D01*
X192087Y990615D01*
X192064Y990559D01*
X183156D01*
Y992000D01*
X158836D01*
Y981396D01*
X183156D01*
Y984441D01*
X192064D01*
X192087Y984385D01*
X193634Y982837D01*
X195656Y982000D01*
X197844D01*
X199865Y982837D01*
X201413Y984385D01*
X202250Y986406D01*
Y988594D01*
X201413Y990615D01*
X199865Y992163D01*
X197844Y993000D01*
D02*
G37*
G36*
X183156Y979300D02*
X158836D01*
Y977057D01*
X155618D01*
X155618Y977057D01*
X154447Y976824D01*
X153455Y976161D01*
X153455Y976161D01*
X147337Y970043D01*
X146674Y969051D01*
X146441Y967880D01*
X146441Y967880D01*
Y960294D01*
X145268Y959808D01*
X129267Y975809D01*
X128275Y976472D01*
X127276Y976671D01*
Y979300D01*
X102956D01*
Y968696D01*
X127276D01*
X127276Y968696D01*
Y968696D01*
X128301Y968123D01*
X163941Y932483D01*
Y919686D01*
X163885Y919663D01*
X162337Y918115D01*
X161500Y916094D01*
Y913906D01*
X162337Y911885D01*
X163885Y910337D01*
X165906Y909500D01*
X168094D01*
X169421Y910050D01*
X170691Y909254D01*
Y825152D01*
X169421Y824304D01*
X168344Y824750D01*
X166156D01*
X166099Y824726D01*
X127334Y863491D01*
Y958996D01*
X127276Y959292D01*
Y966600D01*
X102956D01*
Y955996D01*
X121217D01*
Y862224D01*
X121217Y862224D01*
X121450Y861054D01*
X122113Y860061D01*
X161773Y820401D01*
X161750Y820344D01*
Y818156D01*
X162587Y816134D01*
X164135Y814587D01*
X166156Y813750D01*
X168344D01*
X169421Y814196D01*
X170691Y813348D01*
Y728017D01*
X168151Y725477D01*
X168094Y725500D01*
X165906D01*
X163885Y724663D01*
X162337Y723115D01*
X161500Y721094D01*
Y718906D01*
X162337Y716885D01*
X163885Y715337D01*
X165906Y714500D01*
X168094D01*
X170116Y715337D01*
X171663Y716885D01*
X172500Y718906D01*
Y721094D01*
X172477Y721151D01*
X175913Y724587D01*
X176576Y725580D01*
X176809Y726750D01*
X176809Y726750D01*
Y932657D01*
X176576Y933827D01*
X175913Y934820D01*
X152559Y958174D01*
Y966613D01*
X156884Y970939D01*
X158836D01*
Y968696D01*
X183156D01*
Y979300D01*
D02*
G37*
G36*
X65000Y574000D02*
X49250D01*
Y565250D01*
X65000D01*
Y574000D01*
D02*
G37*
G36*
X46750D02*
X31000D01*
Y565250D01*
X46750D01*
Y574000D01*
D02*
G37*
G36*
Y562750D02*
X31000D01*
Y554000D01*
X46750D01*
Y562750D01*
D02*
G37*
G36*
X253870Y474170D02*
X234630D01*
Y454930D01*
X253870D01*
Y474170D01*
D02*
G37*
G36*
X245516Y448770D02*
X242983D01*
X240537Y448114D01*
X238343Y446848D01*
X238332Y446836D01*
X244250Y440918D01*
X250168Y446836D01*
X250157Y446848D01*
X247963Y448114D01*
X245516Y448770D01*
D02*
G37*
G36*
X251936Y445069D02*
X246018Y439150D01*
X251936Y433232D01*
X251948Y433243D01*
X253214Y435437D01*
X253870Y437883D01*
Y440416D01*
X253214Y442863D01*
X251948Y445057D01*
X251936Y445069D01*
D02*
G37*
G36*
X236564Y445069D02*
X236552Y445057D01*
X235286Y442863D01*
X234630Y440416D01*
Y437883D01*
X235286Y435437D01*
X236552Y433243D01*
X236564Y433232D01*
X242482Y439150D01*
X236564Y445069D01*
D02*
G37*
G36*
X244250Y437382D02*
X238332Y431464D01*
X238343Y431452D01*
X240537Y430186D01*
X242983Y429530D01*
X245516D01*
X247963Y430186D01*
X250157Y431452D01*
X250168Y431464D01*
X244250Y437382D01*
D02*
G37*
G36*
X245516Y423370D02*
X242983D01*
X240537Y422714D01*
X238343Y421448D01*
X236552Y419657D01*
X235286Y417463D01*
X234630Y415017D01*
Y412483D01*
X235286Y410037D01*
X236552Y407843D01*
X238343Y406052D01*
X240537Y404786D01*
X242983Y404130D01*
X245516D01*
X247963Y404786D01*
X250157Y406052D01*
X251948Y407843D01*
X253214Y410037D01*
X253870Y412483D01*
Y415017D01*
X253214Y417463D01*
X251948Y419657D01*
X250157Y421448D01*
X247963Y422714D01*
X245516Y423370D01*
D02*
G37*
G36*
X214094Y274250D02*
X211906D01*
X209884Y273413D01*
X208337Y271866D01*
X208055Y271184D01*
X99594D01*
X98616Y272163D01*
X96594Y273000D01*
X94406D01*
X92385Y272163D01*
X90837Y270616D01*
X90000Y268594D01*
Y266406D01*
X90837Y264384D01*
X92385Y262837D01*
X94406Y262000D01*
X96594D01*
X98616Y262837D01*
X100163Y264384D01*
X100445Y265066D01*
X208906D01*
X209884Y264087D01*
X211906Y263250D01*
X214094D01*
X216115Y264087D01*
X217663Y265634D01*
X218500Y267656D01*
Y269844D01*
X217663Y271866D01*
X216115Y273413D01*
X214094Y274250D01*
D02*
G37*
G36*
X62344Y274500D02*
X60156D01*
X58134Y273663D01*
X56587Y272115D01*
X55750Y270094D01*
Y267906D01*
X56587Y265884D01*
X56941Y265531D01*
Y246058D01*
X56941Y246058D01*
X57174Y244887D01*
X57837Y243895D01*
X103645Y198087D01*
X103645Y198087D01*
X104637Y197424D01*
X105808Y197191D01*
X148564D01*
X148587Y197134D01*
X150134Y195587D01*
X152156Y194750D01*
X154344D01*
X156365Y195587D01*
X157818Y197040D01*
X158257Y196993D01*
X159088Y196653D01*
Y165604D01*
X159088Y165603D01*
X159321Y164433D01*
X159984Y163440D01*
X162773Y160651D01*
X162750Y160594D01*
Y158406D01*
X163587Y156384D01*
X165135Y154837D01*
X167156Y154000D01*
X169344D01*
X171366Y154837D01*
X172913Y156384D01*
X173750Y158406D01*
Y160594D01*
X172913Y162616D01*
X171366Y164163D01*
X169344Y165000D01*
X167156D01*
X167099Y164977D01*
X165205Y166870D01*
Y217853D01*
X165205Y217853D01*
X164973Y219024D01*
X164310Y220016D01*
X164310Y220016D01*
X162477Y221849D01*
X162500Y221906D01*
Y224094D01*
X161663Y226115D01*
X160116Y227663D01*
X158094Y228500D01*
X157688D01*
X157201Y229673D01*
X157413Y229884D01*
X158250Y231906D01*
Y234094D01*
X157413Y236115D01*
X155865Y237663D01*
X153844Y238500D01*
X151656D01*
X149635Y237663D01*
X148087Y236115D01*
X147250Y234094D01*
Y231906D01*
X147274Y231849D01*
X140233Y224809D01*
X132865D01*
X132667Y225007D01*
X131675Y225670D01*
X130505Y225903D01*
X130504Y225903D01*
X124436D01*
X124413Y225959D01*
X122865Y227507D01*
X120844Y228344D01*
X118656D01*
X116635Y227507D01*
X115087Y225959D01*
X114250Y223938D01*
Y221750D01*
X115087Y219729D01*
X116635Y218181D01*
X118656Y217344D01*
X120844D01*
X122865Y218181D01*
X124413Y219729D01*
X124436Y219785D01*
X129237D01*
X129436Y219587D01*
X129436Y219587D01*
X130428Y218924D01*
X131599Y218691D01*
X131599Y218691D01*
X141500D01*
X141500Y218691D01*
X142671Y218924D01*
X143663Y219587D01*
X150948Y226872D01*
X151348Y226793D01*
X151356Y226787D01*
X152026Y225363D01*
X151500Y224094D01*
Y221906D01*
X152337Y219884D01*
X153884Y218337D01*
X155906Y217500D01*
X158094D01*
X158151Y217523D01*
X159088Y216586D01*
Y203847D01*
X158257Y203507D01*
X157818Y203460D01*
X156365Y204913D01*
X154344Y205750D01*
X152156D01*
X150134Y204913D01*
X148587Y203365D01*
X148564Y203309D01*
X107075D01*
X70491Y239892D01*
X71018Y241162D01*
X184560D01*
X184634Y241087D01*
X186656Y240250D01*
X188844D01*
X190865Y241087D01*
X192413Y242635D01*
X193250Y244656D01*
Y246844D01*
X192413Y248866D01*
X190865Y250413D01*
X188844Y251250D01*
X186656D01*
X184634Y250413D01*
X184560Y250338D01*
X71795D01*
X71163Y251866D01*
X69616Y253413D01*
X67594Y254250D01*
X65406D01*
X64329Y253804D01*
X63059Y254652D01*
Y263796D01*
X64366Y264337D01*
X65913Y265884D01*
X66750Y267906D01*
Y270094D01*
X65913Y272115D01*
X64366Y273663D01*
X62344Y274500D01*
D02*
G37*
%LPD*%
G36*
X176941Y645284D02*
Y640848D01*
X156193Y620100D01*
X155020Y620586D01*
Y621267D01*
X154364Y623713D01*
X153098Y625907D01*
X151307Y627698D01*
X149113Y628964D01*
X146666Y629620D01*
X144134D01*
X142663Y629226D01*
X137420Y634468D01*
X137906Y635642D01*
X163955D01*
X165711Y635991D01*
X167199Y636986D01*
X175244Y645031D01*
X175671Y645669D01*
X176941Y645284D01*
D02*
G37*
G36*
X84980Y629620D02*
Y616869D01*
X78699Y610588D01*
X69620D01*
Y622631D01*
X77151Y630162D01*
X83934D01*
X84980Y629620D01*
D02*
G37*
G36*
X136174Y622737D02*
X135780Y621267D01*
Y618733D01*
X136436Y616287D01*
X137702Y614093D01*
X139493Y612302D01*
X141687Y611036D01*
X144134Y610380D01*
X146666D01*
X147496Y610602D01*
X148504Y609829D01*
Y570164D01*
X148447Y570141D01*
X146900Y568593D01*
X146062Y566572D01*
Y564384D01*
X146900Y562363D01*
X148447Y560815D01*
X150468Y559978D01*
X152656D01*
X152827Y560049D01*
X154202Y559418D01*
X154837Y557884D01*
X156384Y556337D01*
X158406Y555500D01*
X158457D01*
X159163Y554444D01*
X159135Y554378D01*
Y552190D01*
X159973Y550168D01*
X161520Y548621D01*
X163541Y547784D01*
X164456D01*
X164750Y547344D01*
Y545156D01*
X165587Y543134D01*
X167134Y541587D01*
X169156Y540750D01*
X171344D01*
X173365Y541587D01*
X174913Y543134D01*
X175750Y545156D01*
Y547344D01*
X174913Y549366D01*
X174194Y550084D01*
Y562412D01*
X175367Y562898D01*
X178172Y560093D01*
Y528756D01*
X176999Y528270D01*
X128855Y576413D01*
X127863Y577076D01*
X126692Y577309D01*
X126692Y577309D01*
X102186D01*
X102163Y577365D01*
X100616Y578913D01*
X98594Y579750D01*
X96406D01*
X94384Y578913D01*
X92837Y577365D01*
X92747Y577148D01*
X91477Y577400D01*
Y582440D01*
X104000D01*
X105827Y582680D01*
X107530Y583386D01*
X108992Y584507D01*
X123990Y599505D01*
X125112Y600967D01*
X125817Y602670D01*
X126058Y604497D01*
Y612453D01*
X127698Y614093D01*
X128964Y616287D01*
X129620Y618733D01*
Y621267D01*
X128964Y623713D01*
X127698Y625907D01*
X125907Y627698D01*
X124864Y628300D01*
X124450Y629995D01*
X124556Y630162D01*
X128750D01*
X136174Y622737D01*
D02*
G37*
G36*
X214428Y60008D02*
X215890Y58885D01*
X217230Y58330D01*
X216977Y57060D01*
X124090D01*
X120304Y60846D01*
X120790Y62020D01*
X212415D01*
X214428Y60008D01*
D02*
G37*
G36*
X187441Y1268425D02*
Y1184294D01*
X186268Y1183808D01*
X171559Y1198517D01*
Y1277814D01*
X171616Y1277837D01*
X173163Y1279385D01*
X173609Y1280462D01*
X175107Y1280760D01*
X187441Y1268425D01*
D02*
G37*
D11*
X163955Y640230D02*
X172000Y648275D01*
X125300Y650000D02*
X135070Y640230D01*
X163955D01*
X172000Y648275D02*
Y672500D01*
X152732Y474250D02*
X170732Y492250D01*
X70500Y474250D02*
X152732D01*
X51500Y350000D02*
X207285D01*
X244250Y386964D02*
Y388350D01*
X207285Y350000D02*
X244250Y386964D01*
X88250Y650000D02*
X125300D01*
X66500Y248679D02*
Y248750D01*
X69429Y245750D02*
X187750D01*
X66500Y248679D02*
X69429Y245750D01*
X175880Y3319200D02*
X219000D01*
X176105Y3357525D02*
X214525D01*
X175880Y3357300D02*
X176105Y3357525D01*
X214525D02*
X214750Y3357750D01*
X170000Y2707300D02*
X170025Y2707275D01*
X214225D01*
X214250Y2707250D01*
X228900Y1784600D02*
X232250Y1781250D01*
X170000Y2669200D02*
X170450Y2668750D01*
X232000D01*
X175880Y1822700D02*
X212009D01*
X213459Y1821250D01*
X214000D01*
X175880Y1784600D02*
X228900D01*
X65120Y625120D02*
X65620D01*
X75250Y634750D02*
X130650D01*
X60000Y620000D02*
X65120Y625120D01*
X65620D02*
X75250Y634750D01*
X130650D02*
X145400Y620000D01*
X41893Y609535D02*
Y609936D01*
X45429Y606000D02*
X80600D01*
X34600Y617229D02*
Y620000D01*
Y617229D02*
X41893Y609936D01*
Y609535D02*
X45429Y606000D01*
X80600D02*
X94600Y620000D01*
D12*
X170035Y1000359D02*
X170996Y999398D01*
X143056Y1015433D02*
X158130Y1000359D01*
X143056Y1015433D02*
Y1040444D01*
X158130Y1000359D02*
X170035D01*
X162977Y1823523D02*
X175057D01*
X147940Y1838560D02*
X162977Y1823523D01*
X175057D02*
X175880Y1822700D01*
X147940Y1838560D02*
Y1852418D01*
X146750Y3392300D02*
X146750Y3392300D01*
Y3373500D02*
X162950Y3357300D01*
X146750Y3373500D02*
Y3392300D01*
X146750Y3392300D02*
Y3397225D01*
X135875Y3408100D02*
X146750Y3397225D01*
X120000Y3408100D02*
X135875D01*
X162950Y3357300D02*
X175880D01*
X120000Y3370000D02*
X135500D01*
X153750Y3299000D02*
Y3351750D01*
X135500Y3370000D02*
X153750Y3351750D01*
Y3299000D02*
X168500Y3284250D01*
X158750Y3304500D02*
Y3330143D01*
X160507Y3331900D01*
X175880D01*
X158750Y3304500D02*
X178250Y3285000D01*
X99750Y3416750D02*
X168000Y3485000D01*
X99750Y3389507D02*
X105340Y3383918D01*
X99750Y3389507D02*
Y3416750D01*
X93250Y3368250D02*
X104200Y3357300D01*
X93250Y3422250D02*
X170250Y3499250D01*
X93250Y3368250D02*
Y3422250D01*
X86250Y3359000D02*
Y3425250D01*
X163250Y3502250D02*
Y3584425D01*
X86250Y3425250D02*
X163250Y3502250D01*
X170250Y3499250D02*
Y3627063D01*
X104200Y3357300D02*
X120000D01*
X175250Y3482350D02*
Y3629134D01*
X106000Y3413101D02*
X175250Y3482350D01*
X168250Y3636134D02*
X175250Y3629134D01*
X106798Y3397202D02*
X118198D01*
X106000Y3398000D02*
Y3413101D01*
X118198Y3397202D02*
X120000Y3395400D01*
X106000Y3398000D02*
X106798Y3397202D01*
X161250Y3636063D02*
X170250Y3627063D01*
X161250Y3636063D02*
Y3698000D01*
X188500Y3725250D01*
Y3780500D01*
X168250Y3636134D02*
Y3683000D01*
X100650Y3344600D02*
X120000D01*
X86250Y3359000D02*
X100650Y3344600D01*
X105340Y3383918D02*
X118783D01*
X120000Y3382700D01*
X178250Y3133000D02*
Y3285000D01*
X169250Y3124000D02*
X178250Y3133000D01*
X134660Y3331900D02*
X139510Y3336750D01*
X140500D01*
X120000Y3331900D02*
X134660D01*
X120000Y3266000D02*
Y3319200D01*
Y3266000D02*
X168250Y3217750D01*
X175500Y2803750D02*
Y2980500D01*
X169500Y2986500D02*
X175500Y2980500D01*
X99350Y2745400D02*
X114120D01*
X95250Y2749500D02*
Y2768000D01*
Y2749500D02*
X99350Y2745400D01*
X112179Y2792000D02*
X153399D01*
X99460Y2720000D02*
X114120D01*
X113108Y2800000D02*
X151500D01*
X85250Y2734210D02*
X99460Y2720000D01*
X85250Y2772142D02*
X113108Y2800000D01*
X85250Y2734210D02*
Y2772142D01*
X90250Y2770071D02*
X112179Y2792000D01*
X95250Y2768000D02*
X112750Y2785500D01*
X90250Y2745086D02*
Y2770071D01*
X100168Y2739794D02*
X107262Y2732700D01*
X112750Y2785500D02*
X157250D01*
X90250Y2745086D02*
X95542Y2739794D01*
X100168D01*
X107262Y2732700D02*
X114120D01*
X157250Y2785500D02*
X175500Y2803750D01*
X153399Y2792000D02*
X168500Y2807101D01*
Y2888500D01*
X114120Y2707300D02*
X145450D01*
X151750Y2701000D01*
X167750Y2321000D02*
X182000Y2335250D01*
Y2639000D01*
X158602Y2662398D02*
X182000Y2639000D01*
X158390Y2662398D02*
X158602D01*
X156340Y2675098D02*
X163142Y2681900D01*
X170000D01*
X156340Y2664448D02*
X158390Y2662398D01*
X148390Y2665327D02*
Y2667188D01*
X156340Y2664448D02*
Y2675098D01*
X120978Y2694600D02*
X148390Y2667188D01*
X174000Y2622000D02*
Y2639717D01*
X148390Y2665327D02*
X174000Y2639717D01*
X120978Y2681900D02*
X166500Y2636378D01*
Y2516750D02*
Y2636378D01*
X114120Y2694600D02*
X120978D01*
X114120Y2681900D02*
X120978D01*
Y2669200D02*
X122780Y2667398D01*
X114120Y2669200D02*
X120978D01*
X122780Y2466970D02*
Y2667398D01*
Y2466970D02*
X167000Y2422750D01*
X114120Y2758100D02*
X120978D01*
X142060Y2737018D01*
Y2728382D02*
Y2737018D01*
Y2728382D02*
X163142Y2707300D01*
X170000D01*
X168500Y1519750D02*
X188250Y1539500D01*
X162220Y1769009D02*
Y1790498D01*
Y1769009D02*
X188250Y1742979D01*
Y1539500D02*
Y1742979D01*
X169022Y1797300D02*
X175880D01*
X162220Y1790498D02*
X169022Y1797300D01*
X189750Y1911250D02*
Y2165000D01*
X161468Y1882968D02*
X189750Y1911250D01*
X111056Y1882968D02*
X161468D01*
X106843Y1899968D02*
X152250D01*
X157220Y1887968D02*
X184750Y1915498D01*
X179750Y1917569D02*
Y1972250D01*
X108985Y1887968D02*
X157220D01*
X155149Y1892968D02*
X179750Y1917569D01*
X184750Y1915498D02*
Y1992209D01*
X106914Y1892968D02*
X155149D01*
X91250Y1884375D02*
X106843Y1899968D01*
X108007Y1862602D02*
X118198D01*
X106250Y1864359D02*
Y1878162D01*
Y1864359D02*
X108007Y1862602D01*
X118198D02*
X120000Y1860800D01*
X91250Y1844500D02*
X111248Y1824502D01*
X101250Y1880233D02*
X108985Y1887968D01*
X96250Y1848179D02*
Y1882304D01*
Y1848179D02*
X107601Y1836828D01*
X96250Y1882304D02*
X106914Y1892968D01*
X106250Y1878162D02*
X111056Y1882968D01*
X101250Y1853107D02*
X106257Y1848100D01*
X101250Y1853107D02*
Y1880233D01*
X91250Y1844500D02*
Y1884375D01*
X169250Y2185500D02*
X189750Y2165000D01*
X167500Y1984500D02*
X179750Y1972250D01*
X167750Y2009209D02*
X184750Y1992209D01*
X111248Y1824502D02*
X118198D01*
X120000Y1822700D01*
X118573Y1836828D02*
X120000Y1835400D01*
X107601Y1836828D02*
X118573D01*
X106257Y1848100D02*
X120000D01*
X167750Y2009209D02*
Y2082000D01*
X126858Y1873500D02*
X147940Y1852418D01*
X120000Y1784600D02*
X126858D01*
X128660Y1782798D01*
Y1660340D02*
Y1782798D01*
Y1660340D02*
X166750Y1622250D01*
X120000Y1797300D02*
X126858D01*
X168250Y1755908D01*
Y1720500D02*
Y1755908D01*
X120000Y1810000D02*
X139500D01*
X149250Y1800250D01*
X120000Y1873500D02*
X126858D01*
X115116Y1050198D02*
X133302D01*
X143056Y1040444D01*
X170996Y961298D02*
X232048D01*
X232250Y961500D01*
X170996Y999398D02*
X171297Y999699D01*
X213699D02*
X214000Y1000000D01*
X171297Y999699D02*
X213699D01*
D13*
X-0Y0D02*
Y3900000D01*
X290000D01*
X290000Y0D01*
X-0D02*
X290000D01*
D14*
X145000D02*
Y3899750D01*
D61*
X208000Y378686D02*
Y561250D01*
X203564Y374250D02*
X208000Y378686D01*
X216500Y428500D02*
X226141Y438141D01*
Y480909D01*
X208000Y561250D02*
X213250Y566500D01*
X146000Y500915D02*
Y545500D01*
X145750Y545750D02*
X146000Y545500D01*
X90000Y358250D02*
X113332D01*
X163500Y338500D02*
X163625Y338625D01*
X198125D02*
X198250Y338750D01*
X163625Y338625D02*
X198125D01*
X113332Y358250D02*
X158015Y402933D01*
X193250Y643500D02*
X194543Y644793D01*
X188668Y671918D02*
X189624Y672874D01*
X194543Y644793D02*
Y650043D01*
X187250Y641174D02*
Y665374D01*
X188668Y666792D02*
Y671918D01*
X187250Y665374D02*
X188668Y666792D01*
X194543Y650043D02*
X195500Y651000D01*
X193250Y641517D02*
Y643500D01*
X165500Y606250D02*
X203000Y643750D01*
X165500Y571436D02*
Y606250D01*
X203000Y643750D02*
Y644000D01*
X169750Y374250D02*
X203564D01*
X162875Y293125D02*
X189125D01*
X162750Y293250D02*
X162875Y293125D01*
X189125D02*
X189250Y293000D01*
X119750Y222844D02*
X130505D01*
X131599Y221750D02*
X141500D01*
X130505Y222844D02*
X131599Y221750D01*
X162147Y165603D02*
Y217853D01*
Y165603D02*
X168250Y159500D01*
X157000Y223000D02*
X162147Y217853D01*
X96125Y268125D02*
X212375D01*
X213000Y268750D01*
X95500Y267500D02*
X96125Y268125D01*
X61250Y267647D02*
Y269000D01*
X60000Y266397D02*
X61250Y267647D01*
X60000Y246058D02*
Y266397D01*
Y246058D02*
X105808Y200250D01*
X153250D01*
X141500Y221750D02*
X152750Y233000D01*
X155618Y973998D02*
X170996D01*
X149500Y956907D02*
Y967880D01*
X155618Y973998D01*
X147043Y995010D02*
Y997543D01*
X115116Y986698D02*
X138731D01*
X147043Y995010D01*
X171544Y1024250D02*
X189750D01*
X170996Y1024798D02*
X171544Y1024250D01*
X180043Y678940D02*
Y681293D01*
X180000Y678897D02*
X180043Y678940D01*
Y681293D02*
X181000Y682250D01*
X180000Y639581D02*
Y678897D01*
X176380Y1873000D02*
X189000D01*
X153750Y3395200D02*
X175680D01*
X175880Y3395400D01*
X171135Y547135D02*
Y565801D01*
X126692Y574250D02*
X177232Y523710D01*
Y423732D02*
Y523710D01*
X170250Y546250D02*
X171135Y547135D01*
X97500Y574250D02*
X126692D01*
X175880Y3344600D02*
X176530Y3345250D01*
X190750D01*
X175880Y3370000D02*
X178130Y3367750D01*
X205250D01*
X171050Y2733750D02*
X195500D01*
X170000Y2732700D02*
X171050Y2733750D01*
X144353Y2748250D02*
X147353Y2745250D01*
X169850D01*
X143000Y2748250D02*
X144353D01*
X169850Y2745250D02*
X170000Y2745400D01*
X175880Y1810000D02*
X194000D01*
X173750Y726750D02*
Y932657D01*
X167000Y720000D02*
X173750Y726750D01*
X147043Y997543D02*
X148000Y998500D01*
X115116Y973998D02*
X115468Y973646D01*
X149500Y956907D02*
X173750Y932657D01*
X115468Y973646D02*
X127104D01*
X167000Y933750D01*
Y915000D02*
Y933750D01*
X101172Y1037498D02*
X115116D01*
X100000Y1038670D02*
Y1052787D01*
Y1038670D02*
X101172Y1037498D01*
X88000Y1015500D02*
X103127Y1000373D01*
X102056Y1060500D02*
X161657D01*
X100399Y1064500D02*
X160000D01*
X92000Y1020922D02*
X100422Y1012500D01*
X103713Y1056500D02*
X109370D01*
X96000Y1031925D02*
X103127Y1024798D01*
X92000Y1020922D02*
Y1056101D01*
X99011Y1068768D02*
X154518D01*
X92000Y1056101D02*
X100399Y1064500D01*
X88000Y1057757D02*
X99011Y1068768D01*
X96000Y1031925D02*
Y1054444D01*
X102056Y1060500D01*
X100000Y1052787D02*
X103713Y1056500D01*
X88000Y1015500D02*
Y1057757D01*
X109370Y1056500D02*
X109370Y1056500D01*
X167500D01*
X160000Y1064500D02*
X179750Y1084250D01*
X154518Y1068768D02*
X169500Y1083750D01*
X161657Y1060500D02*
X186500Y1085343D01*
X179750Y1084250D02*
Y1174000D01*
X186500Y1085343D02*
Y1179250D01*
X167500Y1056500D02*
X190500Y1079500D01*
Y1269692D01*
X168000Y1292192D02*
X190500Y1269692D01*
X168000Y1292192D02*
Y1387250D01*
X168500Y1197250D02*
X186500Y1179250D01*
X168500Y1197250D02*
Y1282500D01*
X168000Y1185750D02*
X179750Y1174000D01*
X103127Y1024798D02*
X115116D01*
X100422Y1012500D02*
X114714D01*
X115116Y1012098D01*
X153500Y1037500D02*
X170994D01*
X170996Y1037498D01*
X103127Y1000373D02*
X114141D01*
X115116Y999398D01*
X124276Y862224D02*
X167250Y819250D01*
X124276Y862224D02*
Y958996D01*
X115116Y961298D02*
X121974D01*
X124276Y958996D01*
X170400Y2758500D02*
X185500D01*
X170000Y2758100D02*
X170400Y2758500D01*
X175880Y3382700D02*
X176430Y3383250D01*
X195000D01*
X170000Y2694600D02*
X170850Y2693750D01*
X187500D01*
X171000Y2721000D02*
X203500D01*
X170000Y2720000D02*
X171000Y2721000D01*
X175880Y1873500D02*
X176380Y1873000D01*
X157500Y611424D02*
X187250Y641174D01*
X161500Y609767D02*
X193250Y641517D01*
X170996Y986698D02*
X171798Y987500D01*
X196750D01*
X170996Y1012098D02*
X171594Y1011500D01*
X203250D01*
X176530Y1848750D02*
X192250D01*
X175880Y1848100D02*
X176530Y1848750D01*
X175880Y1835400D02*
X176030Y1835250D01*
X202500D01*
X171694Y1049500D02*
X194750D01*
X170996Y1050198D02*
X171694Y1049500D01*
X151562Y611143D02*
X180000Y639581D01*
X161500Y569780D02*
Y609767D01*
X158500Y1861250D02*
X175430D01*
X175880Y1860800D01*
X157500Y568123D02*
Y611424D01*
X151562Y565478D02*
Y611143D01*
X165592Y554240D02*
Y557900D01*
X157500Y568123D02*
X158543Y567079D01*
X165500Y571436D02*
X171135Y565801D01*
X158543Y561957D02*
Y567079D01*
X161500Y569780D02*
X166000Y565279D01*
X165592Y557900D02*
X166000Y558308D01*
X164635Y553284D02*
X165592Y554240D01*
X158543Y561957D02*
X159500Y561000D01*
X166000Y558308D02*
Y565279D01*
X164138Y1024798D02*
X170996D01*
X134055Y488970D02*
X146000Y500915D01*
X93000Y523250D02*
Y541750D01*
Y523250D02*
X103500Y512750D01*
X159820Y406320D02*
X177232Y423732D01*
X61250Y470500D02*
Y501250D01*
Y470500D02*
X76250Y455500D01*
D62*
X200000Y386000D02*
Y596750D01*
X202750Y599500D01*
X114085Y57080D02*
X121165Y50000D01*
X210000D01*
X235080Y62497D02*
Y108830D01*
X235250Y109000D01*
X210000Y50000D02*
X222584D01*
X235080Y62497D01*
X33000Y146750D02*
Y516101D01*
X84417Y567517D01*
Y589500D01*
X33000Y146750D02*
X110670Y69080D01*
X160020Y649730D02*
Y685270D01*
X219000Y3319200D02*
X227550D01*
X232000Y3314750D01*
X110670Y69080D02*
X215340D01*
X219420Y65000D01*
X232000Y2668750D02*
Y3314750D01*
X232250Y1781250D02*
Y2668500D01*
Y961500D02*
Y1781250D01*
X232000Y2668750D02*
X232250Y2668500D01*
Y757500D02*
Y961500D01*
X160020Y685270D02*
X232250Y757500D01*
X173500Y574750D02*
X185232Y563018D01*
Y420232D02*
Y563018D01*
X168500Y403500D02*
X185232Y420232D01*
X84417Y589500D02*
X104000D01*
X48000D02*
X84417D01*
X118997Y604497D02*
Y618997D01*
X120000Y620000D01*
X104000Y589500D02*
X118997Y604497D01*
D63*
X244250Y464550D02*
D03*
D64*
Y413750D02*
D03*
Y388350D02*
D03*
Y439150D02*
D03*
X34600Y620000D02*
D03*
X120000D02*
D03*
X145400D02*
D03*
D65*
X60000D02*
D03*
X94600D02*
D03*
D66*
X160020Y649730D02*
D03*
X200000Y386000D02*
D03*
X216500Y428500D02*
D03*
X145750Y545750D02*
D03*
X170732Y492250D02*
D03*
X114085Y57080D02*
D03*
X235250Y109000D02*
D03*
X226141Y480909D02*
D03*
X70250Y573750D02*
D03*
X44500Y546750D02*
D03*
X163500Y338500D02*
D03*
X90000Y358250D02*
D03*
X198250Y338750D02*
D03*
X88250Y650000D02*
D03*
X172000Y672500D02*
D03*
X189624Y672874D02*
D03*
X195500Y651000D02*
D03*
X213250Y566500D02*
D03*
X169750Y374250D02*
D03*
X162750Y293250D02*
D03*
X189250Y293000D02*
D03*
X119750Y222844D02*
D03*
X157000Y223000D02*
D03*
X168250Y159500D02*
D03*
X95500Y267500D02*
D03*
X213000Y268750D02*
D03*
X66500Y248750D02*
D03*
X153250Y200250D02*
D03*
X152750Y233000D02*
D03*
X189750Y1024250D02*
D03*
X181000Y682250D02*
D03*
X189000Y1873000D02*
D03*
X153750Y3395200D02*
D03*
X28000Y545500D02*
D03*
X170250Y546250D02*
D03*
X163250Y3584425D02*
D03*
X168000Y3485000D02*
D03*
X188500Y3780500D02*
D03*
X168250Y3683000D02*
D03*
X190750Y3345250D02*
D03*
X205250Y3367750D02*
D03*
X169250Y3124000D02*
D03*
X140500Y3336750D02*
D03*
X168250Y3217750D02*
D03*
X168500Y3284250D02*
D03*
X214750Y3357750D02*
D03*
X151500Y2800000D02*
D03*
X169500Y2986500D02*
D03*
X168500Y2888500D02*
D03*
X195500Y2733750D02*
D03*
X143000Y2748250D02*
D03*
X151750Y2701000D02*
D03*
X167750Y2321000D02*
D03*
X174000Y2622000D02*
D03*
X166500Y2516750D02*
D03*
X167000Y2422750D02*
D03*
X214250Y2707250D02*
D03*
X168500Y1519750D02*
D03*
X152250Y1899968D02*
D03*
X169250Y2185500D02*
D03*
X167750Y2082000D02*
D03*
X167500Y1984500D02*
D03*
X166750Y1622250D02*
D03*
X168250Y1720500D02*
D03*
X149250Y1800250D02*
D03*
X194000Y1810000D02*
D03*
X214000Y1821250D02*
D03*
X148000Y998500D02*
D03*
X167000Y720000D02*
D03*
X168500Y1282500D02*
D03*
X169500Y1083750D02*
D03*
X168000Y1185750D02*
D03*
Y1387250D02*
D03*
X153500Y1037500D02*
D03*
X167250Y819250D02*
D03*
X167000Y915000D02*
D03*
X185500Y2758500D02*
D03*
X195000Y3383250D02*
D03*
X187500Y2693750D02*
D03*
X203500Y2721000D02*
D03*
X196750Y987500D02*
D03*
X203250Y1011500D02*
D03*
X203000Y644000D02*
D03*
X192250Y1848750D02*
D03*
X202500Y1835250D02*
D03*
X194750Y1049500D02*
D03*
X214000Y1000000D02*
D03*
X158500Y1861250D02*
D03*
X151562Y565478D02*
D03*
X159500Y561000D02*
D03*
X164635Y553284D02*
D03*
X134055Y488970D02*
D03*
X93000Y541750D02*
D03*
X103500Y512750D02*
D03*
X202750Y599500D02*
D03*
X61250Y501250D02*
D03*
X76250Y455500D02*
D03*
X168500Y403500D02*
D03*
X158015Y402933D02*
D03*
X173500Y574750D02*
D03*
X97500Y574250D02*
D03*
X70500Y474250D02*
D03*
X51500Y350000D02*
D03*
X219420Y65000D02*
D03*
X187750Y245750D02*
D03*
X61250Y269000D02*
D03*
X210000Y50000D02*
D03*
D67*
X48000Y589500D02*
D03*
Y564000D02*
D03*
D68*
X120000Y3382700D02*
D03*
Y3395400D02*
D03*
Y3408100D02*
D03*
Y3319200D02*
D03*
Y3331900D02*
D03*
Y3344600D02*
D03*
Y3357300D02*
D03*
X175880Y3408100D02*
D03*
Y3395400D02*
D03*
Y3382700D02*
D03*
Y3357300D02*
D03*
Y3344600D02*
D03*
Y3331900D02*
D03*
Y3319200D02*
D03*
X120000Y3370000D02*
D03*
X175880D02*
D03*
X170000Y2720000D02*
D03*
X114120D02*
D03*
X170000Y2669200D02*
D03*
Y2681900D02*
D03*
Y2694600D02*
D03*
Y2707300D02*
D03*
Y2732700D02*
D03*
Y2745400D02*
D03*
Y2758100D02*
D03*
X114120Y2707300D02*
D03*
Y2694600D02*
D03*
Y2681900D02*
D03*
Y2669200D02*
D03*
Y2758100D02*
D03*
Y2745400D02*
D03*
Y2732700D02*
D03*
X120000Y1848100D02*
D03*
Y1860800D02*
D03*
Y1873500D02*
D03*
Y1784600D02*
D03*
Y1797300D02*
D03*
Y1810000D02*
D03*
Y1822700D02*
D03*
X175880Y1873500D02*
D03*
Y1860800D02*
D03*
Y1848100D02*
D03*
Y1822700D02*
D03*
Y1810000D02*
D03*
Y1797300D02*
D03*
Y1784600D02*
D03*
X120000Y1835400D02*
D03*
X175880D02*
D03*
X115116Y1024798D02*
D03*
Y1037498D02*
D03*
Y1050198D02*
D03*
Y961298D02*
D03*
Y973998D02*
D03*
Y986698D02*
D03*
Y999398D02*
D03*
X170996Y1050198D02*
D03*
Y1037498D02*
D03*
Y1024798D02*
D03*
Y999398D02*
D03*
Y986698D02*
D03*
Y973998D02*
D03*
Y961298D02*
D03*
X115116Y1012098D02*
D03*
X170996D02*
D03*
M02*
