G04*
G04 #@! TF.GenerationSoftware,Altium Limited,Altium Designer,21.2.0 (30)*
G04*
G04 Layer_Color=65535*
%FSLAX44Y44*%
%MOMM*%
G71*
G04*
G04 #@! TF.SameCoordinates,A6DC43CA-0054-425C-8A59-4F5BC2DD46D4*
G04*
G04*
G04 #@! TF.FilePolarity,Positive*
G04*
G01*
G75*
%ADD10C,0.0000*%
%ADD11C,0.5000*%
%ADD12C,0.3000*%
%ADD13C,0.2540*%
%ADD14C,0.1500*%
%ADD15C,0.1270*%
D10*
X167736Y101350D02*
G03*
X167736Y101350I-2236J0D01*
G01*
D11*
X132000Y457000D02*
G03*
X132000Y457000I-2500J0D01*
G01*
D12*
X85250Y435750D02*
G03*
X85250Y435750I-25000J0D01*
G01*
X83412Y335860D02*
X94588D01*
X234412Y563860D02*
X245588D01*
X217162Y546390D02*
X228338D01*
X237110Y484912D02*
Y496088D01*
X95420Y658660D02*
X143680D01*
X95420Y638340D02*
X143680D01*
Y658660D01*
X95420Y638340D02*
Y658660D01*
X80162Y575640D02*
X91338D01*
X151390Y569323D02*
Y580499D01*
X46420Y519000D02*
Y531000D01*
X67750D02*
X76176D01*
Y519000D02*
Y531000D01*
X58420Y515500D02*
X63500D01*
X46420Y531000D02*
X54040D01*
X96890Y468412D02*
Y479588D01*
Y484662D02*
Y495838D01*
X33750Y415250D02*
Y462250D01*
X86750Y415250D02*
Y462250D01*
X33750D02*
X86750D01*
X39750Y409250D02*
X80750D01*
X33750Y415250D02*
X39750Y409250D01*
X80750D02*
X86750Y415250D01*
X112412Y94110D02*
X123588D01*
X107610Y65412D02*
Y76588D01*
X242817Y69110D02*
X253993D01*
X224412D02*
X235588D01*
X231550Y477250D02*
X256950D01*
X231550Y375650D02*
X256950D01*
Y477250D01*
X231550Y375650D02*
Y477250D01*
X209412Y408390D02*
X220588D01*
D13*
X86750Y144736D02*
G03*
X86750Y252255I-53759J53759D01*
G01*
X138000Y283750D02*
X238000D01*
X138000D02*
Y348750D01*
X238000D01*
Y283750D02*
Y348750D01*
X156000Y690000D02*
Y709000D01*
X119000Y690000D02*
X179000D01*
X119000D02*
Y710000D01*
X179000D01*
Y690000D02*
Y710000D01*
X143250Y548250D02*
X156250Y561250D01*
X171500D01*
X121250Y529250D02*
X125000Y533000D01*
Y533250D01*
X143500D01*
X150250Y540000D01*
X170250D01*
X141555Y496470D02*
X161217Y516133D01*
X170476D01*
X116750Y488750D02*
X148500D01*
X125862Y537138D02*
Y545738D01*
X109388Y513858D02*
X117988D01*
X84669Y519722D02*
X93269D01*
X32762Y520612D02*
X41362D01*
X81167Y485073D02*
Y489073D01*
X79167Y487073D02*
X83167D01*
X127830Y496470D02*
Y512470D01*
Y496470D02*
X135080D01*
X142830D01*
Y512470D01*
Y528470D01*
X135330D02*
X142330D01*
X135330D02*
X142330D01*
X127830D02*
X135330D01*
X127830Y512470D02*
Y528470D01*
X68858Y385762D02*
Y394362D01*
Y365762D02*
Y374362D01*
X128762Y76112D02*
X137362D01*
X144250Y3894750D02*
X189250D01*
X99250D02*
X144250D01*
X99250Y3851500D02*
X189250D01*
X99250D02*
Y3894750D01*
X189250D01*
Y3851500D02*
Y3894750D01*
X188638Y29108D02*
X197238D01*
X201000Y40000D02*
Y44000D01*
X199000Y42000D02*
X203000D01*
X200953Y22236D02*
Y26236D01*
X198953Y24236D02*
X202953D01*
X86750Y252255D02*
Y272000D01*
Y124500D02*
Y144736D01*
X127888Y272000D02*
X181750D01*
X127806Y125556D02*
X181668D01*
X86750Y124500D02*
X99250D01*
X86750Y272000D02*
X99250D01*
X210750Y125500D02*
X232750D01*
Y271750D01*
X209500D02*
X232750D01*
X156000Y3790000D02*
Y3809000D01*
X119000Y3790000D02*
X179000D01*
X119000D02*
Y3810000D01*
X179000D01*
Y3790000D02*
Y3810000D01*
X156000Y3690000D02*
Y3709000D01*
X119000Y3690000D02*
X179000D01*
X119000D02*
Y3710000D01*
X179000D01*
Y3690000D02*
Y3710000D01*
X156000Y3590000D02*
Y3609000D01*
X119000Y3590000D02*
X179000D01*
X119000D02*
Y3610000D01*
X179000D01*
Y3590000D02*
Y3610000D01*
X156000Y3490000D02*
Y3509000D01*
X119000Y3490000D02*
X179000D01*
X119000D02*
Y3510000D01*
X179000D01*
Y3490000D02*
Y3510000D01*
X156000Y3390000D02*
Y3409000D01*
X119000Y3390000D02*
X179000D01*
X119000D02*
Y3410000D01*
X179000D01*
Y3390000D02*
Y3410000D01*
X156000Y3290000D02*
Y3309000D01*
X119000Y3290000D02*
X179000D01*
X119000D02*
Y3310000D01*
X179000D01*
Y3290000D02*
Y3310000D01*
X156000Y3190000D02*
Y3209000D01*
X119000Y3190000D02*
X179000D01*
X119000D02*
Y3210000D01*
X179000D01*
Y3190000D02*
Y3210000D01*
X156000Y3090000D02*
Y3109000D01*
X119000Y3090000D02*
X179000D01*
X119000D02*
Y3110000D01*
X179000D01*
Y3090000D02*
Y3110000D01*
X156000Y2990000D02*
Y3009000D01*
X119000Y2990000D02*
X179000D01*
X119000D02*
Y3010000D01*
X179000D01*
Y2990000D02*
Y3010000D01*
X156000Y2890000D02*
Y2909000D01*
X119000Y2890000D02*
X179000D01*
X119000D02*
Y2910000D01*
X179000D01*
Y2890000D02*
Y2910000D01*
X156000Y2790000D02*
Y2809000D01*
X119000Y2790000D02*
X179000D01*
X119000D02*
Y2810000D01*
X179000D01*
Y2790000D02*
Y2810000D01*
X156000Y2690000D02*
Y2709000D01*
X119000Y2690000D02*
X179000D01*
X119000D02*
Y2710000D01*
X179000D01*
Y2690000D02*
Y2710000D01*
X156000Y2590000D02*
Y2609000D01*
X119000Y2590000D02*
X179000D01*
X119000D02*
Y2610000D01*
X179000D01*
Y2590000D02*
Y2610000D01*
X156000Y2490000D02*
Y2509000D01*
X119000Y2490000D02*
X179000D01*
X119000D02*
Y2510000D01*
X179000D01*
Y2490000D02*
Y2510000D01*
X156000Y2390000D02*
Y2409000D01*
X119000Y2390000D02*
X179000D01*
X119000D02*
Y2410000D01*
X179000D01*
Y2390000D02*
Y2410000D01*
X156000Y2290000D02*
Y2309000D01*
X119000Y2290000D02*
X179000D01*
X119000D02*
Y2310000D01*
X179000D01*
Y2290000D02*
Y2310000D01*
X156000Y2190000D02*
Y2209000D01*
X119000Y2190000D02*
X179000D01*
X119000D02*
Y2210000D01*
X179000D01*
Y2190000D02*
Y2210000D01*
X156000Y2090000D02*
Y2109000D01*
X119000Y2090000D02*
X179000D01*
X119000D02*
Y2110000D01*
X179000D01*
Y2090000D02*
Y2110000D01*
X156000Y1990000D02*
Y2009000D01*
X119000Y1990000D02*
X179000D01*
X119000D02*
Y2010000D01*
X179000D01*
Y1990000D02*
Y2010000D01*
X156000Y1890000D02*
Y1909000D01*
X119000Y1890000D02*
X179000D01*
X119000D02*
Y1910000D01*
X179000D01*
Y1890000D02*
Y1910000D01*
X156000Y1790000D02*
Y1809000D01*
X119000Y1790000D02*
X179000D01*
X119000D02*
Y1810000D01*
X179000D01*
Y1790000D02*
Y1810000D01*
X156000Y1690000D02*
Y1709000D01*
X119000Y1690000D02*
X179000D01*
X119000D02*
Y1710000D01*
X179000D01*
Y1690000D02*
Y1710000D01*
X156000Y1590000D02*
Y1609000D01*
X119000Y1590000D02*
X179000D01*
X119000D02*
Y1610000D01*
X179000D01*
Y1590000D02*
Y1610000D01*
X156000Y1490000D02*
Y1509000D01*
X119000Y1490000D02*
X179000D01*
X119000D02*
Y1510000D01*
X179000D01*
Y1490000D02*
Y1510000D01*
X156000Y1390000D02*
Y1409000D01*
X119000Y1390000D02*
X179000D01*
X119000D02*
Y1410000D01*
X179000D01*
Y1390000D02*
Y1410000D01*
X156000Y1290000D02*
Y1309000D01*
X119000Y1290000D02*
X179000D01*
X119000D02*
Y1310000D01*
X179000D01*
Y1290000D02*
Y1310000D01*
Y790000D02*
Y810000D01*
X119000D02*
X179000D01*
X119000Y790000D02*
Y810000D01*
Y790000D02*
X179000D01*
X156000D02*
Y809000D01*
X179000Y890000D02*
Y910000D01*
X119000D02*
X179000D01*
X119000Y890000D02*
Y910000D01*
Y890000D02*
X179000D01*
X156000D02*
Y909000D01*
X179000Y990000D02*
Y1010000D01*
X119000D02*
X179000D01*
X119000Y990000D02*
Y1010000D01*
Y990000D02*
X179000D01*
X156000D02*
Y1009000D01*
X179000Y1090000D02*
Y1110000D01*
X119000D02*
X179000D01*
X119000Y1090000D02*
Y1110000D01*
Y1090000D02*
X179000D01*
X156000D02*
Y1109000D01*
X179000Y1190000D02*
Y1210000D01*
X119000D02*
X179000D01*
X119000Y1190000D02*
Y1210000D01*
Y1190000D02*
X179000D01*
X156000D02*
Y1209000D01*
X-0Y0D02*
Y3900000D01*
X290000D01*
X290000Y0D01*
X-0D02*
X290000D01*
D14*
X86370Y293076D02*
X93990D01*
X63510D02*
Y303236D01*
Y293076D02*
X71130D01*
X76210Y305776D02*
X81290D01*
X93990Y293076D02*
Y303236D01*
X228076Y503010D02*
X238236D01*
X240776Y515710D02*
Y520790D01*
X228076Y525870D02*
Y533490D01*
X238236D01*
X228076Y503010D02*
Y510630D01*
X120924Y582370D02*
Y589990D01*
X110764Y559510D02*
X120924D01*
Y567130D01*
X108224Y572210D02*
Y577290D01*
X110764Y589990D02*
X120924D01*
X45873Y482573D02*
X76353D01*
X45873Y497573D02*
X76353D01*
X45873Y482573D02*
Y497573D01*
X76353Y484829D02*
Y497573D01*
Y482573D02*
Y484829D01*
X117000Y469500D02*
X187000D01*
X117000Y399500D02*
X187000D01*
X117000D02*
Y469500D01*
X187000Y399500D02*
Y469500D01*
X205814Y46500D02*
X236294D01*
X205814Y31500D02*
X236294D01*
Y46500D01*
X205814Y31500D02*
Y44244D01*
Y46500D01*
X205767Y28736D02*
X236247D01*
X205767Y13736D02*
X236247D01*
Y28736D01*
X205767Y13736D02*
Y26480D01*
Y28736D01*
X58500Y261750D02*
Y288750D01*
X44500Y261750D02*
X58500D01*
X44500D02*
Y288750D01*
X58500D01*
X44100Y227692D02*
Y254692D01*
X58100D01*
Y227692D02*
Y254692D01*
X44100Y227692D02*
X58100D01*
X207478Y357670D02*
Y365290D01*
Y388150D02*
X217638D01*
X207478Y380530D02*
Y388150D01*
X220178Y370370D02*
Y375450D01*
X207478Y357670D02*
X217638D01*
X248344Y487550D02*
X248820Y486598D01*
X250248Y485170D01*
X240250D01*
X235923Y545748D02*
Y539084D01*
X239255Y535752D01*
X242587Y539084D01*
Y545748D01*
X245919D02*
X252584D01*
X249252D01*
Y535752D01*
X255916Y544082D02*
X257582Y545748D01*
X260914D01*
X262581Y544082D01*
Y542416D01*
X260914Y540750D01*
X259248D01*
X260914D01*
X262581Y539084D01*
Y537418D01*
X260914Y535752D01*
X257582D01*
X255916Y537418D01*
X272577Y545748D02*
X269245Y544082D01*
X265913Y540750D01*
Y537418D01*
X267579Y535752D01*
X270911D01*
X272577Y537418D01*
Y539084D01*
X270911Y540750D01*
X265913D01*
X256004Y485752D02*
Y495748D01*
X261002D01*
X262668Y494082D01*
Y490750D01*
X261002Y489084D01*
X256004D01*
X259336D02*
X262668Y485752D01*
X266001D02*
X269333D01*
X267667D01*
Y495748D01*
X266001Y494082D01*
X279330Y485752D02*
Y495748D01*
X274331Y490750D01*
X280996D01*
X211748Y534254D02*
X201752D01*
Y539252D01*
X203418Y540919D01*
X206750D01*
X208416Y539252D01*
Y534254D01*
Y537586D02*
X211748Y540919D01*
Y544251D02*
Y547583D01*
Y545917D01*
X201752D01*
X203418Y544251D01*
Y552581D02*
X201752Y554248D01*
Y557580D01*
X203418Y559246D01*
X205084D01*
X206750Y557580D01*
Y555914D01*
Y557580D01*
X208416Y559246D01*
X210082D01*
X211748Y557580D01*
Y554248D01*
X210082Y552581D01*
X250754Y558002D02*
Y567998D01*
X255752D01*
X257418Y566332D01*
Y563000D01*
X255752Y561334D01*
X250754D01*
X254086D02*
X257418Y558002D01*
X260751D02*
X264083D01*
X262417D01*
Y567998D01*
X260751Y566332D01*
X275746Y558002D02*
X269081D01*
X275746Y564666D01*
Y566332D01*
X274080Y567998D01*
X270748D01*
X269081Y566332D01*
X99920Y331502D02*
Y341498D01*
X104919D01*
X106585Y339832D01*
Y336500D01*
X104919Y334834D01*
X99920D01*
X103252D02*
X106585Y331502D01*
X109917D02*
X113249D01*
X111583D01*
Y341498D01*
X109917Y339832D01*
X118248Y331502D02*
X121580D01*
X119914D01*
Y341498D01*
X118248Y339832D01*
X97423Y302498D02*
Y295834D01*
X100755Y292502D01*
X104087Y295834D01*
Y302498D01*
X107419D02*
X114084D01*
X110752D01*
Y292502D01*
X117416Y300832D02*
X119082Y302498D01*
X122415D01*
X124081Y300832D01*
Y299166D01*
X122415Y297500D01*
X120748D01*
X122415D01*
X124081Y295834D01*
Y294168D01*
X122415Y292502D01*
X119082D01*
X117416Y294168D01*
X134077Y302498D02*
X127413D01*
Y297500D01*
X130745Y299166D01*
X132411D01*
X134077Y297500D01*
Y294168D01*
X132411Y292502D01*
X129079D01*
X127413Y294168D01*
X144752Y362582D02*
X143085Y364248D01*
X139753D01*
X138087Y362582D01*
Y360916D01*
X139753Y359250D01*
X143085D01*
X144752Y357584D01*
Y355918D01*
X143085Y354252D01*
X139753D01*
X138087Y355918D01*
X148084Y364248D02*
Y354252D01*
X151416Y357584D01*
X154748Y354252D01*
Y364248D01*
X158081Y354252D02*
X161413D01*
X159747D01*
Y364248D01*
X158081Y362582D01*
X119260Y3827939D02*
Y3821274D01*
X122592Y3817942D01*
X125925Y3821274D01*
Y3827939D01*
X129257D02*
X135921D01*
X132589D01*
Y3817942D01*
X145918D02*
X139254D01*
X145918Y3824607D01*
Y3826273D01*
X144252Y3827939D01*
X140920D01*
X139254Y3826273D01*
X149250Y3819608D02*
X150917Y3817942D01*
X154249D01*
X155915Y3819608D01*
Y3826273D01*
X154249Y3827939D01*
X150917D01*
X149250Y3826273D01*
Y3824607D01*
X150917Y3822940D01*
X155915D01*
X119260Y3727863D02*
Y3721198D01*
X122592Y3717866D01*
X125925Y3721198D01*
Y3727863D01*
X129257D02*
X135921D01*
X132589D01*
Y3717866D01*
X145918D02*
X139254D01*
X145918Y3724531D01*
Y3726197D01*
X144252Y3727863D01*
X140920D01*
X139254Y3726197D01*
X149250D02*
X150917Y3727863D01*
X154249D01*
X155915Y3726197D01*
Y3724531D01*
X154249Y3722864D01*
X155915Y3721198D01*
Y3719532D01*
X154249Y3717866D01*
X150917D01*
X149250Y3719532D01*
Y3721198D01*
X150917Y3722864D01*
X149250Y3724531D01*
Y3726197D01*
X150917Y3722864D02*
X154249D01*
X119260Y3627787D02*
Y3621122D01*
X122592Y3617790D01*
X125925Y3621122D01*
Y3627787D01*
X129257D02*
X135921D01*
X132589D01*
Y3617790D01*
X145918D02*
X139254D01*
X145918Y3624455D01*
Y3626121D01*
X144252Y3627787D01*
X140920D01*
X139254Y3626121D01*
X155915Y3627787D02*
X152583Y3626121D01*
X149250Y3622788D01*
Y3619456D01*
X150917Y3617790D01*
X154249D01*
X155915Y3619456D01*
Y3621122D01*
X154249Y3622788D01*
X149250D01*
X119260Y3527965D02*
Y3521300D01*
X122592Y3517968D01*
X125925Y3521300D01*
Y3527965D01*
X129257D02*
X135921D01*
X132589D01*
Y3517968D01*
X145918D02*
X139254D01*
X145918Y3524633D01*
Y3526299D01*
X144252Y3527965D01*
X140920D01*
X139254Y3526299D01*
X155915Y3527965D02*
X149250D01*
Y3522966D01*
X152583Y3524633D01*
X154249D01*
X155915Y3522966D01*
Y3519634D01*
X154249Y3517968D01*
X150917D01*
X149250Y3519634D01*
X119260Y3427889D02*
Y3421224D01*
X122592Y3417892D01*
X125925Y3421224D01*
Y3427889D01*
X129257D02*
X135921D01*
X132589D01*
Y3417892D01*
X145918D02*
X139254D01*
X145918Y3424557D01*
Y3426223D01*
X144252Y3427889D01*
X140920D01*
X139254Y3426223D01*
X149250D02*
X150917Y3427889D01*
X154249D01*
X155915Y3426223D01*
Y3424557D01*
X154249Y3422890D01*
X152583D01*
X154249D01*
X155915Y3421224D01*
Y3419558D01*
X154249Y3417892D01*
X150917D01*
X149250Y3419558D01*
X119260Y3327813D02*
Y3321148D01*
X122592Y3317816D01*
X125925Y3321148D01*
Y3327813D01*
X129257D02*
X135921D01*
X132589D01*
Y3317816D01*
X145918D02*
X139254D01*
X145918Y3324481D01*
Y3326147D01*
X144252Y3327813D01*
X140920D01*
X139254Y3326147D01*
X155915Y3317816D02*
X149250D01*
X155915Y3324481D01*
Y3326147D01*
X154249Y3327813D01*
X150917D01*
X149250Y3326147D01*
X119260Y3227737D02*
Y3221072D01*
X122592Y3217740D01*
X125925Y3221072D01*
Y3227737D01*
X129257D02*
X135921D01*
X132589D01*
Y3217740D01*
X145918D02*
X139254D01*
X145918Y3224405D01*
Y3226071D01*
X144252Y3227737D01*
X140920D01*
X139254Y3226071D01*
X149250D02*
X150917Y3227737D01*
X154249D01*
X155915Y3226071D01*
Y3219406D01*
X154249Y3217740D01*
X150917D01*
X149250Y3219406D01*
Y3226071D01*
X119260Y3127915D02*
Y3121250D01*
X122592Y3117918D01*
X125925Y3121250D01*
Y3127915D01*
X129257D02*
X135921D01*
X132589D01*
Y3117918D01*
X139254D02*
X142586D01*
X140920D01*
Y3127915D01*
X139254Y3126248D01*
X147584D02*
X149250Y3127915D01*
X152583D01*
X154249Y3126248D01*
Y3124583D01*
X152583Y3122916D01*
X154249Y3121250D01*
Y3119584D01*
X152583Y3117918D01*
X149250D01*
X147584Y3119584D01*
Y3121250D01*
X149250Y3122916D01*
X147584Y3124583D01*
Y3126248D01*
X149250Y3122916D02*
X152583D01*
X119260Y3027839D02*
Y3021174D01*
X122592Y3017842D01*
X125925Y3021174D01*
Y3027839D01*
X129257D02*
X135921D01*
X132589D01*
Y3017842D01*
X139254D02*
X142586D01*
X140920D01*
Y3027839D01*
X139254Y3026172D01*
X154249Y3027839D02*
X150917Y3026172D01*
X147584Y3022840D01*
Y3019508D01*
X149250Y3017842D01*
X152583D01*
X154249Y3019508D01*
Y3021174D01*
X152583Y3022840D01*
X147584D01*
X119260Y2927763D02*
Y2921098D01*
X122592Y2917766D01*
X125925Y2921098D01*
Y2927763D01*
X129257D02*
X135921D01*
X132589D01*
Y2917766D01*
X139254D02*
X142586D01*
X140920D01*
Y2927763D01*
X139254Y2926096D01*
X152583Y2917766D02*
Y2927763D01*
X147584Y2922764D01*
X154249D01*
X119260Y2827941D02*
Y2821276D01*
X122592Y2817944D01*
X125925Y2821276D01*
Y2827941D01*
X129257D02*
X135921D01*
X132589D01*
Y2817944D01*
X139254D02*
X142586D01*
X140920D01*
Y2827941D01*
X139254Y2826275D01*
X154249Y2817944D02*
X147584D01*
X154249Y2824608D01*
Y2826275D01*
X152583Y2827941D01*
X149250D01*
X147584Y2826275D01*
X119260Y2727865D02*
Y2721200D01*
X122592Y2717868D01*
X125925Y2721200D01*
Y2727865D01*
X129257D02*
X135921D01*
X132589D01*
Y2717868D01*
X139254D02*
X142586D01*
X140920D01*
Y2727865D01*
X139254Y2726199D01*
X147584D02*
X149250Y2727865D01*
X152583D01*
X154249Y2726199D01*
Y2719534D01*
X152583Y2717868D01*
X149250D01*
X147584Y2719534D01*
Y2726199D01*
X119260Y2627789D02*
Y2621124D01*
X122592Y2617792D01*
X125925Y2621124D01*
Y2627789D01*
X129257D02*
X135921D01*
X132589D01*
Y2617792D01*
X139254Y2626123D02*
X140920Y2627789D01*
X144252D01*
X145918Y2626123D01*
Y2624456D01*
X144252Y2622791D01*
X145918Y2621124D01*
Y2619458D01*
X144252Y2617792D01*
X140920D01*
X139254Y2619458D01*
Y2621124D01*
X140920Y2622791D01*
X139254Y2624456D01*
Y2626123D01*
X140920Y2622791D02*
X144252D01*
X119260Y2527967D02*
Y2521302D01*
X122592Y2517970D01*
X125925Y2521302D01*
Y2527967D01*
X129257D02*
X135921D01*
X132589D01*
Y2517970D01*
X145918Y2527967D02*
X142586Y2526301D01*
X139254Y2522968D01*
Y2519636D01*
X140920Y2517970D01*
X144252D01*
X145918Y2519636D01*
Y2521302D01*
X144252Y2522968D01*
X139254D01*
X119260Y2427891D02*
Y2421226D01*
X122592Y2417894D01*
X125925Y2421226D01*
Y2427891D01*
X129257D02*
X135921D01*
X132589D01*
Y2417894D01*
X144252D02*
Y2427891D01*
X139254Y2422892D01*
X145918D01*
X119260Y2327815D02*
Y2321150D01*
X122592Y2317818D01*
X125925Y2321150D01*
Y2327815D01*
X129257D02*
X135921D01*
X132589D01*
Y2317818D01*
X145918D02*
X139254D01*
X145918Y2324483D01*
Y2326149D01*
X144252Y2327815D01*
X140920D01*
X139254Y2326149D01*
X119260Y2227739D02*
Y2221074D01*
X122592Y2217742D01*
X125925Y2221074D01*
Y2227739D01*
X129257D02*
X135921D01*
X132589D01*
Y2217742D01*
X139254Y2226073D02*
X140920Y2227739D01*
X144252D01*
X145918Y2226073D01*
Y2224406D01*
X144252Y2222740D01*
X142586D01*
X144252D01*
X145918Y2221074D01*
Y2219408D01*
X144252Y2217742D01*
X140920D01*
X139254Y2219408D01*
X154249Y2217742D02*
Y2227739D01*
X149250Y2222740D01*
X155915D01*
X119260Y2127917D02*
Y2121252D01*
X122592Y2117920D01*
X125925Y2121252D01*
Y2127917D01*
X129257D02*
X135921D01*
X132589D01*
Y2117920D01*
X139254Y2126251D02*
X140920Y2127917D01*
X144252D01*
X145918Y2126251D01*
Y2124585D01*
X144252Y2122918D01*
X142586D01*
X144252D01*
X145918Y2121252D01*
Y2119586D01*
X144252Y2117920D01*
X140920D01*
X139254Y2119586D01*
X149250Y2126251D02*
X150917Y2127917D01*
X154249D01*
X155915Y2126251D01*
Y2124585D01*
X154249Y2122918D01*
X152583D01*
X154249D01*
X155915Y2121252D01*
Y2119586D01*
X154249Y2117920D01*
X150917D01*
X149250Y2119586D01*
X119260Y2027841D02*
Y2021176D01*
X122592Y2017844D01*
X125925Y2021176D01*
Y2027841D01*
X129257D02*
X135921D01*
X132589D01*
Y2017844D01*
X139254Y2026175D02*
X140920Y2027841D01*
X144252D01*
X145918Y2026175D01*
Y2024509D01*
X144252Y2022842D01*
X142586D01*
X144252D01*
X145918Y2021176D01*
Y2019510D01*
X144252Y2017844D01*
X140920D01*
X139254Y2019510D01*
X149250Y2017844D02*
X152583D01*
X150917D01*
Y2027841D01*
X149250Y2026175D01*
X119260Y1927765D02*
Y1921100D01*
X122592Y1917768D01*
X125925Y1921100D01*
Y1927765D01*
X129257D02*
X135921D01*
X132589D01*
Y1917768D01*
X139254Y1926099D02*
X140920Y1927765D01*
X144252D01*
X145918Y1926099D01*
Y1924433D01*
X144252Y1922766D01*
X142586D01*
X144252D01*
X145918Y1921100D01*
Y1919434D01*
X144252Y1917768D01*
X140920D01*
X139254Y1919434D01*
X149250Y1926099D02*
X150917Y1927765D01*
X154249D01*
X155915Y1926099D01*
Y1919434D01*
X154249Y1917768D01*
X150917D01*
X149250Y1919434D01*
Y1926099D01*
X119260Y1827943D02*
Y1821278D01*
X122592Y1817946D01*
X125925Y1821278D01*
Y1827943D01*
X129257D02*
X135921D01*
X132589D01*
Y1817946D01*
X145918D02*
X139254D01*
X145918Y1824610D01*
Y1826277D01*
X144252Y1827943D01*
X140920D01*
X139254Y1826277D01*
X149250Y1827943D02*
X155915D01*
Y1826277D01*
X149250Y1819612D01*
Y1817946D01*
X119260Y1727867D02*
Y1721202D01*
X122592Y1717870D01*
X125925Y1721202D01*
Y1727867D01*
X129257D02*
X135921D01*
X132589D01*
Y1717870D01*
X145918D02*
X139254D01*
X145918Y1724534D01*
Y1726201D01*
X144252Y1727867D01*
X140920D01*
X139254Y1726201D01*
X154249Y1717870D02*
Y1727867D01*
X149250Y1722868D01*
X155915D01*
X119260Y1627791D02*
Y1621126D01*
X122592Y1617794D01*
X125925Y1621126D01*
Y1627791D01*
X129257D02*
X135921D01*
X132589D01*
Y1617794D01*
X145918D02*
X139254D01*
X145918Y1624458D01*
Y1626125D01*
X144252Y1627791D01*
X140920D01*
X139254Y1626125D01*
X149250Y1617794D02*
X152583D01*
X150917D01*
Y1627791D01*
X149250Y1626125D01*
X119260Y1527969D02*
Y1521304D01*
X122592Y1517972D01*
X125925Y1521304D01*
Y1527969D01*
X129257D02*
X135921D01*
X132589D01*
Y1517972D01*
X139254D02*
X142586D01*
X140920D01*
Y1527969D01*
X139254Y1526303D01*
X147584Y1519638D02*
X149250Y1517972D01*
X152583D01*
X154249Y1519638D01*
Y1526303D01*
X152583Y1527969D01*
X149250D01*
X147584Y1526303D01*
Y1524637D01*
X149250Y1522970D01*
X154249D01*
X119260Y1427893D02*
Y1421228D01*
X122592Y1417896D01*
X125925Y1421228D01*
Y1427893D01*
X129257D02*
X135921D01*
X132589D01*
Y1417896D01*
X139254D02*
X142586D01*
X140920D01*
Y1427893D01*
X139254Y1426227D01*
X147584Y1427893D02*
X154249D01*
Y1426227D01*
X147584Y1419562D01*
Y1417896D01*
X119260Y1327817D02*
Y1321152D01*
X122592Y1317820D01*
X125925Y1321152D01*
Y1327817D01*
X129257D02*
X135921D01*
X132589D01*
Y1317820D01*
X139254D02*
X142586D01*
X140920D01*
Y1327817D01*
X139254Y1326151D01*
X154249Y1327817D02*
X147584D01*
Y1322818D01*
X150917Y1324485D01*
X152583D01*
X154249Y1322818D01*
Y1319486D01*
X152583Y1317820D01*
X149250D01*
X147584Y1319486D01*
X198169Y3862498D02*
X204834Y3852502D01*
Y3862498D02*
X198169Y3852502D01*
X213165D02*
Y3862498D01*
X208166Y3857500D01*
X214831D01*
X241921Y26248D02*
Y19584D01*
X245253Y16252D01*
X248585Y19584D01*
Y26248D01*
X251918D02*
Y16252D01*
X256916D01*
X258582Y17918D01*
Y24582D01*
X256916Y26248D01*
X251918D01*
X261915Y24582D02*
X263581Y26248D01*
X266913D01*
X268579Y24582D01*
Y22916D01*
X266913Y21250D01*
X265247D01*
X266913D01*
X268579Y19584D01*
Y17918D01*
X266913Y16252D01*
X263581D01*
X261915Y17918D01*
X241671Y44748D02*
Y38084D01*
X245003Y34752D01*
X248335Y38084D01*
Y44748D01*
X251668D02*
Y34752D01*
X256666D01*
X258332Y36418D01*
Y43082D01*
X256666Y44748D01*
X251668D01*
X268329Y34752D02*
X261665D01*
X268329Y41416D01*
Y43082D01*
X266663Y44748D01*
X263331D01*
X261665Y43082D01*
X252498Y91919D02*
X242502D01*
Y96918D01*
X244168Y98584D01*
X247500D01*
X249166Y96918D01*
Y91919D01*
Y95252D02*
X252498Y98584D01*
X242502Y108581D02*
X244168Y105248D01*
X247500Y101916D01*
X250832D01*
X252498Y103582D01*
Y106915D01*
X250832Y108581D01*
X249166D01*
X247500Y106915D01*
Y101916D01*
X234748Y91669D02*
X224752D01*
Y96668D01*
X226418Y98334D01*
X229750D01*
X231416Y96668D01*
Y91669D01*
Y95002D02*
X234748Y98334D01*
X224752Y108331D02*
Y101666D01*
X229750D01*
X228084Y104998D01*
Y106664D01*
X229750Y108331D01*
X233082D01*
X234748Y106664D01*
Y103332D01*
X233082Y101666D01*
X90169Y89502D02*
Y99498D01*
X95168D01*
X96834Y97832D01*
Y94500D01*
X95168Y92834D01*
X90169D01*
X93502D02*
X96834Y89502D01*
X105164D02*
Y99498D01*
X100166Y94500D01*
X106831D01*
X71669Y67252D02*
Y77248D01*
X76668D01*
X78334Y75582D01*
Y72250D01*
X76668Y70584D01*
X71669D01*
X75002D02*
X78334Y67252D01*
X81666Y75582D02*
X83332Y77248D01*
X86664D01*
X88331Y75582D01*
Y73916D01*
X86664Y72250D01*
X84998D01*
X86664D01*
X88331Y70584D01*
Y68918D01*
X86664Y67252D01*
X83332D01*
X81666Y68918D01*
X161087Y120248D02*
Y110252D01*
X166085D01*
X167752Y111918D01*
Y118582D01*
X166085Y120248D01*
X161087D01*
X171084Y110252D02*
Y116916D01*
X174416Y120248D01*
X177748Y116916D01*
Y110252D01*
Y115250D01*
X171084D01*
X181081Y110252D02*
X184413D01*
X182747D01*
Y120248D01*
X181081Y118582D01*
X172334Y31082D02*
X170668Y32748D01*
X167335D01*
X165669Y31082D01*
Y24418D01*
X167335Y22752D01*
X170668D01*
X172334Y24418D01*
X182331Y22752D02*
X175666D01*
X182331Y29416D01*
Y31082D01*
X180665Y32748D01*
X177332D01*
X175666Y31082D01*
X135000Y104832D02*
X133334Y106498D01*
X130002D01*
X128336Y104832D01*
Y98168D01*
X130002Y96502D01*
X133334D01*
X135000Y98168D01*
X138332Y96502D02*
X141664D01*
X139998D01*
Y106498D01*
X138332Y104832D01*
X174087Y525248D02*
Y515252D01*
X179086D01*
X180752Y516918D01*
Y518584D01*
X179086Y520250D01*
X174087D01*
X179086D01*
X180752Y521916D01*
Y523582D01*
X179086Y525248D01*
X174087D01*
X190748Y516918D02*
Y523582D01*
X189082Y525248D01*
X185750D01*
X184084Y523582D01*
Y516918D01*
X185750Y515252D01*
X189082D01*
X187416Y518584D02*
X190748Y515252D01*
X189082D02*
X190748Y516918D01*
X194081Y515252D02*
X197413D01*
X195747D01*
Y525248D01*
X194081Y523582D01*
X34334Y402332D02*
X32668Y403998D01*
X29335D01*
X27669Y402332D01*
Y395668D01*
X29335Y394002D01*
X32668D01*
X34334Y395668D01*
X37666Y402332D02*
X39332Y403998D01*
X42664D01*
X44331Y402332D01*
Y400666D01*
X42664Y399000D01*
X40998D01*
X42664D01*
X44331Y397334D01*
Y395668D01*
X42664Y394002D01*
X39332D01*
X37666Y395668D01*
X94834Y373082D02*
X93168Y374748D01*
X89836D01*
X88169Y373082D01*
Y366418D01*
X89836Y364752D01*
X93168D01*
X94834Y366418D01*
X103165Y364752D02*
Y374748D01*
X98166Y369750D01*
X104831D01*
X94584Y393582D02*
X92918Y395248D01*
X89586D01*
X87919Y393582D01*
Y386918D01*
X89586Y385252D01*
X92918D01*
X94584Y386918D01*
X97916Y393582D02*
X99582Y395248D01*
X102914D01*
X104581Y393582D01*
Y391916D01*
X102914Y390250D01*
X104581Y388584D01*
Y386918D01*
X102914Y385252D01*
X99582D01*
X97916Y386918D01*
Y388584D01*
X99582Y390250D01*
X97916Y391916D01*
Y393582D01*
X99582Y390250D02*
X102914D01*
X20668Y517334D02*
X19002Y515668D01*
Y512336D01*
X20668Y510669D01*
X27332D01*
X28998Y512336D01*
Y515668D01*
X27332Y517334D01*
X19002Y527331D02*
Y520666D01*
X24000D01*
X22334Y523998D01*
Y525664D01*
X24000Y527331D01*
X27332D01*
X28998Y525664D01*
Y522332D01*
X27332Y520666D01*
X94834Y545582D02*
X93168Y547248D01*
X89836D01*
X88169Y545582D01*
Y538918D01*
X89836Y537252D01*
X93168D01*
X94834Y538918D01*
X104831Y547248D02*
X101498Y545582D01*
X98166Y542250D01*
Y538918D01*
X99832Y537252D01*
X103165D01*
X104831Y538918D01*
Y540584D01*
X103165Y542250D01*
X98166D01*
X181334Y561582D02*
X179668Y563248D01*
X176336D01*
X174669Y561582D01*
Y554918D01*
X176336Y553252D01*
X179668D01*
X181334Y554918D01*
X184666Y563248D02*
X191331D01*
Y561582D01*
X184666Y554918D01*
Y553252D01*
X178584Y539332D02*
X176918Y540998D01*
X173585D01*
X171919Y539332D01*
Y532668D01*
X173585Y531002D01*
X176918D01*
X178584Y532668D01*
X181916D02*
X183582Y531002D01*
X186915D01*
X188581Y532668D01*
Y539332D01*
X186915Y540998D01*
X183582D01*
X181916Y539332D01*
Y537666D01*
X183582Y536000D01*
X188581D01*
X50421Y551748D02*
Y541752D01*
X55419D01*
X57085Y543418D01*
Y550082D01*
X55419Y551748D01*
X50421D01*
X60418Y541752D02*
Y548416D01*
X63750Y551748D01*
X67082Y548416D01*
Y541752D01*
Y546750D01*
X60418D01*
X77079Y541752D02*
X70415D01*
X77079Y548416D01*
Y550082D01*
X75413Y551748D01*
X72081D01*
X70415Y550082D01*
X122587Y379748D02*
Y369752D01*
X127585D01*
X129252Y371418D01*
Y378082D01*
X127585Y379748D01*
X122587D01*
X132584D02*
Y369752D01*
X137582D01*
X139248Y371418D01*
Y378082D01*
X137582Y379748D01*
X132584D01*
X142581Y369752D02*
X145913D01*
X144247D01*
Y379748D01*
X142581Y378082D01*
X34419Y468002D02*
Y477998D01*
X39418D01*
X41084Y476332D01*
Y473000D01*
X39418Y471334D01*
X34419D01*
X37752D02*
X41084Y468002D01*
X51081D02*
X44416D01*
X51081Y474666D01*
Y476332D01*
X49415Y477998D01*
X46082D01*
X44416Y476332D01*
X207669Y426252D02*
Y436248D01*
X212668D01*
X214334Y434582D01*
Y431250D01*
X212668Y429584D01*
X207669D01*
X211002D02*
X214334Y426252D01*
X217666Y434582D02*
X219332Y436248D01*
X222665D01*
X224331Y434582D01*
Y432916D01*
X222665Y431250D01*
X224331Y429584D01*
Y427918D01*
X222665Y426252D01*
X219332D01*
X217666Y427918D01*
Y429584D01*
X219332Y431250D01*
X217666Y432916D01*
Y434582D01*
X219332Y431250D02*
X222665D01*
X57419Y571502D02*
Y581498D01*
X62418D01*
X64084Y579832D01*
Y576500D01*
X62418Y574834D01*
X57419D01*
X60752D02*
X64084Y571502D01*
X67416Y573168D02*
X69082Y571502D01*
X72414D01*
X74081Y573168D01*
Y579832D01*
X72414Y581498D01*
X69082D01*
X67416Y579832D01*
Y578166D01*
X69082Y576500D01*
X74081D01*
X169504Y582002D02*
Y591998D01*
X174502D01*
X176168Y590332D01*
Y587000D01*
X174502Y585334D01*
X169504D01*
X172836D02*
X176168Y582002D01*
X179501D02*
X182833D01*
X181167D01*
Y591998D01*
X179501Y590332D01*
X187831D02*
X189498Y591998D01*
X192830D01*
X194496Y590332D01*
Y583668D01*
X192830Y582002D01*
X189498D01*
X187831Y583668D01*
Y590332D01*
X113835Y666752D02*
Y676748D01*
X118834D01*
X120500Y675082D01*
Y671750D01*
X118834Y670084D01*
X113835D01*
X117168D02*
X120500Y666752D01*
X123832D02*
X127164D01*
X125498D01*
Y676748D01*
X123832Y675082D01*
X151919Y490002D02*
Y499998D01*
X156918D01*
X158584Y498332D01*
Y495000D01*
X156918Y493334D01*
X151919D01*
X155252D02*
X158584Y490002D01*
X161916Y499998D02*
X168581D01*
Y498332D01*
X161916Y491668D01*
Y490002D01*
X18087Y494998D02*
Y488334D01*
X21419Y485002D01*
X24752Y488334D01*
Y494998D01*
X28084D02*
Y485002D01*
X33082D01*
X34748Y486668D01*
Y493332D01*
X33082Y494998D01*
X28084D01*
X38081Y485002D02*
X41413D01*
X39747D01*
Y494998D01*
X38081Y493332D01*
X180587Y364248D02*
Y357584D01*
X183919Y354252D01*
X187252Y357584D01*
Y364248D01*
X190584D02*
X197248D01*
X193916D01*
Y354252D01*
X200581D02*
X203913D01*
X202247D01*
Y364248D01*
X200581Y362582D01*
X119260Y727869D02*
Y721204D01*
X122592Y717872D01*
X125925Y721204D01*
Y727869D01*
X129257D02*
X135921D01*
X132589D01*
Y717872D01*
X139254Y726203D02*
X140920Y727869D01*
X144252D01*
X145918Y726203D01*
Y724537D01*
X144252Y722870D01*
X142586D01*
X144252D01*
X145918Y721204D01*
Y719538D01*
X144252Y717872D01*
X140920D01*
X139254Y719538D01*
X119260Y827945D02*
Y821280D01*
X122592Y817948D01*
X125925Y821280D01*
Y827945D01*
X129257D02*
X135921D01*
X132589D01*
Y817948D01*
X145918Y827945D02*
X139254D01*
Y822946D01*
X142586Y824613D01*
X144252D01*
X145918Y822946D01*
Y819614D01*
X144252Y817948D01*
X140920D01*
X139254Y819614D01*
X119260Y927767D02*
Y921102D01*
X122592Y917770D01*
X125925Y921102D01*
Y927767D01*
X129257D02*
X135921D01*
X132589D01*
Y917770D01*
X139254Y927767D02*
X145918D01*
Y926101D01*
X139254Y919436D01*
Y917770D01*
X119260Y1027843D02*
Y1021178D01*
X122592Y1017846D01*
X125925Y1021178D01*
Y1027843D01*
X129257D02*
X135921D01*
X132589D01*
Y1017846D01*
X139254Y1019512D02*
X140920Y1017846D01*
X144252D01*
X145918Y1019512D01*
Y1026177D01*
X144252Y1027843D01*
X140920D01*
X139254Y1026177D01*
Y1024510D01*
X140920Y1022844D01*
X145918D01*
X119260Y1127919D02*
Y1121254D01*
X122592Y1117922D01*
X125925Y1121254D01*
Y1127919D01*
X129257D02*
X135921D01*
X132589D01*
Y1117922D01*
X139254D02*
X142586D01*
X140920D01*
Y1127919D01*
X139254Y1126253D01*
X147584Y1117922D02*
X150917D01*
X149250D01*
Y1127919D01*
X147584Y1126253D01*
X119260Y1227741D02*
Y1221076D01*
X122592Y1217744D01*
X125925Y1221076D01*
Y1227741D01*
X129257D02*
X135921D01*
X132589D01*
Y1217744D01*
X139254D02*
X142586D01*
X140920D01*
Y1227741D01*
X139254Y1226075D01*
X147584D02*
X149250Y1227741D01*
X152583D01*
X154249Y1226075D01*
Y1224408D01*
X152583Y1222742D01*
X150917D01*
X152583D01*
X154249Y1221076D01*
Y1219410D01*
X152583Y1217744D01*
X149250D01*
X147584Y1219410D01*
X122423Y600998D02*
Y594334D01*
X125755Y591002D01*
X129087Y594334D01*
Y600998D01*
X132419D02*
X139084D01*
X135752D01*
Y591002D01*
X142416Y599332D02*
X144082Y600998D01*
X147415D01*
X149081Y599332D01*
Y597666D01*
X147415Y596000D01*
X145748D01*
X147415D01*
X149081Y594334D01*
Y592668D01*
X147415Y591002D01*
X144082D01*
X142416Y592668D01*
X159077Y591002D02*
X152413D01*
X159077Y597666D01*
Y599332D01*
X157411Y600998D01*
X154079D01*
X152413Y599332D01*
X236419Y367398D02*
X243084Y357402D01*
Y367398D02*
X236419Y357402D01*
X253081Y367398D02*
X246416D01*
Y362400D01*
X249748Y364066D01*
X251415D01*
X253081Y362400D01*
Y359068D01*
X251415Y357402D01*
X248082D01*
X246416Y359068D01*
X29750Y279582D02*
X28084Y281248D01*
X24752D01*
X23085Y279582D01*
Y277916D01*
X24752Y276250D01*
X28084D01*
X29750Y274584D01*
Y272918D01*
X28084Y271252D01*
X24752D01*
X23085Y272918D01*
X33082Y271252D02*
X36414D01*
X34748D01*
Y281248D01*
X33082Y279582D01*
X28084Y244832D02*
X26418Y246498D01*
X23085D01*
X21419Y244832D01*
Y243166D01*
X23085Y241500D01*
X26418D01*
X28084Y239834D01*
Y238168D01*
X26418Y236502D01*
X23085D01*
X21419Y238168D01*
X38081Y236502D02*
X31416D01*
X38081Y243166D01*
Y244832D01*
X36414Y246498D01*
X33082D01*
X31416Y244832D01*
X77169Y201248D02*
X83834Y191252D01*
Y201248D02*
X77169Y191252D01*
X87166Y199582D02*
X88832Y201248D01*
X92164D01*
X93831Y199582D01*
Y197916D01*
X92164Y196250D01*
X90498D01*
X92164D01*
X93831Y194584D01*
Y192918D01*
X92164Y191252D01*
X88832D01*
X87166Y192918D01*
X145000Y0D02*
Y3899750D01*
D15*
X160500Y62350D02*
Y106350D01*
Y62350D02*
X202500D01*
Y106350D01*
X160500D02*
X202500D01*
M02*
