G04*
G04 #@! TF.GenerationSoftware,Altium Limited,Altium Designer,21.2.0 (30)*
G04*
G04 Layer_Color=8388736*
%FSLAX44Y44*%
%MOMM*%
G71*
G04*
G04 #@! TF.SameCoordinates,A6DC43CA-0054-425C-8A59-4F5BC2DD46D4*
G04*
G04*
G04 #@! TF.FilePolarity,Negative*
G04*
G01*
G75*
%ADD13C,0.2540*%
%ADD14C,0.1500*%
%ADD16R,1.0160X1.0160*%
%ADD19R,1.0160X1.0160*%
%ADD38R,1.2192X1.2192*%
%ADD39R,1.2192X1.2192*%
%ADD40R,2.6032X3.6032*%
%ADD41R,1.5032X0.9032*%
%ADD42R,1.5032X1.2032*%
%ADD43R,1.9532X1.7032*%
%ADD44R,1.9812X1.8288*%
%ADD45R,0.8532X1.2532*%
%ADD46R,2.1032X1.3032*%
%ADD47R,1.2032X0.4732*%
%ADD48R,0.4732X1.2032*%
G04:AMPARAMS|DCode=49|XSize=2.7032mm|YSize=1.2032mm|CornerRadius=0.3516mm|HoleSize=0mm|Usage=FLASHONLY|Rotation=90.000|XOffset=0mm|YOffset=0mm|HoleType=Round|Shape=RoundedRectangle|*
%AMROUNDEDRECTD49*
21,1,2.7032,0.5000,0,0,90.0*
21,1,2.0000,1.2032,0,0,90.0*
1,1,0.7032,0.2500,1.0000*
1,1,0.7032,0.2500,-1.0000*
1,1,0.7032,-0.2500,-1.0000*
1,1,0.7032,-0.2500,1.0000*
%
%ADD49ROUNDEDRECTD49*%
%ADD50R,1.6282X1.8032*%
%ADD51R,1.2032X2.1032*%
%ADD52R,2.0032X2.1032*%
%ADD53R,1.8532X1.5032*%
%ADD54R,0.6032X1.5532*%
%ADD55R,1.2032X1.2032*%
%ADD56R,1.7032X1.0032*%
%ADD57R,2.2032X1.6532*%
%ADD58R,1.7272X1.7272*%
%ADD59C,1.7272*%
%ADD60R,1.7272X1.7272*%
D13*
X-0Y0D02*
Y3900000D01*
X290000D01*
X290000Y0D01*
X-0D02*
X290000D01*
D14*
X145000D02*
Y3899750D01*
D16*
X223250Y518250D02*
D03*
X245348Y528410D02*
D03*
Y508090D02*
D03*
X103652Y584910D02*
D03*
Y564590D02*
D03*
X125750Y574750D02*
D03*
X224750Y362750D02*
D03*
Y383070D02*
D03*
X202652Y372910D02*
D03*
D19*
X88910Y310348D02*
D03*
X68590D02*
D03*
X78750Y288250D02*
D03*
D38*
X89000Y326970D02*
D03*
Y344750D02*
D03*
X240000Y554970D02*
D03*
Y572750D02*
D03*
X222750Y537500D02*
D03*
Y555280D02*
D03*
X85750Y584530D02*
D03*
Y566750D02*
D03*
X113750Y504970D02*
D03*
Y522750D02*
D03*
X88906Y528610D02*
D03*
Y510830D02*
D03*
X37000Y529500D02*
D03*
Y511720D02*
D03*
X118000Y103000D02*
D03*
Y85220D02*
D03*
X133000Y85000D02*
D03*
Y67220D02*
D03*
X248405Y78000D02*
D03*
Y60220D02*
D03*
X230000Y78000D02*
D03*
Y60220D02*
D03*
X193000Y20220D02*
D03*
Y38000D02*
D03*
X215000Y399500D02*
D03*
Y417280D02*
D03*
D39*
X228220Y490500D02*
D03*
X246000D02*
D03*
X160280Y574911D02*
D03*
X142500D02*
D03*
X134750Y541500D02*
D03*
X116970D02*
D03*
X69967Y490073D02*
D03*
X52187D02*
D03*
X105780Y474000D02*
D03*
X88000D02*
D03*
Y490250D02*
D03*
X105780D02*
D03*
X59970Y390000D02*
D03*
X77750D02*
D03*
Y370000D02*
D03*
X59970D02*
D03*
X98720Y71000D02*
D03*
X116500D02*
D03*
X212200Y39000D02*
D03*
X229980D02*
D03*
X212153Y21236D02*
D03*
X229933D02*
D03*
D40*
X181497Y84350D02*
D03*
D41*
X209000Y90700D02*
D03*
Y103400D02*
D03*
Y78000D02*
D03*
Y65300D02*
D03*
X154000Y90700D02*
D03*
Y103400D02*
D03*
Y78000D02*
D03*
Y65300D02*
D03*
D42*
X228000Y338750D02*
D03*
Y293750D02*
D03*
X151000Y338750D02*
D03*
Y293750D02*
D03*
D43*
X130000Y700000D02*
D03*
X168000D02*
D03*
X130000Y3800000D02*
D03*
X168000D02*
D03*
X130000Y3700000D02*
D03*
X168000D02*
D03*
X130000Y3600000D02*
D03*
X168000D02*
D03*
X130000Y3500000D02*
D03*
X168000D02*
D03*
X130000Y3400000D02*
D03*
X168000D02*
D03*
X130000Y3300000D02*
D03*
X168000D02*
D03*
X130000Y3200000D02*
D03*
X168000D02*
D03*
X130000Y3100000D02*
D03*
X168000D02*
D03*
X130000Y3000000D02*
D03*
X168000D02*
D03*
X130000Y2900000D02*
D03*
X168000D02*
D03*
X130000Y2800000D02*
D03*
X168000D02*
D03*
X130000Y2700000D02*
D03*
X168000D02*
D03*
X130000Y2600000D02*
D03*
X168000D02*
D03*
X130000Y2500000D02*
D03*
X168000D02*
D03*
X130000Y2400000D02*
D03*
X168000D02*
D03*
X130000Y2300000D02*
D03*
X168000D02*
D03*
X130000Y2200000D02*
D03*
X168000D02*
D03*
X130000Y2100000D02*
D03*
X168000D02*
D03*
X130000Y2000000D02*
D03*
X168000D02*
D03*
X130000Y1900000D02*
D03*
X168000D02*
D03*
X130000Y1800000D02*
D03*
X168000D02*
D03*
X130000Y1700000D02*
D03*
X168000D02*
D03*
X130000Y1600000D02*
D03*
X168000D02*
D03*
X130000Y1500000D02*
D03*
X168000D02*
D03*
X130000Y1400000D02*
D03*
X168000D02*
D03*
X130000Y1300000D02*
D03*
X168000D02*
D03*
Y800000D02*
D03*
X130000D02*
D03*
X168000Y900000D02*
D03*
X130000D02*
D03*
X168000Y1000000D02*
D03*
X130000D02*
D03*
X168000Y1100000D02*
D03*
X130000D02*
D03*
X168000Y1200000D02*
D03*
X130000D02*
D03*
D44*
X132250Y648500D02*
D03*
X106850D02*
D03*
D45*
X51500Y511000D02*
D03*
X70500D02*
D03*
X61000Y534000D02*
D03*
D46*
X135330Y499970D02*
D03*
Y524970D02*
D03*
D47*
X107000Y462000D02*
D03*
Y457000D02*
D03*
Y452000D02*
D03*
Y447000D02*
D03*
Y442000D02*
D03*
Y437000D02*
D03*
Y432000D02*
D03*
Y427000D02*
D03*
Y422000D02*
D03*
X197000D02*
D03*
Y427000D02*
D03*
Y432000D02*
D03*
Y437000D02*
D03*
Y442000D02*
D03*
Y447000D02*
D03*
Y452000D02*
D03*
Y457000D02*
D03*
Y462000D02*
D03*
X107000Y407000D02*
D03*
X197000D02*
D03*
X107000Y417000D02*
D03*
Y412000D02*
D03*
X197000D02*
D03*
Y417000D02*
D03*
D48*
X139500Y479500D02*
D03*
X134500D02*
D03*
X129500D02*
D03*
X124500D02*
D03*
X179500D02*
D03*
X174500D02*
D03*
X169500D02*
D03*
X164500D02*
D03*
X159500D02*
D03*
X154500D02*
D03*
X149500D02*
D03*
X124500Y389500D02*
D03*
X129500D02*
D03*
X134500D02*
D03*
X139500D02*
D03*
X154500D02*
D03*
X159500D02*
D03*
X164500D02*
D03*
X179500D02*
D03*
X169500D02*
D03*
X174500D02*
D03*
X149500D02*
D03*
X144500Y479500D02*
D03*
Y389500D02*
D03*
D49*
X60250Y416250D02*
D03*
Y455250D02*
D03*
D50*
X169125Y3855250D02*
D03*
X119375D02*
D03*
D51*
X128750Y3880750D02*
D03*
D52*
X155750D02*
D03*
D53*
X178000D02*
D03*
X110500D02*
D03*
D54*
X150750Y3854000D02*
D03*
X137750D02*
D03*
X157250D02*
D03*
X131250D02*
D03*
X144250D02*
D03*
D55*
X51500Y281750D02*
D03*
Y268750D02*
D03*
X51100Y234692D02*
D03*
Y247692D02*
D03*
D56*
X139250Y167500D02*
D03*
Y178500D02*
D03*
Y189500D02*
D03*
Y200500D02*
D03*
Y211500D02*
D03*
Y222500D02*
D03*
Y233500D02*
D03*
Y244500D02*
D03*
D57*
X113250Y268250D02*
D03*
Y130250D02*
D03*
X196250Y268250D02*
D03*
Y130250D02*
D03*
D58*
X244250Y464550D02*
D03*
D59*
Y413750D02*
D03*
Y388350D02*
D03*
Y439150D02*
D03*
X34600Y620000D02*
D03*
X120000D02*
D03*
X145400D02*
D03*
D60*
X60000D02*
D03*
X94600D02*
D03*
M02*
